<svg xmlns="http://www.w3.org/2000/svg" xmlns:xlink="http://www.w3.org/1999/xlink" width="500" zoomAndPan="magnify" viewBox="0 0 375 374.999991" height="500" preserveAspectRatio="xMidYMid meet" version="1.0"><defs><clipPath id="93e16894c4"><path d="M 190 69.1875 L 198 69.1875 L 198 119 L 190 119 Z M 190 69.1875 " clip-rule="nonzero"/></clipPath><clipPath id="75baf6115b"><path d="M 63 194 L 302 194 L 302 305.4375 L 63 305.4375 Z M 63 194 " clip-rule="nonzero"/></clipPath></defs><path fill="#000000" d="M 127.117188 125.054688 C 129.066406 125.054688 130.460938 123.386719 130.460938 121.71875 L 130.460938 95.59375 C 130.460938 93.648438 128.789062 92.257812 127.117188 92.257812 C 125.445312 92.257812 123.773438 93.925781 123.773438 95.59375 L 123.773438 121.71875 C 123.492188 123.664062 125.164062 125.054688 127.117188 125.054688 Z M 127.117188 125.054688 " fill-opacity="1" fill-rule="nonzero"/><path fill="#000000" d="M 146.070312 111.992188 C 148.023438 111.992188 149.417969 110.324219 149.417969 108.65625 L 149.417969 76.691406 C 149.417969 74.746094 147.746094 73.355469 146.070312 73.355469 C 144.398438 73.355469 142.726562 75.023438 142.726562 76.691406 L 142.726562 108.65625 C 142.449219 110.601562 144.121094 111.992188 146.070312 111.992188 Z M 146.070312 111.992188 " fill-opacity="1" fill-rule="nonzero"/><path fill="#000000" d="M 165.304688 111.992188 C 167.257812 111.992188 168.652344 110.324219 168.652344 108.65625 L 168.652344 92.257812 C 168.652344 90.3125 166.976562 88.921875 165.304688 88.921875 C 163.632812 88.921875 161.960938 90.589844 161.960938 92.257812 L 161.960938 108.65625 C 161.960938 110.601562 163.355469 111.992188 165.304688 111.992188 Z M 165.304688 111.992188 " fill-opacity="1" fill-rule="nonzero"/><g clip-path="url(#93e16894c4)"><path fill="#000000" d="M 194.296875 118.105469 C 196.246094 118.105469 197.640625 116.4375 197.640625 114.769531 L 197.640625 72.523438 C 197.640625 70.578125 195.96875 69.1875 194.296875 69.1875 C 192.621094 69.1875 190.949219 70.855469 190.949219 72.523438 L 190.949219 114.492188 C 190.949219 116.714844 192.34375 118.105469 194.296875 118.105469 Z M 194.296875 118.105469 " fill-opacity="1" fill-rule="nonzero"/></g><path fill="#000000" d="M 162.238281 201.765625 C 185.375 201.765625 204.050781 183.144531 204.050781 160.074219 C 204.050781 137.003906 185.375 118.382812 162.238281 118.382812 C 139.101562 118.382812 120.425781 137.003906 120.425781 160.074219 C 120.425781 183.144531 139.101562 201.765625 162.238281 201.765625 Z M 147.464844 170.082031 C 147.464844 168.136719 149.136719 166.746094 150.8125 166.746094 C 152.484375 166.746094 154.15625 168.414062 154.15625 170.082031 L 154.15625 172.582031 C 154.15625 175.082031 156.105469 177.027344 158.617188 177.027344 L 165.027344 177.027344 C 167.535156 177.027344 169.488281 175.082031 169.488281 172.582031 L 169.488281 167.300781 C 169.488281 166.46875 169.207031 165.078125 167.257812 164.242188 L 153.875 162.019531 C 149.695312 160.628906 146.90625 156.738281 146.90625 152.570312 L 146.90625 147.011719 C 146.90625 140.898438 151.925781 135.894531 158.058594 135.617188 L 158.058594 133.113281 C 158.058594 131.167969 159.730469 129.777344 161.402344 129.777344 C 163.074219 129.777344 164.746094 131.445312 164.746094 133.113281 L 164.746094 135.335938 C 170.878906 135.617188 175.898438 140.617188 175.898438 146.734375 L 175.898438 149.234375 C 175.898438 151.179688 174.226562 152.570312 172.554688 152.570312 C 170.878906 152.570312 169.207031 150.902344 169.207031 149.234375 L 169.207031 146.734375 C 169.207031 144.230469 167.257812 142.285156 164.746094 142.007812 L 158.335938 142.007812 C 155.828125 142.007812 153.875 143.953125 153.875 146.457031 L 153.875 152.015625 C 153.875 153.125 154.714844 154.238281 155.828125 154.792969 L 169.488281 157.296875 C 173.667969 158.683594 176.457031 162.574219 176.175781 167.023438 L 176.175781 172.304688 C 176.175781 178.417969 171.160156 183.421875 165.027344 183.699219 L 165.027344 186.480469 C 165.027344 188.425781 163.355469 189.8125 161.683594 189.8125 C 160.007812 189.8125 158.335938 188.148438 158.335938 186.480469 L 158.335938 183.699219 C 152.203125 183.421875 147.1875 178.417969 147.1875 172.304688 Z M 147.464844 170.082031 " fill-opacity="1" fill-rule="nonzero"/><path fill="#000000" d="M 267.050781 282.648438 C 267.050781 284.59375 268.722656 286.261719 270.671875 286.261719 C 272.625 286.261719 274.296875 284.59375 274.296875 282.648438 C 274.296875 280.699219 272.625 279.035156 270.671875 279.035156 C 268.722656 279.3125 267.050781 280.699219 267.050781 282.648438 Z M 267.050781 282.648438 " fill-opacity="1" fill-rule="nonzero"/><g clip-path="url(#75baf6115b)"><path fill="#000000" d="M 298.828125 298.765625 L 254.785156 298.765625 L 254.785156 222.054688 L 291.578125 222.054688 C 293.53125 222.054688 294.925781 220.386719 294.925781 218.71875 C 294.925781 217.050781 293.25 215.386719 291.578125 215.386719 L 254.785156 215.386719 L 254.785156 204.265625 C 254.785156 202.320312 253.113281 200.933594 251.4375 200.933594 C 249.765625 200.933594 248.09375 202.597656 248.09375 204.265625 L 248.09375 215.386719 L 228.023438 215.386719 C 226.074219 215.386719 224.679688 216.773438 224.679688 218.71875 L 224.679688 228.726562 L 218.269531 228.726562 L 197.917969 210.9375 C 197.363281 210.382812 196.527344 210.105469 195.6875 210.105469 L 140.21875 210.105469 C 138.546875 210.105469 136.875 211.492188 136.875 213.160156 C 136.875 213.4375 136.59375 215.386719 136.59375 215.386719 C 136.59375 220.386719 138.265625 225.113281 141.054688 229.003906 L 137.152344 229.003906 C 137.152344 229.003906 121.820312 205.378906 121.261719 204.546875 C 116.246094 197.320312 107.605469 192.316406 98.964844 195.09375 L 93.386719 197.039062 C 91.714844 197.875 90.601562 199.820312 91.4375 201.488281 C 91.4375 201.488281 92.832031 203.988281 92.832031 203.988281 C 85.027344 199.820312 74.992188 199.265625 68.578125 205.65625 L 64.398438 210.105469 C 63.28125 211.773438 63.5625 213.996094 64.957031 215.105469 L 114.851562 249.292969 C 114.851562 249.292969 193.179688 278.476562 193.179688 278.476562 C 193.738281 278.476562 224.402344 278.476562 224.402344 278.476562 L 224.402344 284.035156 C 224.402344 285.980469 225.792969 287.371094 227.746094 287.371094 L 247.535156 287.371094 L 247.535156 302.101562 C 247.535156 304.046875 249.210938 305.4375 250.882812 305.4375 L 298.269531 305.4375 C 300.21875 305.4375 301.613281 303.769531 301.613281 302.101562 C 301.613281 300.433594 300.5 298.765625 298.828125 298.765625 Z M 100.914062 201.488281 C 107.046875 199.542969 113.738281 204.546875 116.804688 210.660156 L 124.328125 222.332031 L 104.257812 210.660156 L 99.242188 202.042969 Z M 224.679688 271.527344 L 195.132812 271.527344 L 118.195312 243.179688 L 72.203125 211.492188 L 73.316406 210.382812 C 78.058594 205.65625 86.140625 207.324219 91.714844 211.214844 L 121.542969 228.449219 L 133.25 235.398438 C 133.808594 235.675781 134.363281 235.953125 134.921875 235.953125 L 184.816406 235.953125 C 186.769531 235.953125 188.164062 234.285156 188.164062 232.617188 C 188.164062 230.671875 186.492188 229.28125 184.816406 229.28125 L 153.039062 229.28125 C 147.746094 228.449219 143.84375 222.613281 143.285156 217.332031 L 194.015625 217.332031 L 214.367188 235.117188 C 214.921875 235.675781 215.757812 235.953125 216.59375 235.953125 L 224.402344 235.953125 Z M 224.679688 271.527344 " fill-opacity="1" fill-rule="nonzero"/></g></svg>