<svg xmlns="http://www.w3.org/2000/svg" xmlns:xlink="http://www.w3.org/1999/xlink" width="500" zoomAndPan="magnify" viewBox="0 0 375 374.999991" height="500" preserveAspectRatio="xMidYMid meet" version="1.0"><defs><clipPath id="367aee9e0c"><path d="M 26.8125 55.871094 L 348.5625 55.871094 L 348.5625 319.121094 L 26.8125 319.121094 Z M 26.8125 55.871094 " clip-rule="nonzero"/></clipPath></defs><g clip-path="url(#367aee9e0c)"><path fill="#f9f7f7" d="M 188.960938 81.117188 L 26.816406 81.117188 L 26.816406 55.871094 L 348.558594 55.871094 L 348.558594 81.117188 L 217.164062 81.117188 L 217.164062 107.75 C 231.652344 108.058594 245.523438 110.136719 258.855469 113.910156 C 272.1875 117.679688 283.902344 123.144531 294.152344 130.148438 C 304.398438 137.230469 312.570312 145.773438 318.65625 155.9375 C 324.820312 166.097656 327.90625 177.71875 327.90625 190.726562 C 327.90625 200.273438 326.285156 208.664062 323.050781 215.898438 C 319.8125 223.210938 315.652344 229.292969 310.410156 234.21875 C 305.171875 239.144531 299.160156 242.839844 292.457031 245.378906 C 285.75 247.917969 278.738281 249.152344 271.648438 249.152344 C 264.636719 249.152344 258.855469 248.074219 254.386719 245.996094 C 249.917969 243.917969 246.21875 241.300781 243.519531 238.144531 C 240.824219 235.066406 238.972656 231.753906 237.894531 228.136719 C 236.816406 224.519531 236.351562 221.441406 236.351562 218.667969 C 236.351562 215.207031 237.046875 211.972656 238.355469 208.816406 C 239.667969 205.660156 241.515625 202.890625 243.828125 200.503906 C 246.21875 198.117188 248.992188 196.191406 252.382812 194.730469 C 255.695312 193.269531 259.472656 192.574219 263.554688 192.574219 C 267.949219 192.574219 271.726562 193.34375 274.886719 194.960938 C 278.121094 196.578125 280.742188 198.578125 282.824219 201.042969 C 284.902344 203.503906 286.445312 206.199219 287.445312 209.046875 C 288.449219 211.894531 288.988281 214.589844 288.988281 217.128906 L 290.914062 217.4375 C 294.226562 215.589844 296.695312 212.664062 298.3125 208.585938 C 299.929688 204.507812 300.699219 199.8125 300.699219 194.421875 C 300.699219 187.570312 299.238281 180.722656 296.230469 174.023438 C 293.226562 167.328125 288.449219 161.246094 281.742188 155.78125 C 275.117188 150.316406 266.484375 145.773438 255.851562 142.234375 C 245.214844 138.617188 232.347656 136.539062 217.242188 135.921875 L 217.242188 319.121094 L 200.363281 319.121094 C 196.589844 309.804688 191.578125 300.800781 185.335938 292.023438 C 179.09375 283.25 172.003906 274.9375 164.144531 267.085938 C 156.285156 259.234375 147.882812 251.921875 138.945312 245.226562 C 130.003906 238.527344 120.988281 232.523438 111.972656 227.136719 C 102.957031 221.75 94.171875 217.285156 85.617188 213.589844 C 77.0625 209.894531 69.203125 207.125 62.113281 205.429688 L 62.113281 168.484375 C 70.128906 163.171875 79.066406 157.476562 88.777344 151.242188 C 98.488281 145.003906 108.890625 139 119.832031 133.152344 C 130.777344 127.300781 142.105469 122.144531 153.742188 117.601562 C 165.378906 112.984375 177.089844 109.75 188.960938 107.828125 Z M 188.960938 254.15625 L 188.960938 136.152344 C 183.566406 136.847656 177.707031 138.308594 171.464844 140.464844 C 165.222656 142.621094 158.902344 145.160156 152.429688 148.085938 C 146.035156 151.007812 139.636719 154.164062 133.320312 157.628906 C 127 161.09375 121.066406 164.480469 115.515625 167.789062 C 109.96875 171.101562 104.960938 174.253906 100.488281 177.179688 C 96.019531 180.105469 92.398438 182.492188 89.625 184.339844 L 89.625 188.109375 C 106.730469 194.191406 123.6875 202.660156 140.484375 213.667969 C 157.285156 224.671875 173.082031 238.144531 187.878906 254.15625 Z M 188.960938 254.15625 " fill-opacity="1" fill-rule="nonzero"/></g></svg>