<svg xmlns="http://www.w3.org/2000/svg" xmlns:xlink="http://www.w3.org/1999/xlink" width="500" zoomAndPan="magnify" viewBox="0 0 375 374.999991" height="500" preserveAspectRatio="xMidYMid meet" version="1.0"><defs><clipPath id="0663e09868"><path d="M 127 49.226562 L 223 49.226562 L 223 246 L 127 246 Z M 127 49.226562 " clip-rule="nonzero"/></clipPath><clipPath id="8bd880de6c"><path d="M 152 129 L 247 129 L 247 325.976562 L 152 325.976562 Z M 152 129 " clip-rule="nonzero"/></clipPath><clipPath id="52e936b963"><path d="M 57.351562 109 L 132 109 L 132 141 L 57.351562 141 Z M 57.351562 109 " clip-rule="nonzero"/></clipPath></defs><g clip-path="url(#0663e09868)"><path fill="#231f20" d="M 222.535156 235.617188 C 221.777344 239.0625 221.054688 242.347656 220.308594 245.742188 C 207.878906 245.84375 195.613281 244.667969 183.589844 241.441406 C 174.109375 238.894531 165.207031 235.125 157.351562 229.140625 C 145.976562 220.464844 139.207031 208.847656 135.699219 195.128906 C 132.28125 181.753906 132.269531 168.214844 133.445312 154.585938 C 134.25 145.328125 136.617188 136.371094 138.394531 127.292969 C 141.164062 113.183594 141.816406 98.945312 139.691406 84.664062 C 138.136719 74.261719 134.644531 64.636719 127.984375 56.332031 C 127.84375 56.152344 127.746094 55.921875 127.585938 55.648438 C 130.050781 53.5 132.480469 51.382812 135.015625 49.183594 C 138.324219 52.621094 140.75 56.5625 142.828125 60.714844 C 148.640625 72.351562 150.757812 84.832031 151.109375 97.6875 C 151.5 111.636719 149.4375 125.292969 146.347656 138.859375 C 142.652344 155.019531 141.605469 171.347656 144.539062 187.777344 C 146.160156 196.875 149.304688 205.375 155.007812 212.753906 C 160.019531 219.242188 166.546875 223.808594 173.945312 227.175781 C 185.484375 232.433594 197.742188 234.585938 210.304688 235.257812 C 214.328125 235.476562 218.359375 235.5 222.535156 235.617188 " fill-opacity="1" fill-rule="nonzero"/></g><g clip-path="url(#8bd880de6c)"><path fill="#231f20" d="M 152.402344 139.445312 C 153.152344 136.019531 153.875 132.738281 154.699219 129 C 161.226562 129.453125 167.820312 129.695312 174.367188 130.40625 C 186.75 131.753906 198.6875 134.816406 209.703125 140.847656 C 227.21875 150.429688 236.722656 165.675781 240.347656 184.914062 C 243.582031 202.039062 242.648438 219.121094 239.058594 236.058594 C 236.804688 246.683594 234.550781 257.28125 234.132812 268.175781 C 233.644531 281.078125 234.441406 293.835938 239.542969 305.875 C 241.550781 310.617188 244.410156 314.996094 246.984375 319.722656 C 244.902344 321.539062 242.46875 323.652344 239.925781 325.859375 C 236.957031 322.824219 234.746094 319.332031 232.804688 315.664062 C 226.476562 303.695312 224.253906 290.753906 223.839844 277.386719 C 223.398438 263.367188 225.53125 249.65625 228.617188 236.039062 C 232.257812 219.976562 233.324219 203.792969 230.457031 187.484375 C 228.839844 178.320312 225.699219 169.753906 219.949219 162.328125 C 215.140625 156.101562 208.898438 151.632812 201.847656 148.28125 C 189.859375 142.585938 177.054688 140.417969 163.933594 139.726562 C 160.15625 139.527344 156.367188 139.535156 152.402344 139.445312 " fill-opacity="1" fill-rule="nonzero"/></g><path fill="#231f20" d="M 316.972656 258.808594 C 314.519531 260.945312 312.125 263.027344 309.761719 265.09375 C 307.097656 262.824219 304.628906 260.453125 301.886719 258.445312 C 293.023438 251.925781 282.824219 248.601562 272.148438 246.558594 C 263.515625 244.90625 254.789062 244.273438 246 244.367188 C 245.210938 244.378906 244.425781 244.355469 243.496094 244.347656 C 244.246094 240.949219 244.960938 237.667969 245.734375 234.132812 C 247.324219 234.144531 248.953125 234.121094 250.582031 234.164062 C 265.125 234.546875 279.398438 236.472656 292.992188 241.988281 C 301.636719 245.5 309.46875 250.289062 315.855469 257.222656 C 316.1875 257.582031 316.507812 257.953125 316.8125 258.335938 C 316.882812 258.417969 316.890625 258.554688 316.972656 258.808594 " fill-opacity="1" fill-rule="nonzero"/><g clip-path="url(#52e936b963)"><path fill="#231f20" d="M 57.816406 116.375 C 60.414062 114.109375 62.8125 112.027344 65.171875 109.960938 C 67.835938 112.226562 70.308594 114.597656 73.042969 116.609375 C 81.914062 123.132812 92.109375 126.449219 102.785156 128.496094 C 111.414062 130.152344 120.144531 130.777344 128.929688 130.679688 C 129.71875 130.675781 130.511719 130.695312 131.445312 130.707031 C 130.699219 134.101562 129.980469 137.382812 129.210938 140.917969 C 127.625 140.910156 125.996094 140.929688 124.367188 140.890625 C 109.882812 140.511719 95.679688 138.582031 82.132812 133.128906 C 73.40625 129.613281 65.523438 124.8125 59.09375 117.835938 C 58.683594 117.398438 58.300781 116.929688 57.816406 116.375 " fill-opacity="1" fill-rule="nonzero"/></g><path fill="#231f20" d="M 163.269531 212.851562 C 161.816406 211.183594 160.460938 209.621094 159.035156 207.984375 C 176.574219 192.710938 194.023438 177.523438 211.609375 162.210938 C 212.972656 163.789062 214.355469 165.382812 215.835938 167.082031 C 198.359375 182.296875 180.878906 197.519531 163.269531 212.851562 " fill-opacity="1" fill-rule="nonzero"/><path fill="#231f20" d="M 123.644531 60.589844 C 124.941406 62.46875 126.148438 64.21875 127.402344 66.027344 C 110.113281 81.085938 92.976562 96 75.621094 111.105469 C 74.039062 109.6875 72.429688 108.242188 70.699219 106.683594 C 88.382812 91.289062 105.878906 76.058594 123.644531 60.589844 " fill-opacity="1" fill-rule="nonzero"/><path fill="#231f20" d="M 300.085938 264.78125 C 301.707031 266.269531 303.273438 267.707031 304.953125 269.25 C 287.292969 284.628906 269.792969 299.859375 252.042969 315.316406 C 250.777344 313.5 249.554688 311.730469 248.273438 309.890625 C 265.558594 294.839844 282.695312 279.925781 300.085938 264.78125 " fill-opacity="1" fill-rule="nonzero"/><path fill="#231f20" d="M 197.972656 153.023438 C 182.476562 166.515625 167.328125 179.703125 151.890625 193.140625 C 151.351562 190.730469 150.816406 188.558594 150.421875 186.363281 C 150.351562 185.96875 150.765625 185.355469 151.128906 185.035156 C 164.101562 173.707031 177.085938 162.402344 190.089844 151.113281 C 190.449219 150.804688 191.125 150.53125 191.515625 150.660156 C 193.589844 151.335938 195.621094 152.148438 197.972656 153.023438 " fill-opacity="1" fill-rule="nonzero"/><path fill="#231f20" d="M 177.003906 222.035156 C 192.445312 208.585938 207.621094 195.378906 223.058594 181.933594 C 223.601562 184.363281 224.140625 186.542969 224.527344 188.75 C 224.597656 189.132812 224.140625 189.734375 223.769531 190.058594 C 210.839844 201.34375 197.902344 212.613281 184.941406 223.859375 C 184.570312 224.179688 183.914062 224.550781 183.542969 224.433594 C 181.417969 223.738281 179.335938 222.90625 177.003906 222.035156 " fill-opacity="1" fill-rule="nonzero"/><path fill="#231f20" d="M 286.226562 258.023438 C 271.855469 270.535156 257.875 282.699219 243.523438 295.191406 C 243.132812 292.441406 242.746094 290.007812 242.480469 287.566406 C 242.445312 287.21875 242.9375 286.742188 243.28125 286.441406 C 254.726562 276.453125 266.179688 266.480469 277.648438 256.527344 C 278.019531 256.207031 278.65625 255.855469 279.058594 255.957031 C 281.347656 256.535156 283.601562 257.25 286.226562 258.023438 " fill-opacity="1" fill-rule="nonzero"/><path fill="#231f20" d="M 133.167969 81.929688 C 133.566406 84.613281 133.96875 86.996094 134.222656 89.394531 C 134.269531 89.792969 133.757812 90.339844 133.375 90.675781 C 121.980469 100.628906 110.574219 110.554688 99.144531 120.472656 C 98.761719 120.808594 98.148438 121.238281 97.761719 121.144531 C 95.421875 120.5625 93.125 119.832031 90.511719 119.066406 C 104.84375 106.59375 118.84375 94.402344 133.167969 81.929688 " fill-opacity="1" fill-rule="nonzero"/><path fill="#231f20" d="M 171.714844 146.195312 C 163.917969 152.980469 156.601562 159.355469 148.847656 166.105469 C 149.125 162.742188 149.335938 159.800781 149.648438 156.867188 C 149.6875 156.476562 150.195312 156.09375 150.546875 155.78125 C 154.097656 152.671875 157.65625 149.566406 161.234375 146.492188 C 161.628906 146.152344 162.167969 145.761719 162.632812 145.773438 C 165.480469 145.84375 168.328125 146.023438 171.714844 146.195312 " fill-opacity="1" fill-rule="nonzero"/><path fill="#231f20" d="M 113.59375 125.625 C 121.457031 118.910156 128.832031 112.613281 136.648438 105.933594 C 136.34375 109.289062 136.101562 112.230469 135.761719 115.164062 C 135.71875 115.554688 135.207031 115.933594 134.847656 116.238281 C 131.265625 119.3125 127.683594 122.390625 124.074219 125.433594 C 123.679688 125.765625 123.136719 126.15625 122.675781 126.136719 C 119.820312 126.035156 116.976562 125.828125 113.59375 125.625 " fill-opacity="1" fill-rule="nonzero"/><path fill="#231f20" d="M 264.976562 253.617188 C 257.183594 260.402344 249.867188 266.769531 242.113281 273.519531 C 242.394531 270.164062 242.605469 267.214844 242.910156 264.289062 C 242.953125 263.890625 243.460938 263.515625 243.816406 263.203125 C 247.367188 260.09375 250.925781 256.988281 254.503906 253.90625 C 254.890625 253.574219 255.433594 253.175781 255.894531 253.191406 C 258.742188 253.265625 261.597656 253.445312 264.976562 253.617188 " fill-opacity="1" fill-rule="nonzero"/><path fill="#231f20" d="M 202.527344 227.964844 C 210.386719 221.25 217.765625 214.953125 225.582031 208.273438 C 225.269531 211.628906 225.03125 214.578125 224.695312 217.503906 C 224.648438 217.894531 224.140625 218.273438 223.78125 218.578125 C 220.199219 221.652344 216.613281 224.722656 213.007812 227.773438 C 212.609375 228.105469 212.066406 228.488281 211.609375 228.476562 C 208.753906 228.371094 205.902344 228.167969 202.527344 227.964844 " fill-opacity="1" fill-rule="nonzero"/></svg>