<svg xmlns="http://www.w3.org/2000/svg" xmlns:xlink="http://www.w3.org/1999/xlink" width="500" zoomAndPan="magnify" viewBox="0 0 375 374.999991" height="500" preserveAspectRatio="xMidYMid meet" version="1.0"><defs><clipPath id="ea718d4d9b"><path d="M 141.617188 256 L 175.777344 256 L 175.777344 293.082031 L 141.617188 293.082031 Z M 141.617188 256 " clip-rule="nonzero"/></clipPath><clipPath id="bb5dc4ca24"><path d="M 277.800781 83.472656 L 356.207031 83.472656 L 356.207031 193.449219 L 277.800781 193.449219 Z M 277.800781 83.472656 " clip-rule="nonzero"/></clipPath></defs><path fill="#1a1a1a" d="M 133.207031 236.160156 L 116.351562 258.769531 C 112.777344 263.566406 113.78125 270.40625 118.582031 273.976562 L 119.765625 274.855469 C 121.707031 276.296875 123.980469 276.992188 126.242188 276.992188 C 129.570312 276.992188 132.863281 275.484375 134.992188 272.628906 L 151.851562 250.015625 C 155.425781 245.222656 154.421875 238.378906 149.621094 234.8125 L 148.4375 233.929688 C 146.496094 232.488281 144.21875 231.792969 141.960938 231.792969 C 138.628906 231.792969 135.335938 233.304688 133.207031 236.160156 " fill-opacity="1" fill-rule="nonzero"/><g clip-path="url(#ea718d4d9b)"><path fill="#1a1a1a" d="M 155.125 259.90625 L 143.628906 275.324219 C 140.4375 279.605469 141.332031 285.714844 145.621094 288.902344 L 148.675781 291.171875 C 150.40625 292.457031 152.4375 293.082031 154.457031 293.082031 C 157.429688 293.082031 160.367188 291.730469 162.269531 289.183594 L 173.765625 273.761719 C 176.957031 269.484375 176.058594 263.375 171.773438 260.1875 L 168.71875 257.917969 C 166.984375 256.628906 164.953125 256.007812 162.9375 256.007812 C 159.964844 256.007812 157.023438 257.355469 155.125 259.90625 " fill-opacity="1" fill-rule="nonzero"/></g><path fill="#1a1a1a" d="M 93.648438 209.558594 L 89.011719 206.113281 C 87.453125 204.957031 85.625 204.398438 83.8125 204.398438 C 81.144531 204.398438 78.5 205.609375 76.792969 207.902344 L 69.054688 218.277344 C 66.1875 222.125 66.996094 227.613281 70.847656 230.476562 L 75.484375 233.921875 C 77.039062 235.078125 78.867188 235.636719 80.679688 235.636719 C 83.347656 235.636719 85.992188 234.425781 87.699219 232.136719 L 95.4375 221.757812 C 98.304688 217.910156 97.5 212.421875 93.648438 209.558594 " fill-opacity="1" fill-rule="nonzero"/><path fill="#1a1a1a" d="M 127.945312 211.164062 C 125.867188 209.621094 123.433594 208.875 121.015625 208.878906 C 117.457031 208.878906 113.933594 210.492188 111.65625 213.546875 L 91.082031 241.140625 C 87.261719 246.269531 88.332031 253.589844 93.46875 257.40625 C 95.546875 258.949219 97.980469 259.691406 100.398438 259.691406 C 103.609375 259.691406 106.789062 258.378906 109.050781 255.878906 C 109.390625 255.300781 109.765625 254.734375 110.179688 254.183594 L 119.949219 241.078125 L 127.039062 231.570312 C 127.523438 230.917969 128.054688 230.300781 128.621094 229.71875 L 130.332031 227.425781 C 134.152344 222.300781 133.082031 214.980469 127.945312 211.164062 " fill-opacity="1" fill-rule="nonzero"/><path fill="#1a1a1a" d="M 69.980469 82.402344 L 20.378906 171.027344 C 18.808594 173.835938 19.8125 177.382812 22.625 178.953125 L 39.757812 188.511719 C 42.570312 190.082031 46.125 189.078125 47.695312 186.269531 L 97.296875 97.644531 C 98.867188 94.835938 97.863281 91.289062 95.050781 89.71875 L 77.917969 80.160156 C 75.105469 78.589844 71.550781 79.59375 69.980469 82.402344 " fill-opacity="1" fill-rule="nonzero"/><g clip-path="url(#bb5dc4ca24)"><path fill="#1a1a1a" d="M 278.546875 101.742188 L 328.152344 190.367188 C 329.722656 193.175781 333.273438 194.179688 336.089844 192.613281 L 353.21875 183.050781 C 356.03125 181.484375 357.039062 177.933594 355.464844 175.125 L 305.867188 86.5 C 304.292969 83.691406 300.742188 82.6875 297.925781 84.257812 L 280.792969 93.816406 C 277.980469 95.386719 276.976562 98.9375 278.546875 101.742188 " fill-opacity="1" fill-rule="nonzero"/></g><path fill="#1a1a1a" d="M 298.792969 221.808594 C 298.929688 217.71875 297.011719 213.828125 293.746094 211.359375 L 268.003906 191.878906 C 258.699219 185.332031 247.09375 177.832031 233.511719 169.589844 C 214.359375 157.960938 196.308594 147.902344 187.941406 143.308594 C 186.632812 142.589844 185.101562 142.402344 183.660156 142.78125 L 174.253906 145.242188 C 172.871094 145.605469 171.667969 146.453125 170.863281 147.632812 L 170.851562 147.648438 C 168.242188 151.464844 165.339844 154.96875 162.226562 158.0625 C 158.570312 161.691406 154.691406 164.707031 150.695312 167.019531 C 145.902344 169.796875 140.96875 171.546875 136.03125 172.222656 C 134.9375 172.371094 133.835938 172.449219 132.761719 172.449219 C 128.886719 172.449219 125.277344 171.457031 122.324219 169.578125 C 118.535156 167.171875 116.109375 163.648438 115.300781 159.386719 C 114.367188 154.457031 115.644531 148.828125 119.207031 142.171875 C 121.71875 137.488281 124.847656 133.203125 127.132812 130.078125 C 127.691406 129.308594 128.179688 128.644531 128.566406 128.09375 C 130.140625 125.859375 131.976562 123.308594 134.03125 120.632812 C 134.554688 119.949219 134 118.972656 133.144531 119.070312 C 128.828125 119.566406 119.054688 119.078125 103.683594 109.566406 C 102.316406 108.722656 100.519531 109.1875 99.738281 110.585938 L 57.128906 186.71875 C 56.234375 188.316406 56.449219 190.304688 57.667969 191.671875 L 68.964844 204.363281 C 69.121094 204.539062 69.296875 204.695312 69.488281 204.832031 L 70.621094 203.3125 C 72.171875 201.230469 74.230469 199.523438 76.5625 198.386719 C 78.804688 197.292969 81.3125 196.714844 83.816406 196.710938 C 85.542969 196.710938 87.246094 196.980469 88.882812 197.511719 C 90.582031 198.0625 92.167969 198.882812 93.605469 199.949219 L 98.242188 203.394531 C 100.015625 204.714844 101.484375 206.351562 102.597656 208.253906 C 102.859375 208.699219 103.101562 209.160156 103.316406 209.625 C 103.605469 210.246094 104.453125 210.335938 104.863281 209.785156 L 105.480469 208.957031 C 107.304688 206.507812 109.71875 204.503906 112.46875 203.164062 C 115.109375 201.875 118.113281 201.191406 121 201.191406 C 123.019531 201.191406 125.046875 201.507812 126.972656 202.132812 C 128.972656 202.777344 130.851562 203.742188 132.539062 205 C 134.628906 206.554688 136.355469 208.476562 137.664062 210.714844 C 138.925781 212.867188 139.75 215.214844 140.113281 217.691406 C 140.363281 219.410156 140.386719 221.128906 140.179688 222.832031 C 140.09375 223.527344 140.644531 224.144531 141.34375 224.117188 C 141.554688 224.113281 141.761719 224.109375 141.972656 224.109375 C 143.894531 224.109375 145.847656 224.410156 147.695312 225.011719 C 149.617188 225.632812 151.40625 226.558594 153.03125 227.765625 L 154.214844 228.648438 C 160.019531 232.960938 162.574219 240.039062 161.421875 246.714844 C 161.273438 247.5625 161.941406 248.332031 162.804688 248.324219 C 162.851562 248.324219 162.898438 248.324219 162.945312 248.324219 C 164.773438 248.324219 166.578125 248.609375 168.3125 249.167969 C 170.113281 249.753906 171.792969 250.621094 173.316406 251.753906 L 176.367188 254.023438 C 184.082031 259.757812 185.679688 270.648438 179.9375 278.351562 L 178.433594 280.371094 C 177.726562 281.320312 177.894531 282.683594 178.847656 283.386719 C 179.015625 283.507812 179.199219 283.605469 179.394531 283.675781 C 182.824219 284.890625 215.851562 296.09375 225.1875 280.375 C 225.800781 279.339844 225.386719 278 224.304688 277.472656 L 193.492188 262.425781 C 191.636719 261.519531 190.664062 259.402344 191.265625 257.429688 C 191.707031 255.988281 192.960938 254.683594 196.011719 254.554688 C 196.332031 254.542969 196.65625 254.613281 196.941406 254.761719 L 228.632812 271.273438 C 232.191406 273.128906 236.234375 273.90625 240.21875 273.410156 C 245.097656 272.808594 250.410156 270.296875 250.875 262.339844 C 250.996094 260.25 249.917969 258.269531 248.105469 257.214844 L 208.5625 234.210938 C 207.015625 233.3125 206.183594 231.554688 206.480469 229.792969 C 206.757812 228.148438 207.640625 226.46875 210.066406 226.378906 C 210.863281 226.351562 211.648438 226.5625 212.335938 226.960938 L 253.890625 251.078125 C 255.976562 252.289062 258.367188 252.875 260.777344 252.765625 C 264.933594 252.574219 270.996094 251.3125 273.394531 245.910156 C 275.5 241.160156 273.644531 235.582031 269.179688 232.90625 L 223.683594 205.648438 C 222.339844 204.84375 221.550781 203.359375 221.652344 201.796875 C 221.789062 199.738281 222.835938 197.40625 227.0625 198.082031 C 227.574219 198.164062 228.066406 198.351562 228.511719 198.617188 L 280.195312 229.375 C 284.035156 231.660156 288.75 232.042969 292.859375 230.285156 C 295.917969 228.976562 298.632812 226.492188 298.792969 221.808594 " fill-opacity="1" fill-rule="nonzero"/><path fill="#1a1a1a" d="M 317.683594 188.617188 L 274.550781 111.550781 C 274.203125 110.933594 273.480469 110.640625 272.804688 110.839844 C 269.707031 111.761719 265.835938 112.699219 265.273438 112.769531 C 263.609375 112.972656 261.933594 113.070312 260.261719 113.070312 C 254.582031 113.070312 248.90625 111.949219 243.542969 110.105469 C 231.042969 105.820312 215.503906 104.585938 201.644531 104.585938 C 191.390625 104.585938 182.058594 105.261719 175.550781 105.871094 C 170.1875 106.378906 164.980469 106.765625 159.78125 108.300781 C 154.898438 109.738281 150.722656 113.0625 147.3125 116.742188 C 146.410156 117.71875 145.53125 118.710938 144.660156 119.722656 C 141.167969 123.800781 137.9375 128.148438 134.859375 132.515625 C 130.351562 138.914062 115.957031 156.425781 126.453125 163.09375 C 128.320312 164.277344 130.539062 164.761719 132.761719 164.761719 C 133.507812 164.761719 134.253906 164.707031 134.988281 164.609375 C 143.386719 163.457031 150.910156 158.460938 156.800781 152.613281 C 159.65625 149.773438 162.226562 146.640625 164.492188 143.316406 C 164.882812 142.746094 166.429688 139.34375 167.082031 139.175781 L 181.492188 135.402344 L 186.3125 134.140625 C 186.4375 134.109375 186.570312 134.089844 186.703125 134.089844 C 186.957031 134.089844 187.210938 134.152344 187.4375 134.277344 C 194.867188 138.296875 259.636719 173.765625 296.804688 205.796875 C 296.808594 205.800781 296.8125 205.804688 296.8125 205.808594 C 297.328125 206.246094 298.082031 206.242188 298.601562 205.816406 L 317.597656 190.222656 C 317.929688 189.746094 317.964844 189.125 317.683594 188.617188 " fill-opacity="1" fill-rule="nonzero"/></svg>