<svg xmlns="http://www.w3.org/2000/svg" xmlns:xlink="http://www.w3.org/1999/xlink" width="500" zoomAndPan="magnify" viewBox="0 0 375 374.999991" height="500" preserveAspectRatio="xMidYMid meet" version="1.0"><defs><clipPath id="696d1fe443"><path d="M 60.714844 60.714844 L 314.214844 60.714844 L 314.214844 314.214844 L 60.714844 314.214844 Z M 60.714844 60.714844 " clip-rule="nonzero"/></clipPath></defs><g clip-path="url(#696d1fe443)"><path fill="#000000" d="M 172.800781 60.714844 Z M 157.089844 137.039062 C 158.066406 137.429688 159.125 137.742188 160.265625 137.957031 L 158.878906 141.40625 C 158.136719 143.253906 159.035156 145.359375 160.886719 146.101562 C 162.738281 146.84375 164.839844 145.941406 165.582031 144.09375 L 167.660156 138.921875 L 168.390625 139.015625 C 172.445312 139.527344 176.628906 138.738281 180.082031 137.050781 C 183.71875 135.28125 186.667969 132.46875 188.042969 129.058594 C 188.410156 128.148438 188.652344 127.203125 188.773438 126.265625 L 188.773438 126.253906 C 189.101562 123.640625 188.449219 121.15625 186.996094 119.046875 C 185.648438 117.089844 183.613281 115.476562 181.050781 114.453125 C 179.757812 113.933594 178.316406 113.558594 176.742188 113.355469 L 169.753906 112.472656 C 168.832031 112.359375 167.984375 112.136719 167.222656 111.835938 C 166.011719 111.347656 165.089844 110.648438 164.535156 109.84375 C 164.085938 109.183594 163.878906 108.417969 163.980469 107.632812 L 163.992188 107.621094 C 164.03125 107.289062 164.117188 106.953125 164.25 106.617188 C 164.921875 104.945312 166.570312 103.46875 168.675781 102.441406 C 170.964844 101.332031 173.683594 100.808594 176.292969 101.128906 L 179.589844 101.546875 C 179.722656 101.574219 179.847656 101.585938 179.980469 101.597656 L 183.285156 102.019531 C 184.203125 102.132812 185.050781 102.351562 185.8125 102.65625 C 187.023438 103.144531 187.941406 103.84375 188.5 104.648438 C 188.949219 105.300781 189.160156 106.066406 189.058594 106.859375 C 189.019531 107.171875 188.921875 107.511719 188.777344 107.875 C 188.035156 109.722656 188.9375 111.828125 190.785156 112.570312 C 192.636719 113.3125 194.742188 112.410156 195.484375 110.5625 C 195.851562 109.640625 196.089844 108.703125 196.210938 107.765625 L 196.210938 107.753906 C 196.542969 105.140625 195.886719 102.65625 194.4375 100.554688 C 193.085938 98.59375 191.054688 96.984375 188.492188 95.957031 C 187.515625 95.566406 186.457031 95.253906 185.316406 95.039062 L 186.707031 91.585938 C 187.445312 89.734375 186.546875 87.632812 184.695312 86.890625 C 182.847656 86.148438 180.742188 87.046875 180 88.898438 L 177.914062 94.070312 L 177.167969 93.976562 C 173.117188 93.46875 168.949219 94.253906 165.488281 95.941406 C 161.851562 97.714844 158.902344 100.523438 157.527344 103.929688 C 157.148438 104.875 156.898438 105.820312 156.800781 106.746094 C 156.46875 109.363281 157.128906 111.839844 158.574219 113.949219 C 159.921875 115.910156 161.964844 117.519531 164.519531 118.546875 C 165.8125 119.066406 167.253906 119.4375 168.828125 119.636719 L 175.816406 120.515625 C 176.738281 120.628906 177.585938 120.851562 178.347656 121.15625 C 179.558594 121.644531 180.476562 122.34375 181.035156 123.148438 C 181.484375 123.800781 181.691406 124.566406 181.589844 125.359375 C 181.554688 125.667969 181.457031 126.011719 181.3125 126.371094 C 180.640625 128.046875 178.992188 129.523438 176.890625 130.550781 C 174.601562 131.664062 171.875 132.191406 169.269531 131.859375 L 165.980469 131.449219 C 165.84375 131.421875 165.710938 131.40625 165.570312 131.398438 L 162.28125 130.980469 C 161.363281 130.867188 160.511719 130.644531 159.753906 130.339844 C 158.542969 129.851562 157.621094 129.15625 157.066406 128.351562 C 156.613281 127.695312 156.40625 126.929688 156.507812 126.136719 C 156.546875 125.828125 156.640625 125.484375 156.785156 125.125 C 157.527344 123.273438 156.628906 121.167969 154.777344 120.429688 C 152.925781 119.6875 150.824219 120.585938 150.082031 122.4375 C 149.714844 123.355469 149.472656 124.292969 149.351562 125.230469 L 149.351562 125.246094 C 149.023438 127.855469 149.675781 130.339844 151.125 132.445312 C 152.496094 134.402344 154.535156 136.011719 157.089844 137.039062 Z M 172.800781 75.246094 Z M 77.839844 116.492188 C 77.839844 104.496094 88.925781 93.925781 106.839844 86.546875 C 123.792969 79.5625 147.121094 75.242188 172.800781 75.242188 C 198.480469 75.242188 221.808594 79.5625 238.761719 86.546875 C 256.679688 93.925781 267.761719 104.496094 267.761719 116.492188 C 267.761719 128.488281 256.679688 139.058594 238.761719 146.4375 C 221.808594 153.421875 198.480469 157.742188 172.800781 157.742188 C 147.121094 157.742188 123.792969 153.421875 106.839844 146.4375 C 88.925781 139.058594 77.839844 128.488281 77.839844 116.492188 Z M 85.078125 116.492188 C 85.078125 125.277344 94.445312 133.527344 109.585938 139.765625 C 125.6875 146.398438 148.035156 150.5 172.800781 150.5 C 197.566406 150.5 219.914062 146.394531 236.019531 139.765625 C 251.15625 133.527344 260.523438 125.277344 260.523438 116.492188 C 260.523438 107.707031 251.15625 99.457031 236.019531 93.222656 C 219.914062 86.585938 197.566406 82.484375 172.800781 82.484375 C 148.035156 82.484375 125.6875 86.59375 109.585938 93.222656 C 94.445312 99.457031 85.078125 107.707031 85.078125 116.492188 Z M 314.214844 167.875 L 314.214844 207.050781 C 314.214844 216.164062 309.964844 224.710938 302.402344 232.242188 C 302.238281 232.441406 302.046875 232.632812 301.839844 232.796875 C 300.292969 234.292969 298.621094 235.746094 296.8125 237.160156 L 296.820312 258.441406 C 296.820312 274.347656 283.890625 288.523438 262.988281 298.570312 C 242.894531 308.238281 215.21875 314.214844 184.742188 314.214844 C 154.265625 314.214844 126.589844 308.234375 106.492188 298.570312 C 85.589844 288.515625 72.664062 274.347656 72.664062 258.441406 L 72.664062 219.273438 C 72.664062 219.273438 72.664062 219.273438 72.664062 219.269531 C 72.664062 213.519531 74.367188 207.972656 77.535156 202.753906 C 79.894531 198.875 83.0625 195.191406 86.941406 191.75 C 81.585938 188.59375 76.925781 185.128906 73.085938 181.40625 C 72.882812 181.242188 72.699219 181.066406 72.535156 180.863281 C 64.96875 173.332031 60.714844 164.785156 60.714844 155.671875 L 60.714844 116.492188 C 60.714844 100.585938 73.652344 86.414062 94.546875 76.355469 C 114.648438 66.699219 142.324219 60.714844 172.800781 60.714844 C 203.277344 60.714844 230.953125 66.699219 251.050781 76.363281 C 271.953125 86.414062 284.878906 100.589844 284.878906 116.5 L 284.878906 130.046875 C 293.675781 134.796875 300.804688 140.328125 305.820312 146.425781 C 311.238281 153.007812 314.214844 160.246094 314.214844 167.875 Z M 284.878906 138.332031 L 284.878906 147.265625 C 288.472656 150.023438 291.355469 153.007812 293.402344 156.171875 C 295.8125 159.871094 297.09375 163.800781 297.09375 167.882812 C 297.09375 179.652344 286.4375 190.039062 269.144531 197.390625 C 252.820312 204.324219 230.289062 208.746094 205.320312 209.089844 C 205.160156 209.113281 204.996094 209.132812 204.832031 209.160156 C 204.527344 209.203125 204.222656 209.25 203.917969 209.292969 C 202.652344 209.46875 201.371094 209.640625 200.085938 209.800781 C 199.988281 209.8125 199.894531 209.824219 199.800781 209.835938 C 199.792969 209.835938 199.785156 209.835938 199.78125 209.835938 C 199.761719 209.835938 199.742188 209.84375 199.714844 209.84375 C 199.550781 209.863281 199.378906 209.882812 199.214844 209.902344 C 198.074219 210.035156 196.933594 210.160156 195.78125 210.28125 C 195.589844 210.300781 195.402344 210.320312 195.210938 210.339844 C 193.898438 210.472656 192.582031 210.585938 191.257812 210.691406 C 191.128906 210.707031 191.003906 210.71875 190.875 210.726562 C 190.679688 210.738281 190.476562 210.757812 190.28125 210.769531 C 189.84375 210.800781 189.410156 210.832031 188.972656 210.863281 C 188.773438 210.875 188.570312 210.890625 188.367188 210.902344 C 183.277344 211.25 178.082031 211.433594 172.800781 211.433594 C 167.558594 211.433594 162.402344 211.25 157.351562 210.910156 C 157.089844 210.890625 156.824219 210.875 156.570312 210.859375 C 156.171875 210.832031 155.773438 210.800781 155.371094 210.769531 C 155.15625 210.75 154.9375 210.738281 154.71875 210.71875 L 153.746094 210.636719 C 153.503906 210.617188 153.257812 210.597656 153.015625 210.574219 L 152.539062 210.535156 C 152.660156 210.566406 152.773438 210.597656 152.894531 210.625 C 153.980469 210.894531 155.070312 211.160156 156.179688 211.414062 C 156.179688 211.414062 156.183594 211.414062 156.183594 211.414062 C 156.9375 211.585938 157.707031 211.757812 158.464844 211.921875 C 158.566406 211.941406 158.664062 211.960938 158.757812 211.984375 C 164.234375 213.160156 169.960938 214.117188 175.886719 214.835938 C 175.925781 214.84375 175.957031 214.84375 175.996094 214.851562 C 184.355469 215.859375 193.105469 216.402344 202.136719 216.402344 C 211.128906 216.402344 219.855469 215.871094 228.191406 214.863281 C 228.273438 214.851562 228.347656 214.84375 228.433594 214.835938 C 231.9375 214.414062 235.378906 213.90625 238.730469 213.316406 C 241.019531 212.917969 243.269531 212.472656 245.472656 212.003906 C 245.613281 211.96875 245.753906 211.933594 245.898438 211.917969 C 245.902344 211.917969 245.917969 211.910156 245.921875 211.910156 C 248.273438 211.402344 250.582031 210.851562 252.835938 210.261719 C 256.246094 209.375 259.535156 208.398438 262.703125 207.339844 C 262.890625 207.257812 263.085938 207.195312 263.289062 207.144531 C 268.289062 205.453125 272.964844 203.5625 277.269531 201.496094 C 278.179688 201.058594 279.070312 200.609375 279.941406 200.160156 C 280.121094 200.046875 280.308594 199.949219 280.507812 199.867188 C 287.003906 196.453125 292.496094 192.632812 296.769531 188.511719 C 296.941406 188.300781 297.136719 188.113281 297.347656 187.941406 C 303.511719 181.789062 306.964844 174.980469 306.964844 167.871094 C 306.964844 161.96875 304.578125 156.265625 300.242188 150.992188 C 296.484375 146.425781 291.273438 142.160156 284.878906 138.332031 Z M 274.246094 140.472656 C 274.125 140.605469 274 140.734375 273.878906 140.867188 L 273.878906 168.390625 C 274.09375 168.042969 274.296875 167.6875 274.484375 167.332031 C 274.613281 167.097656 274.734375 166.863281 274.855469 166.628906 C 274.929688 166.476562 275.011719 166.332031 275.082031 166.179688 C 275.234375 165.867188 275.378906 165.5625 275.511719 165.253906 C 275.542969 165.191406 275.570312 165.125 275.601562 165.0625 C 275.746094 164.734375 275.878906 164.398438 276.011719 164.066406 C 276.03125 164.011719 276.058594 163.960938 276.078125 163.902344 C 276.203125 163.574219 276.324219 163.238281 276.433594 162.902344 C 276.449219 162.839844 276.476562 162.773438 276.496094 162.707031 C 276.601562 162.382812 276.699219 162.058594 276.785156 161.734375 C 276.8125 161.648438 276.832031 161.566406 276.855469 161.476562 C 276.9375 161.171875 277.015625 160.867188 277.085938 160.5625 C 277.109375 160.449219 277.136719 160.328125 277.15625 160.214844 C 277.210938 159.9375 277.269531 159.65625 277.320312 159.371094 C 277.34375 159.214844 277.363281 159.0625 277.390625 158.902344 C 277.425781 158.65625 277.464844 158.410156 277.492188 158.160156 C 277.515625 157.945312 277.527344 157.738281 277.546875 157.519531 C 277.566406 157.324219 277.585938 157.128906 277.597656 156.925781 C 277.617188 156.558594 277.628906 156.191406 277.628906 155.824219 C 277.628906 155.773438 277.636719 155.726562 277.636719 155.675781 L 277.636719 136.492188 C 277.558594 136.59375 277.476562 136.695312 277.394531 136.796875 C 277.148438 137.121094 276.894531 137.445312 276.628906 137.765625 C 276.507812 137.917969 276.382812 138.066406 276.253906 138.21875 C 276 138.523438 275.742188 138.832031 275.46875 139.128906 C 275.335938 139.28125 275.195312 139.441406 275.058594 139.59375 C 274.796875 139.882812 274.523438 140.183594 274.246094 140.472656 Z M 194.988281 203.09375 C 195.25 203.070312 195.503906 203.039062 195.753906 203.011719 L 195.753906 171.117188 C 192.320312 171.464844 188.824219 171.742188 185.273438 171.933594 L 185.273438 203.855469 C 186.453125 203.792969 187.632812 203.714844 188.804688 203.632812 C 188.988281 203.621094 189.175781 203.609375 189.359375 203.589844 C 189.816406 203.558594 190.273438 203.519531 190.730469 203.480469 C 192.011719 203.378906 193.277344 203.265625 194.539062 203.140625 C 194.691406 203.125 194.835938 203.105469 194.988281 203.09375 Z M 156.660156 203.625 C 157.871094 203.714844 159.09375 203.792969 160.316406 203.859375 L 160.316406 171.9375 C 156.773438 171.75 153.273438 171.46875 149.839844 171.121094 L 149.839844 203.019531 C 150.050781 203.039062 150.257812 203.070312 150.46875 203.089844 C 150.683594 203.105469 150.898438 203.132812 151.113281 203.15625 C 152.324219 203.277344 153.546875 203.386719 154.777344 203.488281 C 155.335938 203.53125 155.886719 203.574219 156.445312 203.621094 C 156.515625 203.613281 156.589844 203.621094 156.660156 203.625 Z M 250.054688 218.394531 L 250.054688 250.144531 C 253.675781 249.269531 257.171875 248.292969 260.53125 247.230469 L 260.53125 215.605469 C 257.152344 216.625 253.660156 217.554688 250.054688 218.394531 Z M 267.769531 213.242188 L 267.769531 244.738281 C 271.109375 243.476562 274.277344 242.128906 277.269531 240.6875 C 277.597656 240.53125 277.921875 240.363281 278.246094 240.207031 L 278.246094 209.011719 C 274.941406 210.523438 271.445312 211.933594 267.769531 213.242188 Z M 242.8125 219.921875 C 239.394531 220.574219 235.898438 221.148438 232.328125 221.636719 L 232.328125 253.507812 C 235.902344 253.003906 239.402344 252.414062 242.8125 251.734375 Z M 225.09375 254.402344 L 225.09375 222.507812 C 221.65625 222.855469 218.160156 223.132812 214.617188 223.324219 L 214.617188 255.246094 C 218.164062 255.042969 221.65625 254.765625 225.09375 254.402344 Z M 202.132812 223.660156 C 200.375 223.660156 198.625 223.632812 196.890625 223.597656 L 196.890625 255.503906 C 198.289062 255.542969 199.691406 255.570312 201.089844 255.585938 C 201.441406 255.585938 201.78125 255.59375 202.132812 255.59375 C 203.886719 255.59375 205.636719 255.574219 207.371094 255.53125 L 207.371094 223.601562 C 205.636719 223.640625 203.894531 223.660156 202.132812 223.660156 Z M 257.03125 153.511719 C 256.742188 153.675781 256.449219 153.832031 256.152344 153.996094 L 256.152344 184.828125 C 257.585938 183.957031 258.964844 183.0625 260.265625 182.148438 C 262.609375 180.5 264.734375 178.789062 266.632812 177.027344 L 266.632812 147.25 C 266.609375 147.265625 266.582031 147.285156 266.5625 147.300781 C 266.429688 147.402344 266.292969 147.496094 266.160156 147.597656 C 265.757812 147.894531 265.355469 148.199219 264.9375 148.492188 C 264.746094 148.628906 264.550781 148.761719 264.351562 148.902344 C 263.992188 149.15625 263.625 149.414062 263.25 149.664062 C 263.027344 149.816406 262.800781 149.960938 262.578125 150.113281 C 262.222656 150.347656 261.867188 150.582031 261.5 150.816406 C 261.261719 150.96875 261.019531 151.125 260.773438 151.277344 C 260.417969 151.5 260.054688 151.722656 259.6875 151.945312 C 259.433594 152.097656 259.179688 152.25 258.921875 152.40625 C 258.554688 152.628906 258.179688 152.84375 257.804688 153.058594 C 257.550781 153.21875 257.300781 153.363281 257.03125 153.511719 Z M 248.914062 157.628906 C 245.605469 159.136719 242.109375 160.550781 238.433594 161.855469 L 238.433594 193.339844 C 239.863281 192.796875 241.285156 192.230469 242.691406 191.640625 C 244.847656 190.734375 246.925781 189.792969 248.90625 188.808594 L 248.90625 157.628906 Z M 231.195312 164.21875 C 227.816406 165.234375 224.320312 166.164062 220.710938 167.007812 L 220.710938 198.753906 C 222.226562 198.386719 223.734375 198 225.238281 197.585938 L 225.445312 197.542969 C 225.527344 197.523438 225.613281 197.5 225.6875 197.480469 C 226.917969 197.136719 228.140625 196.789062 229.34375 196.421875 C 229.488281 196.375 229.640625 196.332031 229.789062 196.289062 C 230.261719 196.140625 230.71875 195.988281 231.1875 195.839844 L 231.1875 164.21875 Z M 213.476562 168.535156 C 210.058594 169.1875 206.566406 169.765625 202.992188 170.253906 L 202.992188 202.125 C 203.328125 202.074219 203.671875 202.03125 204.007812 201.980469 C 204.324219 201.933594 204.632812 201.882812 204.945312 201.839844 C 205.421875 201.769531 205.894531 201.695312 206.363281 201.617188 C 206.6875 201.566406 207.015625 201.515625 207.335938 201.460938 C 207.585938 201.414062 207.839844 201.371094 208.101562 201.332031 C 209.90625 201.027344 211.695312 200.691406 213.46875 200.335938 L 213.46875 168.535156 Z M 178.035156 204.140625 L 178.035156 172.210938 C 176.300781 172.25 174.554688 172.273438 172.792969 172.273438 C 171.039062 172.273438 169.289062 172.257812 167.554688 172.210938 L 167.554688 204.140625 C 169.289062 204.179688 171.039062 204.203125 172.792969 204.203125 C 174.554688 204.203125 176.300781 204.183594 178.035156 204.140625 Z M 161.449219 251.570312 C 164.890625 252.253906 168.390625 252.855469 171.933594 253.371094 L 171.933594 221.644531 C 168.363281 221.15625 164.867188 220.578125 161.449219 219.925781 Z M 179.171875 222.5 L 179.171875 254.28125 C 182.636719 254.664062 186.136719 254.960938 189.652344 255.175781 L 189.652344 223.324219 C 186.105469 223.128906 182.613281 222.847656 179.171875 222.5 Z M 100.976562 219.621094 L 101.054688 219.742188 L 101.054688 198.695312 C 100.859375 198.613281 100.65625 198.539062 100.457031 198.457031 C 99.976562 198.257812 99.507812 198.042969 99.03125 197.835938 C 98.726562 197.699219 98.425781 197.574219 98.121094 197.441406 C 97.847656 197.320312 97.5625 197.207031 97.289062 197.082031 L 97.289062 207.050781 C 97.289062 207.847656 97.335938 208.640625 97.421875 209.433594 C 97.449219 209.621094 97.472656 209.8125 97.5 210.003906 C 97.519531 210.15625 97.535156 210.304688 97.5625 210.453125 C 97.59375 210.640625 97.625 210.824219 97.65625 211.015625 C 97.707031 211.289062 97.753906 211.5625 97.816406 211.832031 C 97.960938 212.429688 98.113281 212.988281 98.273438 213.519531 C 98.386719 213.878906 98.5 214.242188 98.621094 214.609375 C 98.855469 215.289062 99.113281 215.933594 99.40625 216.585938 C 99.527344 216.839844 99.648438 217.101562 99.769531 217.347656 C 99.773438 217.355469 99.773438 217.367188 99.78125 217.371094 C 99.832031 217.480469 99.886719 217.589844 99.9375 217.695312 C 100.207031 218.226562 100.496094 218.773438 100.824219 219.351562 C 100.875 219.445312 100.925781 219.535156 100.976562 219.621094 Z M 124.878906 167.007812 C 121.269531 166.171875 117.777344 165.234375 114.394531 164.21875 L 114.394531 195.839844 L 115.21875 196.105469 L 118.652344 197.117188 C 118.679688 197.125 118.699219 197.136719 118.71875 197.144531 C 118.90625 197.195312 119.089844 197.25 119.28125 197.300781 C 119.921875 197.480469 120.554688 197.652344 121.175781 197.816406 C 121.25 197.835938 121.328125 197.851562 121.398438 197.871094 C 121.765625 197.96875 122.125 198.0625 122.488281 198.15625 C 123.007812 198.289062 123.527344 198.421875 124.054688 198.550781 C 124.324219 198.621094 124.605469 198.683594 124.882812 198.746094 L 124.882812 167.007812 Z M 111.554688 231.21875 C 111.953125 231.535156 112.355469 231.855469 112.757812 232.164062 C 112.917969 232.253906 113.050781 232.359375 113.179688 232.476562 L 114.964844 233.753906 C 115.628906 234.21875 116.351562 234.699219 117.132812 235.199219 L 118.683594 236.167969 C 118.710938 236.1875 118.742188 236.203125 118.769531 236.21875 L 118.769531 205.382812 C 118.519531 205.242188 118.265625 205.109375 118.019531 204.96875 C 117.675781 204.78125 117.339844 204.582031 117.003906 204.386719 C 116.753906 204.242188 116.492188 204.09375 116.246094 203.949219 L 113.09375 203 C 112.019531 202.664062 110.921875 202.308594 109.8125 201.941406 C 109.660156 201.898438 109.507812 201.851562 109.367188 201.789062 C 109.21875 201.738281 109.070312 201.6875 108.917969 201.636719 C 108.785156 201.59375 108.652344 201.542969 108.511719 201.496094 C 108.4375 201.472656 108.363281 201.445312 108.292969 201.421875 L 108.292969 228.316406 C 109.230469 229.25 110.273438 230.1875 111.554688 231.21875 Z M 136.492188 244.59375 L 136.492188 213.242188 C 136.347656 213.191406 136.195312 213.140625 136.050781 213.082031 C 135.652344 212.9375 135.257812 212.789062 134.859375 212.644531 C 134.441406 212.488281 134.015625 212.335938 133.597656 212.175781 C 133.203125 212.023438 132.824219 211.871094 132.429688 211.71875 C 132.019531 211.5625 131.605469 211.398438 131.203125 211.238281 C 130.820312 211.085938 130.441406 210.925781 130.066406 210.769531 C 129.660156 210.605469 129.261719 210.441406 128.863281 210.269531 C 128.488281 210.109375 128.121094 209.945312 127.753906 209.785156 C 127.359375 209.617188 126.960938 209.445312 126.574219 209.265625 C 126.386719 209.183594 126.203125 209.097656 126.011719 209.007812 L 126.011719 240.113281 C 129.339844 241.726562 132.835938 243.222656 136.492188 244.59375 Z M 142.597656 202.125 L 142.597656 170.253906 C 139.027344 169.765625 135.53125 169.1875 132.113281 168.535156 L 132.113281 200.335938 C 132.539062 200.421875 132.964844 200.515625 133.386719 200.597656 C 133.4375 200.609375 133.488281 200.617188 133.539062 200.628906 C 134.820312 200.875 136.113281 201.105469 137.414062 201.320312 C 137.722656 201.371094 138.027344 201.425781 138.335938 201.476562 C 138.597656 201.523438 138.859375 201.5625 139.117188 201.605469 C 139.65625 201.6875 140.1875 201.777344 140.726562 201.859375 C 140.980469 201.898438 141.234375 201.933594 141.488281 201.972656 C 141.863281 202.023438 142.230469 202.074219 142.597656 202.125 Z M 96.675781 157.621094 L 96.675781 188.808594 C 96.777344 188.859375 96.878906 188.910156 96.980469 188.960938 C 97.144531 189.042969 97.300781 189.121094 97.46875 189.203125 C 99.285156 190.078125 101.207031 190.9375 103.226562 191.78125 C 104.515625 192.320312 105.832031 192.832031 107.15625 193.335938 L 107.15625 161.851562 C 103.488281 160.542969 99.984375 159.132812 96.675781 157.621094 Z M 151.785156 217.816406 C 151.40625 217.722656 151.03125 217.625 150.65625 217.523438 C 150.121094 217.386719 149.582031 217.253906 149.046875 217.113281 C 148.625 217 148.207031 216.886719 147.785156 216.769531 C 147.3125 216.636719 146.828125 216.511719 146.355469 216.378906 C 145.921875 216.257812 145.5 216.128906 145.074219 216.003906 C 144.625 215.871094 144.175781 215.742188 143.730469 215.609375 L 143.730469 247.070312 C 147.128906 248.136719 150.625 249.105469 154.214844 249.964844 L 154.214844 218.394531 C 153.402344 218.203125 152.589844 218.011719 151.785156 217.816406 Z M 250.503906 196.078125 C 256.273438 194.550781 261.578125 192.765625 266.316406 190.75 C 280.886719 184.558594 289.855469 176.46875 289.855469 167.890625 C 289.855469 165.234375 288.988281 162.617188 287.351562 160.105469 C 286.65625 159.03125 285.816406 157.972656 284.855469 156.933594 C 284.855469 156.964844 284.847656 157 284.847656 157.035156 C 284.839844 157.121094 284.839844 157.210938 284.835938 157.300781 C 284.828125 157.445312 284.808594 157.585938 284.804688 157.730469 C 284.796875 157.863281 284.785156 157.996094 284.773438 158.128906 C 284.757812 158.261719 284.753906 158.394531 284.742188 158.527344 C 284.726562 158.667969 284.707031 158.800781 284.695312 158.941406 C 284.675781 159.085938 284.65625 159.226562 284.640625 159.371094 C 284.589844 159.789062 284.523438 160.203125 284.457031 160.613281 C 284.4375 160.726562 284.417969 160.84375 284.390625 160.957031 C 284.304688 161.425781 284.207031 161.886719 284.101562 162.355469 C 284.085938 162.414062 284.074219 162.464844 284.0625 162.523438 C 283.410156 165.257812 282.371094 167.925781 280.96875 170.519531 C 280.929688 170.59375 280.886719 170.671875 280.84375 170.746094 C 280.621094 171.152344 280.386719 171.558594 280.144531 171.964844 C 280.0625 172.105469 279.980469 172.242188 279.898438 172.375 C 279.695312 172.699219 279.492188 173.023438 279.277344 173.347656 C 279.152344 173.535156 279.03125 173.734375 278.898438 173.921875 C 278.746094 174.144531 278.582031 174.371094 278.421875 174.59375 C 276.84375 176.824219 275 178.988281 272.902344 181.058594 C 272.820312 181.148438 272.738281 181.230469 272.648438 181.304688 C 270.214844 183.675781 267.464844 185.945312 264.421875 188.074219 C 261.316406 190.253906 257.921875 192.308594 254.269531 194.210938 C 254.261719 194.214844 254.257812 194.214844 254.246094 194.222656 C 254.230469 194.226562 254.21875 194.234375 254.199219 194.246094 C 253.535156 194.597656 252.863281 194.9375 252.179688 195.273438 C 252.050781 195.335938 251.925781 195.402344 251.796875 195.457031 C 251.375 195.652344 250.941406 195.871094 250.503906 196.078125 Z M 78.957031 177.066406 C 81.921875 179.808594 85.4375 182.414062 89.4375 184.847656 L 89.4375 153.996094 C 89.140625 153.832031 88.847656 153.675781 88.558594 153.511719 C 88.304688 153.363281 88.054688 153.222656 87.800781 153.078125 C 87.414062 152.855469 87.035156 152.636719 86.65625 152.414062 C 86.410156 152.269531 86.167969 152.121094 85.921875 151.96875 C 85.539062 151.742188 85.167969 151.507812 84.796875 151.277344 C 84.570312 151.132812 84.335938 150.988281 84.109375 150.839844 C 83.726562 150.601562 83.355469 150.355469 82.984375 150.105469 C 82.777344 149.96875 82.566406 149.828125 82.359375 149.6875 C 81.964844 149.421875 81.578125 149.15625 81.199219 148.882812 C 81.019531 148.761719 80.84375 148.636719 80.671875 148.515625 C 80.230469 148.199219 79.796875 147.882812 79.367188 147.558594 C 79.257812 147.476562 79.152344 147.402344 79.042969 147.316406 C 79.019531 147.300781 78.988281 147.273438 78.957031 147.253906 Z M 90.902344 279.839844 C 93.867188 282.585938 97.386719 285.191406 101.378906 287.625 L 101.378906 256.765625 C 101.09375 256.609375 100.808594 256.449219 100.523438 256.292969 C 100.242188 256.132812 99.96875 255.972656 99.699219 255.816406 C 99.335938 255.605469 98.980469 255.402344 98.628906 255.1875 C 98.359375 255.03125 98.09375 254.871094 97.835938 254.714844 C 97.480469 254.496094 97.125 254.28125 96.777344 254.0625 C 96.523438 253.902344 96.277344 253.742188 96.027344 253.585938 C 95.671875 253.355469 95.320312 253.121094 94.96875 252.894531 C 94.742188 252.742188 94.507812 252.589844 94.285156 252.4375 C 93.917969 252.191406 93.558594 251.9375 93.195312 251.683594 C 93 251.542969 92.796875 251.40625 92.601562 251.265625 C 92.1875 250.972656 91.789062 250.675781 91.390625 250.378906 C 91.25 250.277344 91.109375 250.175781 90.976562 250.074219 C 90.953125 250.054688 90.925781 250.035156 90.90625 250.023438 L 90.90625 279.839844 Z M 126.335938 266.988281 L 126.335938 298.613281 C 129.699219 299.679688 133.199219 300.648438 136.816406 301.527344 L 136.816406 269.777344 C 133.210938 268.941406 129.71875 268.007812 126.335938 266.988281 Z M 144.0625 303.117188 C 147.464844 303.796875 150.960938 304.386719 154.542969 304.894531 L 154.542969 273.023438 C 150.976562 272.535156 147.476562 271.957031 144.0625 271.304688 Z M 161.78125 305.789062 C 165.214844 306.148438 168.707031 306.425781 172.261719 306.628906 L 172.261719 274.707031 C 168.71875 274.519531 165.222656 274.238281 161.78125 273.890625 Z M 197.21875 274.703125 L 197.21875 306.625 C 200.769531 306.425781 204.265625 306.140625 207.695312 305.78125 L 207.695312 273.882812 C 204.261719 274.238281 200.761719 274.511719 197.21875 274.703125 Z M 214.9375 304.894531 C 218.511719 304.386719 222.011719 303.796875 225.421875 303.121094 L 225.421875 271.304688 C 222.003906 271.957031 218.511719 272.535156 214.9375 273.023438 Z M 232.660156 301.527344 C 236.277344 300.652344 239.777344 299.679688 243.132812 298.613281 L 243.132812 267 C 243.078125 267.019531 243.027344 267.035156 242.976562 267.050781 C 239.648438 268.046875 236.207031 268.953125 232.660156 269.777344 Z M 268.097656 256.765625 L 268.097656 287.625 C 272.089844 285.191406 275.609375 282.585938 278.582031 279.839844 L 278.582031 250.03125 C 278.566406 250.042969 278.546875 250.054688 278.53125 250.066406 C 278.148438 250.351562 277.757812 250.636719 277.371094 250.917969 C 277.039062 251.15625 276.71875 251.398438 276.382812 251.632812 C 275.957031 251.929688 275.519531 252.222656 275.089844 252.515625 C 274.765625 252.730469 274.453125 252.945312 274.132812 253.160156 C 273.664062 253.464844 273.175781 253.769531 272.691406 254.074219 C 272.382812 254.261719 272.085938 254.460938 271.773438 254.648438 C 271.253906 254.96875 270.722656 255.277344 270.191406 255.589844 C 269.898438 255.757812 269.613281 255.929688 269.316406 256.101562 C 268.910156 256.324219 268.503906 256.542969 268.097656 256.765625 Z M 291.179688 232.417969 C 292.902344 231.132812 294.507812 229.8125 295.976562 228.457031 L 295.976562 198.644531 C 295.953125 198.664062 295.917969 198.683594 295.894531 198.707031 C 295.785156 198.792969 295.671875 198.875 295.566406 198.957031 C 295.140625 199.273438 294.710938 199.597656 294.265625 199.90625 C 294.089844 200.035156 293.910156 200.152344 293.734375 200.28125 C 293.351562 200.546875 292.964844 200.820312 292.574219 201.085938 C 292.363281 201.226562 292.15625 201.363281 291.945312 201.503906 C 291.570312 201.75 291.203125 201.992188 290.824219 202.238281 C 290.597656 202.382812 290.367188 202.53125 290.132812 202.675781 C 289.757812 202.910156 289.386719 203.140625 289.003906 203.375 C 288.765625 203.519531 288.523438 203.664062 288.28125 203.808594 C 287.902344 204.039062 287.511719 204.261719 287.125 204.488281 C 286.875 204.628906 286.636719 204.773438 286.386719 204.914062 C 286.089844 205.078125 285.792969 205.242188 285.496094 205.40625 L 285.496094 236.152344 C 287.339844 235.0625 289.164062 233.925781 291.066406 232.507812 C 291.101562 232.457031 291.140625 232.441406 291.179688 232.417969 Z M 67.953125 116.492188 C 67.953125 120.429688 69.019531 124.273438 71.007812 127.964844 C 72.613281 130.9375 74.816406 133.804688 77.566406 136.550781 C 77.78125 136.722656 77.980469 136.917969 78.15625 137.132812 C 82.429688 141.253906 87.917969 145.074219 94.414062 148.492188 C 94.609375 148.574219 94.800781 148.667969 94.976562 148.78125 C 95.859375 149.238281 96.746094 149.6875 97.65625 150.125 C 101.96875 152.199219 106.65625 154.09375 111.664062 155.785156 C 111.847656 155.828125 112.03125 155.894531 112.203125 155.960938 C 117.480469 157.722656 123.113281 159.265625 129.046875 160.542969 C 129.179688 160.5625 129.3125 160.59375 129.441406 160.625 C 134.902344 161.800781 140.621094 162.75 146.53125 163.472656 C 146.582031 163.480469 146.632812 163.484375 146.683594 163.492188 C 155.03125 164.5 163.777344 165.039062 172.792969 165.039062 C 181.808594 165.039062 190.546875 164.5 198.894531 163.496094 C 198.949219 163.492188 199.007812 163.484375 199.0625 163.480469 C 204.984375 162.761719 210.699219 161.804688 216.167969 160.632812 C 216.289062 160.601562 216.410156 160.574219 216.53125 160.558594 C 222.460938 159.269531 228.097656 157.738281 233.382812 155.976562 C 233.558594 155.898438 233.734375 155.84375 233.925781 155.792969 C 238.933594 154.097656 243.621094 152.203125 247.933594 150.132812 C 248.84375 149.695312 249.738281 149.246094 250.621094 148.789062 C 250.789062 148.679688 250.972656 148.585938 251.164062 148.507812 C 257.667969 145.09375 263.160156 141.273438 267.433594 137.144531 C 267.605469 136.929688 267.800781 136.742188 268.015625 136.574219 C 271.46875 133.121094 274.074219 129.472656 275.695312 125.667969 C 276.964844 122.691406 277.636719 119.628906 277.636719 116.503906 C 277.636719 103.609375 266.285156 91.699219 247.933594 82.871094 C 228.78125 73.664062 202.214844 67.964844 172.792969 67.964844 C 143.371094 67.964844 116.808594 73.664062 97.65625 82.871094 C 79.308594 91.6875 67.953125 103.59375 67.953125 116.492188 Z M 67.953125 155.671875 C 67.953125 160.050781 69.265625 164.316406 71.710938 168.382812 L 71.710938 140.859375 C 71.589844 140.734375 71.476562 140.613281 71.355469 140.484375 C 71.070312 140.183594 70.785156 139.878906 70.515625 139.566406 C 70.378906 139.421875 70.246094 139.277344 70.121094 139.125 C 69.847656 138.8125 69.582031 138.503906 69.324219 138.191406 C 69.203125 138.046875 69.082031 137.902344 68.960938 137.761719 C 68.695312 137.4375 68.441406 137.109375 68.1875 136.777344 C 68.113281 136.675781 68.03125 136.582031 67.953125 136.480469 Z M 83.695312 206.484375 C 81.222656 210.554688 79.898438 214.84375 79.898438 219.269531 C 79.898438 221.417969 80.222656 223.539062 80.832031 225.625 C 83.886719 236.050781 94.3125 245.542969 109.605469 252.902344 C 128.753906 262.109375 155.316406 267.804688 184.742188 267.804688 C 205.386719 267.804688 224.636719 264.992188 240.910156 260.125 C 241.359375 259.992188 241.796875 259.851562 242.242188 259.714844 C 242.742188 259.554688 243.25 259.402344 243.75 259.246094 C 244.21875 259.09375 244.679688 258.933594 245.148438 258.78125 C 245.523438 258.65625 245.902344 258.535156 246.277344 258.40625 C 243.527344 258.996094 240.867188 259.492188 238.25 259.910156 C 235.296875 260.40625 232.285156 260.835938 229.222656 261.210938 C 229.152344 261.222656 229.085938 261.226562 229.015625 261.234375 C 221.277344 262.171875 213.226562 262.710938 204.953125 262.8125 C 204.945312 262.8125 204.945312 262.8125 204.9375 262.8125 C 204.007812 262.824219 203.074219 262.832031 202.136719 262.832031 C 192.878906 262.832031 183.871094 262.273438 175.265625 261.234375 C 175.191406 261.226562 175.113281 261.214844 175.039062 261.210938 C 171.203125 260.742188 167.445312 260.175781 163.78125 259.523438 C 142.886719 257.539062 124.617188 252.632812 111.59375 245.898438 C 97.941406 238.832031 89.785156 229.597656 89.785156 219.269531 C 89.785156 218.109375 89.898438 216.910156 90.128906 215.691406 L 90.128906 215.679688 C 90.273438 214.875 90.484375 214.070312 90.730469 213.277344 C 90.519531 212.328125 90.363281 211.371094 90.253906 210.402344 C 90.253906 210.382812 90.25 210.355469 90.25 210.339844 C 90.25 210.332031 90.25 210.320312 90.25 210.3125 C 90.128906 209.242188 90.066406 208.15625 90.058594 207.074219 C 90.058594 207.066406 90.058594 207.0625 90.058594 207.054688 L 90.058594 198.683594 C 87.464844 201.179688 85.332031 203.792969 83.695312 206.484375 Z M 79.898438 258.441406 C 79.898438 262.820312 81.210938 267.085938 83.65625 271.160156 L 83.65625 243.636719 C 83.53125 243.507812 83.410156 243.375 83.289062 243.242188 C 83.011719 242.949219 82.738281 242.652344 82.472656 242.355469 C 82.332031 242.195312 82.195312 242.042969 82.054688 241.886719 C 81.789062 241.589844 81.535156 241.285156 81.28125 240.980469 C 81.15625 240.828125 81.019531 240.667969 80.894531 240.515625 C 80.640625 240.207031 80.394531 239.890625 80.148438 239.574219 C 80.066406 239.464844 79.976562 239.359375 79.894531 239.25 L 79.894531 258.441406 Z M 109.597656 292.066406 C 112.589844 293.503906 115.757812 294.855469 119.097656 296.117188 L 119.097656 264.617188 C 115.429688 263.3125 111.921875 261.898438 108.613281 260.390625 L 108.613281 291.578125 C 108.945312 291.75 109.269531 291.90625 109.597656 292.066406 Z M 189.980469 306.914062 L 189.980469 274.980469 C 188.246094 275.019531 186.503906 275.042969 184.742188 275.042969 C 182.984375 275.042969 181.238281 275.023438 179.5 274.980469 L 179.5 306.910156 C 181.238281 306.945312 182.984375 306.972656 184.742188 306.972656 C 186.496094 306.980469 188.246094 306.953125 189.980469 306.914062 Z M 259.878906 292.066406 C 260.207031 291.90625 260.53125 291.742188 260.855469 291.585938 L 260.855469 260.398438 C 260.207031 260.695312 259.550781 260.988281 258.882812 261.273438 C 258.757812 261.328125 258.628906 261.386719 258.503906 261.445312 C 257.570312 261.847656 256.621094 262.242188 255.664062 262.628906 C 255.636719 262.640625 255.605469 262.652344 255.582031 262.660156 C 253.890625 263.339844 252.152344 263.992188 250.378906 264.625 L 250.378906 296.117188 C 253.710938 294.863281 256.886719 293.503906 259.878906 292.066406 Z M 289.582031 242.195312 C 288.410156 242.949219 287.105469 243.699219 285.816406 244.394531 L 285.816406 271.160156 C 288.269531 267.089844 289.582031 262.820312 289.582031 258.441406 Z M 306.761719 188.136719 C 306.503906 188.480469 306.230469 188.824219 305.957031 189.160156 C 305.84375 189.296875 305.730469 189.429688 305.617188 189.570312 C 305.351562 189.894531 305.078125 190.210938 304.796875 190.527344 C 304.671875 190.667969 304.546875 190.8125 304.417969 190.953125 C 304.140625 191.261719 303.855469 191.574219 303.5625 191.882812 C 303.449219 192.003906 303.328125 192.128906 303.214844 192.25 L 303.214844 219.773438 C 305.660156 215.707031 306.980469 211.433594 306.980469 207.054688 L 306.980469 187.871094 C 306.910156 187.960938 306.832031 188.050781 306.761719 188.136719 Z M 306.761719 188.136719 " fill-opacity="1" fill-rule="nonzero"/></g></svg>