<svg xmlns="http://www.w3.org/2000/svg" xmlns:xlink="http://www.w3.org/1999/xlink" width="500" zoomAndPan="magnify" viewBox="0 0 375 374.999991" height="500" preserveAspectRatio="xMidYMid meet" version="1.0"><defs><clipPath id="73a23df714"><path d="M 29.542969 69 L 345.292969 69 L 345.292969 305.890625 L 29.542969 305.890625 Z M 29.542969 69 " clip-rule="nonzero"/></clipPath></defs><rect x="-37.5" width="450" fill="#ffffff" y="-37.499999" height="449.999989" fill-opacity="1"/><rect x="-37.5" width="450" fill="#ffffff" y="-37.499999" height="449.999989" fill-opacity="1"/><g clip-path="url(#73a23df714)"><path fill="#000000" d="M 325.230469 104.058594 L 150.234375 104.058594 L 150.234375 75.121094 C 150.234375 74.722656 150.195312 74.332031 150.117188 73.945312 C 150.039062 73.554688 149.925781 73.179688 149.773438 72.8125 C 149.621094 72.445312 149.4375 72.097656 149.214844 71.769531 C 148.996094 71.441406 148.746094 71.136719 148.464844 70.855469 C 148.183594 70.574219 147.878906 70.324219 147.550781 70.105469 C 147.222656 69.886719 146.875 69.699219 146.507812 69.546875 C 146.140625 69.394531 145.765625 69.28125 145.375 69.203125 C 144.988281 69.128906 144.59375 69.089844 144.199219 69.089844 L 35.578125 69.089844 C 35.183594 69.089844 34.789062 69.128906 34.402344 69.203125 C 34.011719 69.28125 33.636719 69.394531 33.269531 69.546875 C 32.902344 69.699219 32.554688 69.886719 32.226562 70.105469 C 31.898438 70.324219 31.59375 70.574219 31.3125 70.855469 C 31.03125 71.136719 30.78125 71.441406 30.5625 71.769531 C 30.339844 72.097656 30.15625 72.445312 30.003906 72.8125 C 29.851562 73.179688 29.738281 73.554688 29.660156 73.945312 C 29.582031 74.332031 29.542969 74.722656 29.542969 75.121094 L 29.542969 299.597656 C 29.542969 299.996094 29.582031 300.386719 29.660156 300.777344 C 29.738281 301.164062 29.851562 301.542969 30.003906 301.90625 C 30.15625 302.273438 30.339844 302.621094 30.5625 302.949219 C 30.78125 303.28125 31.03125 303.585938 31.3125 303.863281 C 31.59375 304.144531 31.898438 304.394531 32.226562 304.613281 C 32.554688 304.835938 32.902344 305.019531 33.269531 305.171875 C 33.636719 305.324219 34.011719 305.4375 34.402344 305.515625 C 34.789062 305.59375 35.183594 305.632812 35.578125 305.632812 L 144.199219 305.632812 C 144.59375 305.632812 144.988281 305.59375 145.375 305.515625 C 145.765625 305.4375 146.140625 305.324219 146.507812 305.171875 C 146.875 305.019531 147.222656 304.835938 147.550781 304.613281 C 147.878906 304.394531 148.183594 304.144531 148.464844 303.863281 C 148.746094 303.585938 148.996094 303.28125 149.214844 302.949219 C 149.4375 302.621094 149.621094 302.273438 149.773438 301.90625 C 149.925781 301.542969 150.039062 301.164062 150.117188 300.777344 C 150.195312 300.386719 150.234375 299.996094 150.234375 299.597656 L 150.234375 257.117188 L 211.632812 257.117188 C 210.734375 263.726562 208.875 270.050781 206.050781 276.089844 C 205.167969 276.332031 204.3125 276.644531 203.480469 277.023438 C 202.652344 277.40625 201.855469 277.851562 201.097656 278.363281 C 200.339844 278.871094 199.625 279.441406 198.960938 280.066406 C 198.292969 280.691406 197.683594 281.367188 197.128906 282.09375 C 196.570312 282.820312 196.078125 283.585938 195.644531 284.390625 C 195.214844 285.199219 194.851562 286.03125 194.554688 286.898438 C 194.257812 287.761719 194.035156 288.644531 193.882812 289.546875 C 193.730469 290.449219 193.65625 291.355469 193.648438 292.269531 L 193.648438 299.554688 C 193.648438 299.949219 193.6875 300.34375 193.765625 300.730469 C 193.84375 301.117188 193.957031 301.496094 194.109375 301.863281 C 194.261719 302.226562 194.445312 302.574219 194.667969 302.90625 C 194.886719 303.234375 195.136719 303.539062 195.417969 303.820312 C 195.699219 304.097656 196.003906 304.347656 196.332031 304.570312 C 196.660156 304.789062 197.007812 304.976562 197.375 305.125 C 197.742188 305.277344 198.117188 305.394531 198.507812 305.46875 C 198.894531 305.546875 199.289062 305.585938 199.683594 305.585938 L 257.011719 305.585938 C 257.40625 305.585938 257.800781 305.546875 258.1875 305.46875 C 258.578125 305.394531 258.953125 305.277344 259.320312 305.125 C 259.6875 304.976562 260.035156 304.789062 260.363281 304.570312 C 260.691406 304.347656 261 304.097656 261.277344 303.820312 C 261.558594 303.539062 261.808594 303.234375 262.027344 302.90625 C 262.25 302.574219 262.433594 302.226562 262.585938 301.863281 C 262.738281 301.496094 262.851562 301.117188 262.929688 300.730469 C 263.007812 300.34375 263.046875 299.949219 263.046875 299.554688 L 263.046875 292.269531 C 263.042969 291.355469 262.96875 290.445312 262.820312 289.542969 C 262.667969 288.640625 262.449219 287.753906 262.152344 286.886719 C 261.859375 286.019531 261.496094 285.183594 261.066406 284.375 C 260.636719 283.566406 260.144531 282.796875 259.589844 282.070312 C 259.03125 281.34375 258.421875 280.664062 257.757812 280.035156 C 257.089844 279.410156 256.378906 278.839844 255.617188 278.324219 C 254.859375 277.8125 254.0625 277.367188 253.230469 276.984375 C 252.402344 276.601562 251.542969 276.289062 250.660156 276.042969 C 247.835938 270.003906 245.976562 263.679688 245.078125 257.074219 L 325.230469 257.074219 C 325.882812 257.074219 326.539062 257.039062 327.1875 256.976562 C 327.839844 256.910156 328.488281 256.816406 329.128906 256.6875 C 329.769531 256.558594 330.40625 256.398438 331.03125 256.210938 C 331.65625 256.019531 332.273438 255.800781 332.878906 255.550781 C 333.480469 255.296875 334.074219 255.019531 334.648438 254.710938 C 335.226562 254.402344 335.789062 254.066406 336.332031 253.703125 C 336.875 253.339844 337.402344 252.949219 337.90625 252.535156 C 338.414062 252.117188 338.898438 251.679688 339.359375 251.21875 C 339.824219 250.753906 340.261719 250.269531 340.675781 249.765625 C 341.09375 249.257812 341.480469 248.734375 341.847656 248.191406 C 342.210938 247.644531 342.546875 247.085938 342.855469 246.507812 C 343.164062 245.933594 343.441406 245.339844 343.695312 244.738281 C 343.945312 244.132812 344.164062 243.515625 344.355469 242.890625 C 344.546875 242.265625 344.703125 241.632812 344.832031 240.988281 C 344.960938 240.347656 345.058594 239.703125 345.121094 239.050781 C 345.1875 238.398438 345.21875 237.746094 345.21875 237.09375 L 345.21875 123.996094 C 345.21875 123.339844 345.183594 122.6875 345.117188 122.039062 C 345.050781 121.390625 344.953125 120.742188 344.824219 120.105469 C 344.695312 119.464844 344.535156 118.832031 344.34375 118.207031 C 344.152344 117.582031 343.933594 116.96875 343.679688 116.363281 C 343.429688 115.761719 343.148438 115.171875 342.839844 114.597656 C 342.53125 114.019531 342.195312 113.460938 341.832031 112.917969 C 341.464844 112.375 341.078125 111.851562 340.660156 111.347656 C 340.246094 110.84375 339.808594 110.359375 339.34375 109.898438 C 338.882812 109.4375 338.398438 109 337.890625 108.585938 C 337.386719 108.171875 336.863281 107.785156 336.316406 107.421875 C 335.773438 107.058594 335.214844 106.722656 334.636719 106.414062 C 334.0625 106.109375 333.472656 105.828125 332.867188 105.578125 C 332.261719 105.328125 331.648438 105.109375 331.023438 104.917969 C 330.398438 104.730469 329.765625 104.570312 329.125 104.445312 C 328.480469 104.316406 327.835938 104.21875 327.1875 104.15625 C 326.535156 104.089844 325.882812 104.058594 325.230469 104.058594 Z M 325.230469 116.121094 C 325.75 116.125 326.265625 116.175781 326.773438 116.277344 C 327.285156 116.378906 327.777344 116.53125 328.257812 116.730469 C 328.738281 116.929688 329.195312 117.171875 329.625 117.460938 C 330.058594 117.75 330.457031 118.078125 330.828125 118.445312 C 331.195312 118.8125 331.523438 119.210938 331.8125 119.644531 C 332.101562 120.078125 332.34375 120.53125 332.542969 121.011719 C 332.742188 121.492188 332.894531 121.988281 332.996094 122.496094 C 333.097656 123.003906 333.148438 123.519531 333.148438 124.039062 L 333.148438 215.648438 L 150.234375 215.648438 L 150.234375 116.121094 Z M 138.164062 293.566406 L 41.613281 293.566406 L 41.613281 81.152344 L 138.164062 81.152344 Z M 250.976562 293.566406 L 205.71875 293.566406 L 205.71875 292.269531 C 205.71875 291.957031 205.75 291.648438 205.808594 291.339844 C 205.871094 291.03125 205.960938 290.734375 206.082031 290.445312 C 206.203125 290.15625 206.347656 289.878906 206.523438 289.621094 C 206.695312 289.359375 206.894531 289.117188 207.113281 288.894531 C 207.335938 288.671875 207.578125 288.476562 207.835938 288.300781 C 208.097656 288.125 208.371094 287.980469 208.660156 287.859375 C 208.949219 287.738281 209.25 287.644531 209.554688 287.585938 C 209.863281 287.523438 210.171875 287.492188 210.484375 287.488281 L 246.210938 287.488281 C 246.523438 287.492188 246.832031 287.523438 247.140625 287.585938 C 247.449219 287.644531 247.746094 287.738281 248.035156 287.859375 C 248.324219 287.980469 248.597656 288.125 248.859375 288.300781 C 249.121094 288.476562 249.359375 288.671875 249.582031 288.894531 C 249.804688 289.117188 250 289.359375 250.175781 289.621094 C 250.347656 289.878906 250.496094 290.15625 250.613281 290.445312 C 250.734375 290.734375 250.824219 291.03125 250.886719 291.339844 C 250.945312 291.648438 250.976562 291.957031 250.976562 292.269531 Z M 237.398438 275.472656 L 219.339844 275.472656 C 221.664062 269.558594 223.125 263.441406 223.730469 257.117188 L 232.964844 257.117188 C 233.578125 263.441406 235.039062 269.558594 237.355469 275.472656 Z M 325.230469 245.054688 L 150.234375 245.054688 L 150.234375 227.714844 L 333.195312 227.714844 L 333.195312 237.136719 C 333.195312 237.660156 333.144531 238.175781 333.039062 238.6875 C 332.9375 239.199219 332.785156 239.695312 332.585938 240.175781 C 332.382812 240.65625 332.136719 241.113281 331.847656 241.546875 C 331.554688 241.980469 331.226562 242.378906 330.855469 242.746094 C 330.484375 243.117188 330.082031 243.445312 329.648438 243.730469 C 329.214844 244.019531 328.753906 244.261719 328.273438 244.460938 C 327.789062 244.660156 327.292969 244.808594 326.78125 244.910156 C 326.269531 245.007812 325.75 245.058594 325.230469 245.054688 Z M 325.230469 245.054688 " fill-opacity="1" fill-rule="nonzero"/></g><path fill="#000000" d="M 232.996094 229.734375 L 223.703125 229.734375 C 223.304688 229.734375 222.914062 229.773438 222.523438 229.851562 C 222.136719 229.925781 221.757812 230.042969 221.390625 230.191406 C 221.027344 230.34375 220.679688 230.53125 220.347656 230.75 C 220.019531 230.96875 219.714844 231.222656 219.433594 231.5 C 219.152344 231.78125 218.902344 232.085938 218.683594 232.414062 C 218.464844 232.746094 218.277344 233.09375 218.125 233.457031 C 217.976562 233.824219 217.859375 234.199219 217.78125 234.589844 C 217.707031 234.976562 217.667969 235.371094 217.667969 235.765625 C 217.667969 236.164062 217.707031 236.554688 217.78125 236.941406 C 217.859375 237.332031 217.976562 237.707031 218.125 238.074219 C 218.277344 238.441406 218.464844 238.789062 218.683594 239.117188 C 218.902344 239.445312 219.152344 239.75 219.433594 240.03125 C 219.714844 240.3125 220.019531 240.5625 220.347656 240.78125 C 220.679688 241 221.027344 241.1875 221.390625 241.339844 C 221.757812 241.492188 222.136719 241.605469 222.523438 241.683594 C 222.914062 241.757812 223.304688 241.796875 223.703125 241.796875 L 232.996094 241.796875 C 233.390625 241.796875 233.78125 241.757812 234.171875 241.683594 C 234.558594 241.605469 234.9375 241.492188 235.304688 241.339844 C 235.667969 241.1875 236.015625 241 236.347656 240.78125 C 236.675781 240.5625 236.980469 240.3125 237.261719 240.03125 C 237.542969 239.75 237.792969 239.445312 238.011719 239.117188 C 238.230469 238.789062 238.417969 238.441406 238.570312 238.074219 C 238.722656 237.707031 238.835938 237.332031 238.914062 236.941406 C 238.988281 236.554688 239.027344 236.164062 239.027344 235.765625 C 239.027344 235.371094 238.988281 234.976562 238.914062 234.589844 C 238.835938 234.199219 238.722656 233.824219 238.570312 233.457031 C 238.417969 233.09375 238.230469 232.746094 238.011719 232.414062 C 237.792969 232.085938 237.542969 231.78125 237.261719 231.5 C 236.980469 231.222656 236.675781 230.96875 236.347656 230.75 C 236.015625 230.53125 235.667969 230.34375 235.304688 230.191406 C 234.9375 230.042969 234.558594 229.925781 234.171875 229.851562 C 233.78125 229.773438 233.390625 229.734375 232.996094 229.734375 Z M 232.996094 229.734375 " fill-opacity="1" fill-rule="nonzero"/><path fill="#000000" d="M 89.886719 234.09375 C 89.261719 234.09375 88.636719 234.121094 88.011719 234.183594 C 87.390625 234.246094 86.769531 234.335938 86.15625 234.460938 C 85.542969 234.582031 84.933594 234.734375 84.335938 234.914062 C 83.734375 235.097656 83.148438 235.308594 82.566406 235.546875 C 81.988281 235.789062 81.421875 236.054688 80.871094 236.351562 C 80.320312 236.644531 79.78125 236.964844 79.261719 237.316406 C 78.738281 237.664062 78.238281 238.035156 77.753906 238.433594 C 77.269531 238.828125 76.804688 239.25 76.363281 239.691406 C 75.917969 240.136719 75.5 240.597656 75.101562 241.082031 C 74.703125 241.566406 74.332031 242.070312 73.984375 242.589844 C 73.636719 243.109375 73.3125 243.648438 73.019531 244.199219 C 72.722656 244.753906 72.457031 245.316406 72.214844 245.894531 C 71.976562 246.476562 71.765625 247.0625 71.582031 247.664062 C 71.402344 248.261719 71.25 248.867188 71.128906 249.484375 C 71.003906 250.097656 70.914062 250.714844 70.851562 251.339844 C 70.789062 251.960938 70.757812 252.585938 70.757812 253.214844 C 70.757812 253.839844 70.789062 254.464844 70.851562 255.085938 C 70.914062 255.710938 71.003906 256.328125 71.128906 256.945312 C 71.25 257.558594 71.402344 258.164062 71.582031 258.765625 C 71.765625 259.363281 71.976562 259.953125 72.214844 260.53125 C 72.457031 261.109375 72.722656 261.675781 73.019531 262.226562 C 73.3125 262.78125 73.636719 263.316406 73.984375 263.835938 C 74.332031 264.355469 74.703125 264.859375 75.101562 265.34375 C 75.5 265.828125 75.917969 266.292969 76.363281 266.734375 C 76.804688 267.175781 77.269531 267.597656 77.753906 267.996094 C 78.238281 268.390625 78.738281 268.765625 79.261719 269.113281 C 79.78125 269.460938 80.320312 269.78125 80.871094 270.078125 C 81.421875 270.371094 81.988281 270.640625 82.566406 270.878906 C 83.148438 271.117188 83.734375 271.328125 84.335938 271.511719 C 84.933594 271.691406 85.542969 271.84375 86.15625 271.96875 C 86.769531 272.089844 87.390625 272.179688 88.011719 272.242188 C 88.636719 272.304688 89.261719 272.335938 89.886719 272.335938 C 90.515625 272.335938 91.140625 272.304688 91.761719 272.242188 C 92.386719 272.179688 93.007812 272.089844 93.621094 271.96875 C 94.234375 271.84375 94.84375 271.691406 95.441406 271.511719 C 96.039062 271.328125 96.628906 271.117188 97.210938 270.878906 C 97.789062 270.640625 98.351562 270.371094 98.90625 270.078125 C 99.457031 269.78125 99.996094 269.460938 100.515625 269.113281 C 101.035156 268.765625 101.539062 268.390625 102.023438 267.996094 C 102.507812 267.597656 102.972656 267.175781 103.414062 266.734375 C 103.859375 266.292969 104.277344 265.828125 104.675781 265.34375 C 105.074219 264.859375 105.445312 264.355469 105.792969 263.835938 C 106.140625 263.316406 106.464844 262.78125 106.757812 262.226562 C 107.054688 261.675781 107.320312 261.109375 107.5625 260.53125 C 107.800781 259.953125 108.011719 259.363281 108.195312 258.765625 C 108.375 258.164062 108.527344 257.558594 108.648438 256.945312 C 108.773438 256.328125 108.863281 255.710938 108.925781 255.085938 C 108.988281 254.464844 109.019531 253.839844 109.019531 253.214844 C 109.015625 252.585938 108.984375 251.964844 108.921875 251.339844 C 108.859375 250.71875 108.769531 250.097656 108.644531 249.484375 C 108.523438 248.871094 108.371094 248.265625 108.1875 247.667969 C 108.003906 247.066406 107.792969 246.480469 107.554688 245.902344 C 107.3125 245.324219 107.046875 244.757812 106.75 244.207031 C 106.453125 243.652344 106.132812 243.117188 105.785156 242.597656 C 105.4375 242.078125 105.0625 241.574219 104.667969 241.089844 C 104.269531 240.605469 103.847656 240.144531 103.40625 239.703125 C 102.964844 239.257812 102.5 238.839844 102.015625 238.441406 C 101.53125 238.042969 101.03125 237.671875 100.507812 237.324219 C 99.988281 236.976562 99.453125 236.652344 98.898438 236.359375 C 98.347656 236.0625 97.78125 235.796875 97.203125 235.554688 C 96.625 235.316406 96.039062 235.105469 95.4375 234.921875 C 94.839844 234.738281 94.234375 234.585938 93.617188 234.464844 C 93.003906 234.339844 92.386719 234.25 91.761719 234.1875 C 91.140625 234.125 90.515625 234.09375 89.886719 234.09375 Z M 89.886719 260.269531 C 89.425781 260.269531 88.964844 260.226562 88.511719 260.136719 C 88.054688 260.042969 87.613281 259.910156 87.1875 259.734375 C 86.757812 259.554688 86.351562 259.339844 85.964844 259.082031 C 85.582031 258.824219 85.222656 258.53125 84.894531 258.203125 C 84.570312 257.875 84.277344 257.519531 84.019531 257.132812 C 83.761719 256.75 83.542969 256.34375 83.367188 255.914062 C 83.1875 255.484375 83.054688 255.042969 82.964844 254.589844 C 82.875 254.136719 82.828125 253.675781 82.828125 253.214844 C 82.828125 252.75 82.875 252.292969 82.964844 251.835938 C 83.054688 251.382812 83.1875 250.941406 83.367188 250.511719 C 83.542969 250.085938 83.761719 249.679688 84.019531 249.292969 C 84.277344 248.90625 84.570312 248.550781 84.894531 248.222656 C 85.222656 247.894531 85.582031 247.601562 85.964844 247.34375 C 86.351562 247.089844 86.757812 246.871094 87.1875 246.691406 C 87.613281 246.515625 88.054688 246.382812 88.511719 246.292969 C 88.964844 246.203125 89.425781 246.15625 89.886719 246.15625 C 90.351562 246.15625 90.8125 246.203125 91.265625 246.292969 C 91.71875 246.382812 92.164062 246.515625 92.589844 246.691406 C 93.019531 246.871094 93.425781 247.089844 93.8125 247.34375 C 94.195312 247.601562 94.554688 247.894531 94.882812 248.222656 C 95.207031 248.550781 95.5 248.90625 95.757812 249.292969 C 96.015625 249.679688 96.234375 250.085938 96.410156 250.511719 C 96.589844 250.941406 96.722656 251.382812 96.8125 251.835938 C 96.902344 252.292969 96.949219 252.75 96.949219 253.214844 C 96.949219 253.675781 96.902344 254.136719 96.8125 254.589844 C 96.71875 255.042969 96.585938 255.484375 96.40625 255.910156 C 96.230469 256.339844 96.011719 256.746094 95.753906 257.128906 C 95.496094 257.515625 95.203125 257.871094 94.875 258.199219 C 94.550781 258.527344 94.191406 258.820312 93.808594 259.078125 C 93.421875 259.335938 93.015625 259.550781 92.589844 259.730469 C 92.160156 259.90625 91.71875 260.042969 91.265625 260.132812 C 90.8125 260.222656 90.351562 260.269531 89.886719 260.269531 Z M 89.886719 260.269531 " fill-opacity="1" fill-rule="nonzero"/><path fill="#000000" d="M 126.09375 91.363281 L 53.683594 91.363281 C 53.285156 91.363281 52.894531 91.398438 52.503906 91.476562 C 52.117188 91.554688 51.738281 91.667969 51.371094 91.820312 C 51.007812 91.972656 50.660156 92.15625 50.328125 92.378906 C 50 92.597656 49.695312 92.847656 49.414062 93.128906 C 49.136719 93.40625 48.886719 93.710938 48.664062 94.042969 C 48.445312 94.371094 48.257812 94.71875 48.105469 95.085938 C 47.957031 95.449219 47.839844 95.828125 47.765625 96.214844 C 47.6875 96.605469 47.648438 96.996094 47.648438 97.394531 L 47.648438 123.375 C 47.648438 123.773438 47.6875 124.164062 47.765625 124.550781 C 47.839844 124.941406 47.957031 125.316406 48.105469 125.683594 C 48.257812 126.050781 48.445312 126.398438 48.664062 126.726562 C 48.886719 127.054688 49.136719 127.359375 49.414062 127.640625 C 49.695312 127.921875 50 128.171875 50.328125 128.390625 C 50.660156 128.609375 51.007812 128.796875 51.371094 128.949219 C 51.738281 129.101562 52.117188 129.214844 52.503906 129.292969 C 52.894531 129.371094 53.285156 129.40625 53.683594 129.40625 L 126.09375 129.40625 C 126.492188 129.40625 126.882812 129.371094 127.273438 129.292969 C 127.660156 129.214844 128.039062 129.101562 128.402344 128.949219 C 128.769531 128.796875 129.117188 128.609375 129.449219 128.390625 C 129.777344 128.171875 130.082031 127.921875 130.363281 127.640625 C 130.640625 127.359375 130.890625 127.054688 131.113281 126.726562 C 131.332031 126.398438 131.519531 126.050781 131.671875 125.683594 C 131.820312 125.316406 131.9375 124.941406 132.011719 124.550781 C 132.089844 124.164062 132.128906 123.773438 132.128906 123.375 L 132.128906 97.394531 C 132.128906 96.996094 132.089844 96.605469 132.011719 96.214844 C 131.9375 95.828125 131.820312 95.449219 131.671875 95.085938 C 131.519531 94.71875 131.332031 94.371094 131.113281 94.042969 C 130.890625 93.710938 130.640625 93.40625 130.363281 93.128906 C 130.082031 92.847656 129.777344 92.597656 129.449219 92.378906 C 129.117188 92.15625 128.769531 91.972656 128.402344 91.820312 C 128.039062 91.667969 127.660156 91.554688 127.273438 91.476562 C 126.882812 91.398438 126.492188 91.363281 126.09375 91.363281 Z M 120.0625 117.34375 L 59.714844 117.34375 L 59.714844 103.425781 L 120.0625 103.425781 Z M 120.0625 117.34375 " fill-opacity="1" fill-rule="nonzero"/><path fill="#000000" d="M 126.09375 155.828125 L 53.683594 155.828125 C 53.285156 155.828125 52.894531 155.867188 52.503906 155.945312 C 52.117188 156.019531 51.738281 156.136719 51.371094 156.285156 C 51.007812 156.4375 50.660156 156.625 50.328125 156.84375 C 50 157.0625 49.695312 157.3125 49.414062 157.59375 C 49.136719 157.875 48.886719 158.179688 48.664062 158.507812 C 48.445312 158.835938 48.257812 159.183594 48.105469 159.550781 C 47.957031 159.917969 47.839844 160.292969 47.765625 160.683594 C 47.6875 161.070312 47.648438 161.464844 47.648438 161.859375 C 47.648438 162.253906 47.6875 162.648438 47.765625 163.035156 C 47.839844 163.425781 47.957031 163.800781 48.105469 164.167969 C 48.257812 164.535156 48.445312 164.882812 48.664062 165.210938 C 48.886719 165.539062 49.136719 165.84375 49.414062 166.125 C 49.695312 166.40625 50 166.65625 50.328125 166.875 C 50.660156 167.09375 51.007812 167.28125 51.371094 167.433594 C 51.738281 167.585938 52.117188 167.699219 52.503906 167.777344 C 52.894531 167.851562 53.285156 167.890625 53.683594 167.890625 L 126.09375 167.890625 C 126.492188 167.890625 126.882812 167.851562 127.273438 167.777344 C 127.660156 167.699219 128.039062 167.585938 128.402344 167.433594 C 128.769531 167.28125 129.117188 167.09375 129.449219 166.875 C 129.777344 166.65625 130.082031 166.40625 130.363281 166.125 C 130.640625 165.84375 130.890625 165.539062 131.113281 165.210938 C 131.332031 164.882812 131.519531 164.535156 131.671875 164.167969 C 131.820312 163.800781 131.9375 163.425781 132.011719 163.035156 C 132.089844 162.648438 132.128906 162.253906 132.128906 161.859375 C 132.128906 161.464844 132.089844 161.070312 132.011719 160.683594 C 131.9375 160.292969 131.820312 159.917969 131.671875 159.550781 C 131.519531 159.183594 131.332031 158.835938 131.113281 158.507812 C 130.890625 158.179688 130.640625 157.875 130.363281 157.59375 C 130.082031 157.3125 129.777344 157.0625 129.449219 156.84375 C 129.117188 156.625 128.769531 156.4375 128.402344 156.285156 C 128.039062 156.136719 127.660156 156.019531 127.273438 155.945312 C 126.882812 155.867188 126.492188 155.828125 126.09375 155.828125 Z M 126.09375 155.828125 " fill-opacity="1" fill-rule="nonzero"/></svg>