<svg xmlns="http://www.w3.org/2000/svg" xmlns:xlink="http://www.w3.org/1999/xlink" width="500" zoomAndPan="magnify" viewBox="0 0 375 374.999991" height="500" preserveAspectRatio="xMidYMid meet" version="1.0"><defs><clipPath id="64319c28e3"><path d="M 9.640625 107 L 324 107 L 324 278 L 9.640625 278 Z M 9.640625 107 " clip-rule="nonzero"/></clipPath><clipPath id="88db7f8fa4"><path d="M 280 76.707031 L 342 76.707031 L 342 141 L 280 141 Z M 280 76.707031 " clip-rule="nonzero"/></clipPath><clipPath id="f38b34c486"><path d="M 301 235 L 365.140625 235 L 365.140625 297.957031 L 301 297.957031 Z M 301 235 " clip-rule="nonzero"/></clipPath></defs><g clip-path="url(#64319c28e3)"><path fill="#ffc40c" d="M 106.335938 277.855469 L 9.707031 183.128906 L 22.441406 170.183594 L 101.5625 247.753906 L 160.445312 134.632812 L 225.699219 213.339844 L 308.796875 107.375 L 323.121094 118.617188 L 226.039062 242.304688 L 163.855469 167.34375 Z M 106.335938 277.855469 " fill-opacity="1" fill-rule="nonzero"/></g><path fill="#1b8768" d="M 35.628906 293.867188 L 19.941406 284.554688 L 88.261719 169.953125 L 177.839844 242.644531 L 221.949219 134.746094 L 341.082031 256.386719 L 328.125 269.109375 L 228.3125 167.230469 L 185.34375 272.0625 L 93.148438 197.328125 Z M 35.628906 293.867188 " fill-opacity="1" fill-rule="nonzero"/><g clip-path="url(#88db7f8fa4)"><path fill="#ffc40c" d="M 331.421875 140.539062 L 280.605469 95.5625 L 341.765625 76.707031 Z M 331.421875 140.539062 " fill-opacity="1" fill-rule="nonzero"/></g><g clip-path="url(#f38b34c486)"><path fill="#1b8768" d="M 365.070312 297.957031 L 301.066406 275.242188 L 350.746094 235.035156 Z M 365.070312 297.957031 " fill-opacity="1" fill-rule="nonzero"/></g></svg>