<svg xmlns="http://www.w3.org/2000/svg" xmlns:xlink="http://www.w3.org/1999/xlink" width="500" zoomAndPan="magnify" viewBox="0 0 375 374.999991" height="500" preserveAspectRatio="xMidYMid meet" version="1.0"><defs><clipPath id="52a402ee30"><path d="M 24 118 L 351 118 L 351 257.730469 L 24 257.730469 Z M 24 118 " clip-rule="nonzero"/></clipPath></defs><g clip-path="url(#52a402ee30)"><path fill="#000000" d="M 245.136719 207.191406 C 245.011719 204.683594 244.582031 202.195312 243.890625 199.78125 L 233.609375 206.183594 C 233.957031 208.351562 234.144531 210.570312 234.144531 212.8125 C 234.144531 215.859375 233.894531 218.761719 233.441406 221.515625 L 244.765625 215.046875 C 245.132812 212.53125 245.269531 209.910156 245.136719 207.191406 Z M 244.457031 216.855469 L 233.105469 223.34375 C 232.171875 227.949219 230.648438 232.125 228.652344 235.839844 L 238.847656 230.738281 C 241.492188 226.609375 243.464844 221.960938 244.457031 216.855469 Z M 237.1875 233.15625 L 227.929688 237.785156 C 227.828125 237.835938 227.722656 237.859375 227.613281 237.859375 C 227.578125 237.859375 227.542969 237.847656 227.507812 237.84375 C 224.84375 242.214844 221.523438 245.878906 217.804688 248.796875 C 225.054688 245.394531 232.070312 240.085938 237.1875 233.15625 Z M 231.308594 212.8125 C 231.308594 201.464844 226.105469 190.382812 218.054688 184.578125 C 210.683594 179.265625 201.269531 178.304688 190.824219 181.796875 C 190.089844 182.039062 189.289062 181.644531 189.035156 180.910156 C 188.785156 180.167969 189.175781 179.367188 189.910156 179.109375 C 190.128906 179.03125 211.769531 171.246094 212.9375 153.183594 C 213.992188 136.921875 206.453125 129.253906 187.726562 127.558594 C 173.226562 126.238281 149.453125 129.3125 143.84375 130.082031 L 143.84375 253.621094 C 150.375 254.085938 179.867188 256 198.292969 253.96875 C 214.191406 252.214844 231.308594 238.585938 231.308594 212.8125 Z M 152.828125 126.105469 C 162.730469 125.003906 177.496094 123.777344 187.980469 124.730469 C 189.910156 124.90625 191.871094 125.144531 193.820312 125.488281 C 193.886719 125.363281 193.984375 125.253906 194.121094 125.1875 L 201.15625 121.835938 C 185.320312 120.496094 159 124.199219 156.628906 124.539062 Z M 195.925781 125.898438 C 199.671875 126.722656 203.285156 128 206.382812 130.042969 L 216.640625 125.484375 C 213.289062 123.628906 209.027344 122.675781 203.710938 122.085938 C 203.644531 122.179688 203.5625 122.261719 203.449219 122.316406 Z M 217.953125 126.453125 L 207.722656 131 C 210.246094 132.960938 212.339844 135.523438 213.777344 138.886719 L 223.636719 133.222656 C 222.25 130.199219 220.417969 127.996094 218.074219 126.367188 C 218.03125 126.394531 218 126.433594 217.953125 126.453125 Z M 224.1875 134.542969 L 214.296875 140.222656 C 215.304688 143.074219 215.859375 146.449219 215.859375 150.457031 L 226.644531 146.304688 C 226.179688 141.480469 225.382812 137.625 224.1875 134.542969 Z M 226.769531 147.777344 L 215.828125 151.988281 C 215.8125 152.441406 215.796875 152.894531 215.765625 153.371094 C 215.53125 157.015625 214.582031 160.273438 213.175781 163.15625 L 223.78125 158.199219 C 225.847656 155.113281 227.054688 151.632812 226.769531 147.777344 Z M 221.914062 160.640625 L 212.035156 165.253906 C 210.6875 167.511719 209.066406 169.519531 207.335938 171.277344 C 212.214844 168.804688 217.9375 165.230469 221.914062 160.640625 Z M 202.265625 176.894531 C 209.5625 176.8125 215.070312 179.144531 218.914062 181.722656 C 218.9375 181.707031 218.953125 181.683594 218.976562 181.671875 L 225.605469 178.148438 C 219.953125 175.601562 212.171875 174.148438 202.265625 176.894531 Z M 227.1875 178.917969 L 220.179688 182.640625 C 222.871094 184.664062 225.242188 187.167969 227.230469 190.039062 L 235.847656 185.554688 C 234.171875 183.761719 232.3125 182.140625 230.285156 180.765625 C 229.351562 180.132812 228.320312 179.507812 227.1875 178.917969 Z M 236.6875 186.71875 L 228.019531 191.226562 C 230.546875 195.207031 232.363281 199.800781 233.332031 204.683594 L 243.449219 198.386719 C 242.019531 194.085938 239.746094 190.0625 236.800781 186.625 C 236.761719 186.65625 236.730469 186.695312 236.6875 186.71875 Z M 247.964844 207.050781 C 249.390625 235.527344 223.246094 253.664062 203.820312 255.808594 C 202.089844 256.265625 200.347656 256.597656 198.601562 256.789062 C 192.359375 257.476562 184.871094 257.722656 177.433594 257.722656 C 159.875 257.722656 142.558594 256.371094 142.3125 256.351562 C 141.578125 256.292969 141.007812 255.679688 141.007812 254.9375 L 141.007812 128.851562 C 141.007812 128.851562 141.011719 128.847656 141.011719 128.84375 C 141.011719 128.816406 141.015625 128.789062 141.015625 128.761719 C 141.023438 128.699219 141.023438 128.636719 141.035156 128.578125 C 141.042969 128.550781 141.050781 128.523438 141.058594 128.5 C 141.074219 128.441406 141.089844 128.378906 141.113281 128.324219 C 141.125 128.296875 141.136719 128.269531 141.152344 128.242188 C 141.175781 128.191406 141.199219 128.140625 141.230469 128.09375 C 141.25 128.066406 141.273438 128.035156 141.292969 128.007812 C 141.324219 127.964844 141.355469 127.925781 141.390625 127.886719 C 141.417969 127.859375 141.441406 127.835938 141.46875 127.808594 C 141.507812 127.777344 141.550781 127.742188 141.589844 127.710938 C 141.621094 127.691406 141.648438 127.671875 141.679688 127.652344 C 141.726562 127.621094 141.777344 127.59375 141.832031 127.570312 C 141.851562 127.5625 141.867188 127.546875 141.890625 127.539062 L 155.714844 121.847656 C 155.820312 121.804688 155.929688 121.773438 156.046875 121.757812 C 157.222656 121.582031 185.019531 117.511719 201.808594 119.039062 C 219.238281 120.621094 227.839844 125.28125 229.59375 147.472656 C 230.519531 159.203125 220.183594 167.550781 210.988281 172.605469 C 220.203125 172.195312 227.1875 175.238281 231.875 178.414062 C 241.234375 184.761719 247.398438 195.734375 247.964844 207.050781 Z M 70.917969 213.140625 L 70.464844 208.515625 L 60.34375 213.140625 Z M 59.972656 210.1875 L 70.171875 205.53125 L 69.390625 197.578125 L 62.316406 201.101562 Z M 62.785156 199.28125 L 69.242188 196.070312 L 67.691406 180.277344 Z M 73.894531 214.417969 C 73.933594 214.816406 73.804688 215.214844 73.535156 215.507812 C 73.265625 215.808594 72.882812 215.976562 72.484375 215.976562 L 57.382812 215.976562 C 56.941406 215.976562 56.527344 215.773438 56.261719 215.425781 C 55.992188 215.082031 55.898438 214.628906 56.007812 214.203125 L 66.949219 171.816406 C 67.117188 171.148438 67.753906 170.710938 68.429688 170.753906 C 69.113281 170.808594 69.660156 171.347656 69.730469 172.03125 Z M 221.835938 232.277344 C 221.464844 232.136719 221.058594 232.320312 220.921875 232.691406 C 220.890625 232.777344 217.421875 241.695312 207.429688 245.761719 C 197.285156 249.886719 182.898438 250.203125 182.757812 250.207031 C 182.363281 250.214844 182.054688 250.535156 182.0625 250.929688 C 182.066406 251.316406 182.382812 251.625 182.769531 251.625 L 182.78125 251.625 C 183.382812 251.613281 197.574219 251.304688 207.964844 247.074219 C 218.523438 242.777344 222.101562 233.578125 222.25 233.191406 C 222.386719 232.824219 222.203125 232.414062 221.835938 232.277344 Z M 297.210938 130.714844 C 297.167969 130.324219 296.808594 130.035156 296.433594 130.082031 C 269.203125 132.984375 263.945312 155.398438 263.894531 155.621094 C 263.8125 156.007812 264.050781 156.382812 264.433594 156.46875 C 264.488281 156.480469 264.539062 156.488281 264.589844 156.488281 C 264.914062 156.488281 265.207031 156.261719 265.28125 155.929688 C 265.328125 155.714844 270.359375 134.292969 296.578125 131.496094 C 296.972656 131.453125 297.25 131.105469 297.210938 130.714844 Z M 123.285156 249.710938 L 122.589844 243.261719 L 111.519531 248.0625 L 112.191406 254.277344 Z M 122.429688 241.78125 L 121.316406 231.421875 L 110.382812 236.460938 C 110.347656 236.480469 110.308594 236.480469 110.273438 236.488281 L 111.359375 246.582031 Z M 110.113281 235.023438 L 121.152344 229.933594 L 119.726562 216.707031 L 108.609375 221.066406 Z M 109.40625 254.890625 L 96.003906 130.566406 L 59.765625 130.566406 L 27.488281 254.890625 L 45.519531 254.890625 L 50.558594 235.398438 C 50.71875 234.769531 51.28125 234.332031 51.929688 234.332031 L 74.546875 234.332031 C 75.277344 234.332031 75.886719 234.886719 75.960938 235.613281 L 77.859375 254.890625 Z M 62.453125 237.171875 L 53.027344 237.171875 L 50.980469 245.078125 L 61.265625 241.769531 Z M 60.847656 243.394531 L 50.5625 246.707031 L 48.699219 253.917969 L 59.25 249.578125 Z M 65.84375 127.726562 L 77.054688 127.726562 C 77.09375 127.515625 77.214844 127.324219 77.421875 127.222656 L 82.101562 124.875 L 72.777344 124.875 Z M 85.269531 124.875 L 79.578125 127.726562 L 89.519531 127.726562 C 89.582031 127.625 89.664062 127.53125 89.78125 127.46875 L 94.816406 124.875 Z M 96.703125 125.496094 L 92.382812 127.726562 L 96.996094 127.726562 L 103.925781 124.875 L 97.082031 124.875 C 97.074219 125.128906 96.945312 125.371094 96.703125 125.496094 Z M 109.894531 125.484375 L 98.796875 130.050781 L 99.890625 140.1875 L 110.902344 134.824219 Z M 111.0625 136.324219 L 100.050781 141.6875 L 101.402344 154.214844 L 112.425781 148.949219 Z M 101.5625 155.710938 L 102.902344 168.125 L 113.960938 163.214844 L 112.585938 150.445312 Z M 114.121094 164.699219 L 103.0625 169.609375 L 104.339844 181.457031 L 115.351562 176.113281 Z M 115.515625 177.613281 L 104.503906 182.957031 L 105.683594 193.910156 L 116.6875 188.480469 Z M 116.847656 189.984375 L 105.84375 195.410156 L 107.199219 207.976562 L 118.371094 204.128906 Z M 118.527344 205.574219 L 107.355469 209.421875 L 108.453125 219.605469 L 119.570312 215.238281 Z M 126.21875 250.464844 C 126.289062 251.09375 125.933594 251.691406 125.347656 251.929688 L 111.519531 257.621094 C 111.472656 257.640625 111.421875 257.652344 111.375 257.667969 C 111.335938 257.675781 111.304688 257.691406 111.269531 257.699219 C 111.175781 257.71875 111.078125 257.730469 110.984375 257.730469 C 110.984375 257.730469 110.980469 257.730469 110.976562 257.730469 L 76.578125 257.730469 C 75.847656 257.730469 75.238281 257.175781 75.167969 256.449219 L 73.265625 237.171875 L 65.382812 237.171875 L 61.816406 250.972656 C 61.703125 251.40625 61.394531 251.761719 60.984375 251.929688 L 47.15625 257.621094 C 47.144531 257.625 47.136719 257.625 47.128906 257.632812 C 47.070312 257.652344 47.007812 257.671875 46.945312 257.683594 C 46.921875 257.691406 46.894531 257.699219 46.871094 257.703125 C 46.804688 257.714844 46.738281 257.722656 46.667969 257.722656 C 46.648438 257.722656 46.636719 257.730469 46.617188 257.730469 C 46.617188 257.730469 46.617188 257.730469 46.613281 257.730469 L 25.65625 257.730469 C 25.21875 257.730469 24.804688 257.527344 24.535156 257.175781 C 24.265625 256.828125 24.171875 256.378906 24.285156 255.953125 L 57.296875 128.789062 C 57.308594 128.742188 57.328125 128.703125 57.339844 128.660156 C 57.351562 128.636719 57.359375 128.609375 57.367188 128.585938 C 57.4375 128.429688 57.535156 128.285156 57.648438 128.160156 C 57.667969 128.140625 57.6875 128.128906 57.707031 128.109375 C 57.753906 128.066406 57.796875 128.027344 57.847656 127.996094 C 57.871094 127.976562 57.894531 127.960938 57.921875 127.945312 C 57.972656 127.914062 58.03125 127.882812 58.085938 127.859375 C 58.101562 127.851562 58.113281 127.839844 58.132812 127.832031 L 71.957031 122.144531 C 72.128906 122.074219 72.308594 122.035156 72.496094 122.035156 L 111.097656 122.035156 C 111.105469 122.035156 111.109375 122.035156 111.109375 122.035156 C 111.121094 122.035156 111.128906 122.039062 111.136719 122.039062 C 111.222656 122.042969 111.304688 122.050781 111.382812 122.066406 C 111.390625 122.066406 111.398438 122.070312 111.410156 122.074219 C 111.488281 122.089844 111.5625 122.113281 111.636719 122.144531 C 111.65625 122.152344 111.671875 122.160156 111.6875 122.171875 C 111.75 122.199219 111.808594 122.230469 111.871094 122.265625 C 111.894531 122.285156 111.917969 122.304688 111.941406 122.320312 C 111.988281 122.355469 112.03125 122.386719 112.074219 122.429688 C 112.097656 122.453125 112.125 122.480469 112.148438 122.507812 C 112.183594 122.546875 112.21875 122.585938 112.246094 122.628906 C 112.269531 122.65625 112.289062 122.691406 112.308594 122.722656 C 112.335938 122.769531 112.363281 122.816406 112.386719 122.867188 C 112.394531 122.882812 112.40625 122.898438 112.410156 122.914062 C 112.417969 122.933594 112.421875 122.953125 112.425781 122.972656 C 112.445312 123.019531 112.460938 123.070312 112.472656 123.121094 C 112.484375 123.164062 112.492188 123.207031 112.5 123.246094 C 112.5 123.265625 112.507812 123.285156 112.507812 123.304688 Z M 105.582031 250.207031 L 85.210938 250.207031 C 84.816406 250.207031 84.5 250.523438 84.5 250.914062 C 84.5 251.308594 84.816406 251.625 85.210938 251.625 L 106.402344 251.625 C 106.609375 251.625 106.804688 251.535156 106.941406 251.378906 C 107.074219 251.222656 107.132812 251.015625 107.105469 250.8125 L 104.890625 235.71875 C 104.832031 235.328125 104.46875 235.058594 104.085938 235.117188 C 103.699219 235.175781 103.429688 235.535156 103.484375 235.921875 Z M 81.472656 134.667969 L 62.015625 134.667969 C 61.699219 134.667969 61.421875 134.875 61.332031 135.183594 L 52.585938 166.097656 C 52.484375 166.472656 52.699219 166.867188 53.078125 166.972656 C 53.140625 166.992188 53.207031 167 53.269531 167 C 53.582031 167 53.863281 166.796875 53.953125 166.484375 L 62.550781 136.085938 L 81.472656 136.085938 C 81.867188 136.085938 82.183594 135.769531 82.183594 135.375 C 82.183594 134.984375 81.867188 134.667969 81.472656 134.667969 Z M 347.539062 211.3125 L 336.550781 215.835938 C 336.464844 217.570312 336.148438 221.488281 335.003906 226.265625 L 345.964844 221.867188 C 347.078125 217.378906 347.429688 213.546875 347.539062 211.3125 Z M 345.511719 223.578125 L 334.574219 227.964844 C 333.542969 231.789062 331.980469 236.03125 329.613281 240.085938 L 340.492188 235.273438 C 342.875 231.351562 344.460938 227.292969 345.511719 223.578125 Z M 339.066406 237.453125 L 328.382812 242.183594 C 328.351562 242.195312 328.320312 242.191406 328.292969 242.203125 C 325.660156 246.136719 322.191406 249.773438 317.628906 252.542969 C 324.488281 250.503906 330.28125 247.144531 334.917969 242.453125 C 336.488281 240.863281 337.859375 239.183594 339.066406 237.453125 Z M 333.71875 216.039062 L 314.980469 212.449219 C 314.738281 214.503906 313.980469 218.050781 311.664062 221.21875 C 311.59375 221.363281 311.496094 221.492188 311.378906 221.601562 C 308.894531 224.789062 304.757812 227.5 297.855469 227.75 C 295.191406 227.851562 292.617188 226.660156 290.261719 224.210938 C 283.082031 216.746094 278.621094 198.160156 279.886719 180.972656 C 280.964844 166.328125 284.597656 155.960938 290.394531 150.988281 C 293.359375 148.441406 296.832031 147.3125 300.71875 147.628906 C 301.410156 147.683594 302.066406 147.792969 302.691406 147.941406 C 302.738281 147.949219 302.785156 147.960938 302.835938 147.976562 C 309.972656 149.765625 312.914062 157.273438 313.671875 162.324219 L 333.746094 158.171875 C 333.625 154.753906 332.660156 144.09375 325.28125 136.316406 C 319.742188 130.46875 311.742188 127.417969 301.515625 127.242188 C 301.023438 127.234375 300.53125 127.230469 300.050781 127.230469 C 286.761719 127.230469 277.125 130.375 270.621094 136.828125 C 262 145.386719 258.238281 159.933594 258.429688 184.003906 C 258.617188 207.503906 259.898438 233.640625 272.824219 246.277344 C 278.925781 252.242188 287.222656 255.058594 298.09375 254.882812 C 330.324219 254.378906 333.421875 222.699219 333.71875 216.039062 Z M 288.574219 125.289062 C 292.5 124.621094 296.816406 124.328125 301.5625 124.40625 C 302.886719 124.429688 304.171875 124.5 305.429688 124.613281 C 305.511719 124.40625 305.675781 124.238281 305.90625 124.179688 L 316.460938 121.59375 C 316.089844 121.578125 315.71875 121.558594 315.339844 121.550781 C 304.988281 121.378906 295.621094 122.742188 288.574219 125.289062 Z M 320.910156 121.960938 L 308.519531 125 C 314.03125 125.878906 318.8125 127.710938 322.820312 130.496094 L 333.90625 126.402344 C 330.238281 124.121094 325.898438 122.632812 320.910156 121.960938 Z M 335.367188 127.375 L 324.183594 131.5 C 325.308594 132.382812 326.371094 133.339844 327.359375 134.386719 C 329.214844 136.34375 330.695312 138.449219 331.882812 140.578125 L 343.671875 137.148438 C 343.675781 137.148438 343.679688 137.148438 343.683594 137.148438 C 342.53125 134.898438 341.042969 132.664062 339.109375 130.625 C 337.96875 129.421875 336.714844 128.339844 335.367188 127.375 Z M 344.070312 138.511719 L 332.554688 141.855469 C 333.957031 144.644531 334.875 147.421875 335.476562 149.921875 L 346.949219 146.957031 C 346.480469 144.429688 345.675781 141.429688 344.289062 138.398438 C 344.222656 138.445312 344.152344 138.488281 344.070312 138.511719 Z M 347.183594 148.359375 L 335.785156 151.308594 C 336.273438 153.714844 336.476562 155.785156 336.550781 157.226562 L 347.578125 152.6875 C 347.550781 151.789062 347.464844 150.265625 347.183594 148.359375 Z M 300.027344 150.4375 C 297.125 150.3125 294.492188 151.210938 292.238281 153.140625 C 289.457031 155.527344 287.226562 159.421875 285.589844 164.632812 L 295.703125 161.714844 C 296.78125 157.230469 298.222656 153.464844 300.027344 150.4375 Z M 282.878906 194.519531 C 283.261719 198.632812 283.941406 202.632812 284.863281 206.316406 L 295.882812 202.398438 C 296.015625 202.351562 296.148438 202.359375 296.277344 202.386719 C 295.25 198.578125 294.492188 194.457031 294.027344 190.25 Z M 293.851562 173.589844 C 294.183594 169.84375 294.683594 166.410156 295.34375 163.296875 L 285.113281 166.246094 C 284.191406 169.582031 283.496094 173.402344 283.039062 177.675781 Z M 282.878906 179.25 C 282.820312 179.886719 282.757812 180.523438 282.714844 181.179688 C 282.425781 185.089844 282.453125 189.109375 282.753906 193.046875 L 293.695312 188.859375 C 293.757812 188.835938 293.820312 188.832031 293.882812 188.828125 C 293.460938 184.285156 293.390625 179.675781 293.710938 175.28125 C 293.714844 175.238281 293.71875 175.199219 293.722656 175.15625 Z M 285.226562 207.691406 C 286.433594 212.117188 288 216.011719 289.835938 218.984375 L 301.523438 215.089844 C 299.554688 211.980469 297.898438 208.019531 296.609375 203.578125 C 296.539062 203.644531 296.457031 203.703125 296.355469 203.734375 Z M 302.351562 216.3125 L 290.644531 220.210938 C 291.179688 220.964844 291.734375 221.648438 292.300781 222.242188 C 294.078125 224.082031 295.929688 224.992188 297.753906 224.914062 C 302.507812 224.742188 305.703125 223.230469 307.851562 221.257812 C 305.839844 220.324219 303.996094 218.613281 302.351562 216.3125 Z M 318.621094 210.257812 L 325.730469 211.621094 C 325.742188 211.613281 325.75 211.605469 325.761719 211.601562 L 334.742188 207.894531 L 327.65625 206.539062 Z M 337.289062 208.382812 L 328.261719 212.105469 L 335.019531 213.398438 L 344.054688 209.679688 Z M 350.410156 209.128906 C 350.441406 209.980469 351 230.199219 336.957031 244.429688 C 328.226562 253.269531 315.84375 257.746094 300.121094 257.746094 C 299.460938 257.746094 298.800781 257.738281 298.132812 257.722656 C 297.804688 257.726562 297.480469 257.730469 297.15625 257.730469 C 285.9375 257.730469 277.324219 254.644531 270.84375 248.308594 C 257.136719 234.910156 255.796875 209.207031 255.59375 184.023438 C 255.394531 159.128906 259.414062 143.949219 268.625 134.8125 C 270.972656 132.488281 273.675781 130.558594 276.75 129.019531 C 284.636719 121.078125 301.835938 118.476562 315.386719 118.714844 C 326.417969 118.898438 335.097656 122.257812 341.1875 128.695312 C 350.71875 138.769531 350.449219 152.679688 350.414062 153.648438 C 350.414062 153.648438 350.414062 153.652344 350.414062 153.65625 C 350.414062 153.667969 350.414062 153.683594 350.414062 153.6875 C 350.410156 153.71875 350.40625 153.75 350.402344 153.777344 C 350.398438 153.832031 350.390625 153.894531 350.378906 153.949219 C 350.371094 153.988281 350.355469 154.027344 350.34375 154.066406 C 350.328125 154.113281 350.316406 154.160156 350.296875 154.207031 C 350.277344 154.246094 350.257812 154.277344 350.234375 154.316406 C 350.210938 154.359375 350.191406 154.402344 350.164062 154.441406 C 350.140625 154.472656 350.113281 154.503906 350.089844 154.535156 C 350.054688 154.574219 350.023438 154.613281 349.988281 154.648438 C 349.957031 154.679688 349.925781 154.703125 349.894531 154.730469 C 349.855469 154.761719 349.820312 154.792969 349.777344 154.820312 C 349.703125 154.867188 349.625 154.910156 349.542969 154.945312 C 349.539062 154.949219 349.535156 154.949219 349.535156 154.949219 L 335.710938 160.640625 C 335.707031 160.640625 335.707031 160.640625 335.707031 160.640625 C 335.625 160.671875 335.542969 160.703125 335.457031 160.71875 L 335.445312 160.722656 C 335.445312 160.722656 335.441406 160.722656 335.441406 160.722656 L 312.722656 165.421875 C 312.324219 165.503906 311.90625 165.410156 311.578125 165.160156 C 311.253906 164.914062 311.050781 164.53125 311.019531 164.125 C 310.988281 163.648438 310.203125 153.515625 303.027344 150.988281 C 299.574219 156.234375 297.335938 164.667969 296.539062 175.488281 C 295.085938 195.230469 301.691406 216.507812 309.796875 218.984375 C 312.28125 215.253906 312.269531 211.089844 312.261719 210.785156 C 312.261719 210.777344 312.265625 210.769531 312.265625 210.765625 C 312.261719 210.5625 312.304688 210.367188 312.386719 210.1875 C 312.398438 210.164062 312.410156 210.144531 312.417969 210.125 C 312.453125 210.054688 312.492188 209.992188 312.535156 209.929688 C 312.554688 209.90625 312.570312 209.882812 312.59375 209.859375 C 312.636719 209.804688 312.683594 209.753906 312.738281 209.703125 C 312.75 209.695312 312.757812 209.683594 312.769531 209.671875 C 312.78125 209.660156 312.796875 209.652344 312.8125 209.644531 C 312.867188 209.601562 312.921875 209.566406 312.984375 209.527344 C 313.015625 209.511719 313.046875 209.496094 313.078125 209.480469 C 313.101562 209.46875 313.121094 209.457031 313.144531 209.445312 L 326.945312 203.765625 C 326.949219 203.765625 326.949219 203.765625 326.949219 203.761719 L 326.96875 203.753906 C 326.996094 203.746094 327.023438 203.738281 327.050781 203.730469 C 327.109375 203.710938 327.164062 203.691406 327.226562 203.675781 C 327.273438 203.667969 327.316406 203.667969 327.359375 203.660156 C 327.410156 203.65625 327.453125 203.652344 327.503906 203.652344 C 327.554688 203.652344 327.597656 203.65625 327.644531 203.660156 C 327.6875 203.664062 327.730469 203.664062 327.773438 203.671875 L 349.257812 207.785156 C 349.265625 207.789062 349.269531 207.792969 349.277344 207.792969 C 349.28125 207.792969 349.285156 207.792969 349.289062 207.792969 C 349.371094 207.8125 349.449219 207.835938 349.527344 207.867188 C 349.542969 207.875 349.558594 207.886719 349.574219 207.890625 C 349.636719 207.917969 349.695312 207.949219 349.753906 207.988281 C 349.773438 208 349.796875 208.015625 349.816406 208.03125 C 349.863281 208.066406 349.910156 208.101562 349.953125 208.144531 C 349.976562 208.164062 350 208.183594 350.019531 208.207031 C 350.058594 208.25 350.09375 208.292969 350.128906 208.339844 C 350.144531 208.363281 350.164062 208.390625 350.183594 208.414062 C 350.21875 208.472656 350.253906 208.535156 350.28125 208.597656 C 350.289062 208.613281 350.296875 208.625 350.304688 208.640625 C 350.304688 208.644531 350.308594 208.648438 350.308594 208.648438 C 350.339844 208.730469 350.363281 208.816406 350.378906 208.898438 C 350.386719 208.933594 350.390625 208.96875 350.394531 209 C 350.398438 209.042969 350.410156 209.085938 350.410156 209.128906 Z M 147.929688 145.824219 C 147.539062 145.824219 147.21875 146.140625 147.21875 146.535156 L 147.21875 225.644531 C 147.21875 226.035156 147.539062 226.355469 147.929688 226.355469 C 148.320312 226.355469 148.636719 226.035156 148.636719 225.644531 L 148.636719 146.535156 C 148.636719 146.140625 148.320312 145.824219 147.929688 145.824219 Z M 182.640625 149.585938 C 178.585938 148.03125 172.265625 148.542969 168.871094 149.089844 L 168.871094 156.910156 L 182.515625 151.675781 C 182.558594 151.660156 182.597656 151.664062 182.640625 151.65625 Z M 182.640625 153.148438 L 168.871094 158.429688 L 168.871094 164.675781 C 171.742188 164.542969 178.378906 163.929688 182.640625 161.113281 Z M 185.472656 158.261719 C 186.113281 157.171875 186.4375 155.960938 186.4375 154.59375 C 186.4375 153.359375 186.117188 152.34375 185.472656 151.507812 Z M 184.824219 163.046875 C 178.921875 167.382812 169.035156 167.546875 167.59375 167.546875 C 167.511719 167.546875 167.460938 167.546875 167.433594 167.546875 C 166.660156 167.539062 166.035156 166.90625 166.035156 166.128906 L 166.035156 147.90625 C 166.035156 147.230469 166.507812 146.648438 167.171875 146.515625 C 167.667969 146.414062 178.289062 144.308594 184.597656 147.339844 C 184.605469 147.34375 184.617188 147.347656 184.625 147.351562 C 185.304688 147.679688 185.9375 148.070312 186.5 148.53125 C 188.339844 150.035156 189.273438 152.074219 189.273438 154.59375 C 189.273438 157.417969 188.25 159.855469 186.242188 161.847656 C 185.828125 162.257812 185.378906 162.632812 184.90625 162.984375 C 184.875 163.003906 184.851562 163.023438 184.824219 163.046875 Z M 196.21875 222.933594 C 198.117188 220.867188 198.875 218.429688 198.539062 215.476562 C 198.039062 211.121094 196.222656 207.882812 193.144531 205.84375 C 190.914062 204.371094 188.21875 203.621094 185.472656 203.304688 L 185.472656 224.191406 C 187.546875 224.109375 191.542969 223.914062 195.59375 223.5625 C 195.8125 223.355469 196.019531 223.148438 196.21875 222.933594 Z M 190.296875 226.789062 C 187.394531 226.960938 185.097656 227.050781 184.359375 227.074219 L 178.367188 229.542969 C 182.097656 229.140625 186.527344 228.34375 190.296875 226.789062 Z M 171.648438 229.238281 L 182.640625 224.714844 L 182.640625 206.542969 L 171.648438 212.03125 L 171.648438 224.1875 L 181.582031 219.003906 C 181.929688 218.820312 182.359375 218.953125 182.539062 219.304688 C 182.722656 219.648438 182.585938 220.078125 182.238281 220.257812 L 171.648438 225.785156 Z M 171.648438 210.445312 L 182.640625 204.957031 L 182.640625 203.121094 C 177.953125 203.039062 173.566406 203.960938 171.648438 204.429688 Z M 197.066406 226.042969 C 189.734375 232.320312 175.324219 232.785156 171.253906 232.785156 C 170.714844 232.785156 170.367188 232.777344 170.230469 232.773438 C 170.21875 232.773438 170.195312 232.773438 170.1875 232.773438 C 170.074219 232.769531 169.960938 232.75 169.855469 232.71875 C 169.828125 232.710938 169.800781 232.703125 169.777344 232.691406 C 169.675781 232.660156 169.578125 232.613281 169.488281 232.558594 C 169.472656 232.546875 169.457031 232.539062 169.4375 232.527344 C 169.339844 232.464844 169.25 232.378906 169.171875 232.289062 C 169.148438 232.269531 169.136719 232.246094 169.117188 232.226562 C 168.984375 232.050781 168.882812 231.851562 168.839844 231.628906 C 168.832031 231.570312 168.828125 231.511719 168.824219 231.453125 C 168.820312 231.421875 168.8125 231.390625 168.8125 231.355469 L 168.8125 203.335938 C 168.8125 202.710938 169.222656 202.15625 169.824219 201.976562 C 170.460938 201.785156 185.503906 197.394531 194.703125 203.472656 C 198.519531 205.992188 200.753906 209.925781 201.351562 215.15625 C 201.78125 218.921875 200.757812 222.1875 198.304688 224.855469 C 197.933594 225.261719 197.53125 225.636719 197.109375 226.003906 C 197.097656 226.015625 197.082031 226.03125 197.066406 226.042969 Z M 317.734375 218.503906 C 311.753906 232.15625 301.070312 233.804688 296.269531 233.804688 C 294.777344 233.804688 293.859375 233.644531 293.820312 233.640625 C 293.433594 233.566406 293.183594 233.199219 293.253906 232.8125 C 293.320312 232.425781 293.699219 232.171875 294.078125 232.242188 C 294.683594 232.351562 309.0625 234.773438 316.433594 217.933594 C 316.59375 217.574219 317.011719 217.414062 317.367188 217.566406 C 317.726562 217.726562 317.890625 218.144531 317.734375 218.503906 " fill-opacity="1" fill-rule="nonzero"/></g></svg>