<svg xmlns="http://www.w3.org/2000/svg" xmlns:xlink="http://www.w3.org/1999/xlink" width="500" zoomAndPan="magnify" viewBox="0 0 375 374.999991" height="500" preserveAspectRatio="xMidYMid meet" version="1.0"><defs><clipPath id="f69c282132"><path d="M 167 111 L 360.570312 111 L 360.570312 298 L 167 298 Z M 167 111 " clip-rule="nonzero"/></clipPath></defs><g clip-path="url(#f69c282132)"><path fill="#333333" d="M 360.339844 204.339844 C 360.339844 219.027344 359.140625 232.941406 356.742188 246.089844 C 354.34375 259.171875 351.246094 270.417969 347.445312 279.828125 C 345.046875 285.703125 342.683594 290.074219 340.351562 292.945312 C 338.019531 295.816406 334.921875 297.25 331.058594 297.25 C 326.992188 297.25 323.597656 296.046875 320.863281 293.644531 C 318.199219 291.242188 316.867188 288.074219 316.867188 284.132812 C 316.867188 283.265625 317.867188 279.664062 319.863281 273.320312 C 321.863281 267.046875 323.695312 260.875 325.359375 254.800781 C 327.027344 248.726562 328.558594 241.316406 329.957031 232.574219 C 331.355469 223.832031 332.058594 214.421875 332.058594 204.339844 C 332.058594 192.261719 330.992188 180.847656 328.859375 170.101562 C 326.726562 159.289062 324.195312 149.210938 321.265625 139.867188 C 318.332031 130.523438 316.867188 125.449219 316.867188 124.648438 C 316.867188 120.710938 318.199219 117.574219 320.863281 115.238281 C 323.527344 112.902344 326.925781 111.734375 331.058594 111.734375 C 334.988281 111.734375 338.121094 113.167969 340.453125 116.039062 C 342.78125 118.84375 345.113281 123.214844 347.445312 129.15625 C 351.242188 138.433594 354.34375 149.644531 356.742188 162.792969 C 359.140625 175.941406 360.339844 189.792969 360.339844 204.339844 Z M 217.632812 233.675781 L 244.816406 204.339844 L 228.324219 186.519531 C 224.328125 182.25 221.628906 179.347656 220.230469 177.8125 C 218.898438 176.210938 217.867188 174.640625 217.132812 173.105469 C 216.402344 171.503906 216.035156 169.703125 216.035156 167.699219 C 216.035156 162.894531 217.601562 158.921875 220.730469 155.785156 C 223.863281 152.648438 227.394531 151.078125 231.324219 151.078125 C 235.121094 151.078125 238.121094 151.613281 240.316406 152.683594 C 242.515625 153.75 244.78125 155.820312 247.113281 158.890625 L 264.101562 180.214844 L 281.089844 158.890625 C 283.554688 155.820312 285.855469 153.75 287.984375 152.683594 C 290.117188 151.613281 293.082031 151.078125 296.878906 151.078125 C 300.8125 151.078125 304.34375 152.613281 307.472656 155.683594 C 310.605469 158.753906 312.171875 162.761719 312.171875 167.699219 C 312.171875 169.703125 311.804688 171.503906 311.070312 173.105469 C 310.339844 174.640625 309.273438 176.210938 307.871094 177.8125 C 306.539062 179.347656 303.875 182.25 299.878906 186.519531 L 283.390625 204.339844 L 310.570312 233.675781 C 312.304688 235.542969 313.769531 237.582031 314.96875 239.78125 C 316.234375 241.917969 316.867188 244.457031 316.867188 247.390625 C 316.867188 252.265625 315.300781 256.203125 312.171875 259.207031 C 309.039062 262.140625 305.175781 263.609375 300.578125 263.609375 C 297.578125 263.609375 295.113281 262.976562 293.183594 261.707031 C 291.316406 260.441406 289.050781 258.339844 286.386719 255.402344 L 264.101562 228.96875 L 241.816406 255.402344 C 239.484375 258.070312 237.285156 260.105469 235.222656 261.507812 C 233.15625 262.910156 230.625 263.609375 227.625 263.609375 C 223.03125 263.609375 219.164062 262.140625 216.035156 259.207031 C 212.902344 256.203125 211.335938 252.265625 211.335938 247.390625 C 211.335938 244.523438 211.871094 242.085938 212.9375 240.082031 C 214.070312 238.082031 215.632812 235.945312 217.632812 233.675781 Z M 167.964844 204.339844 C 167.964844 194.929688 168.53125 185.453125 169.664062 175.910156 C 170.796875 166.363281 172.328125 157.6875 174.261719 149.878906 C 176.261719 142.070312 178.457031 135.160156 180.855469 129.15625 C 183.457031 122.949219 185.855469 118.507812 188.050781 115.839844 C 190.25 113.101562 193.316406 111.734375 197.246094 111.734375 C 201.445312 111.734375 204.839844 112.902344 207.441406 115.238281 C 210.039062 117.574219 211.335938 120.710938 211.335938 124.648438 C 211.335938 125.449219 209.871094 130.523438 206.941406 139.867188 C 204.007812 149.210938 201.476562 159.289062 199.34375 170.101562 C 197.214844 180.847656 196.148438 192.261719 196.148438 204.34375 C 196.148438 213.753906 196.847656 222.996094 198.246094 232.074219 C 199.644531 241.152344 201.175781 248.726562 202.84375 254.800781 C 204.507812 260.875 206.339844 266.980469 208.339844 273.121094 C 210.335938 279.261719 211.335938 282.933594 211.335938 284.132812 C 211.335938 288.074219 210.003906 291.242188 207.339844 293.644531 C 204.675781 296.046875 201.308594 297.25 197.246094 297.25 C 193.382812 297.25 190.351562 295.882812 188.152344 293.144531 C 185.953125 290.476562 183.523438 286.035156 180.855469 279.828125 C 178.992188 274.957031 177.292969 269.851562 175.761719 264.511719 C 174.296875 259.238281 172.929688 253.230469 171.664062 246.492188 C 170.464844 239.683594 169.53125 232.707031 168.863281 225.566406 C 168.265625 218.359375 167.964844 211.285156 167.964844 204.34375 Z M 167.964844 204.339844 " fill-opacity="1" fill-rule="nonzero"/></g><path stroke-linecap="round" transform="matrix(6.369485, 0, 0, 6.381128, -4.401956, -1.929565)" fill="none" stroke-linejoin="round" d="M 21.692112 14.367298 C 10.049074 17.666211 16.652826 41.780287 5.667219 45.005128 " stroke="#333333" stroke-width="5" stroke-opacity="1" stroke-miterlimit="4"/><path stroke-linecap="round" transform="matrix(6.369485, 0, 0, 6.381128, -4.401956, -1.929565)" fill="none" stroke-linejoin="round" d="M 6.684644 26.620226 L 23.088541 26.620226 " stroke="#333333" stroke-width="5" stroke-opacity="1" stroke-miterlimit="4"/></svg>