<svg xmlns="http://www.w3.org/2000/svg" xmlns:xlink="http://www.w3.org/1999/xlink" width="500" zoomAndPan="magnify" viewBox="0 0 375 374.999991" height="500" preserveAspectRatio="xMidYMid meet" version="1.0"><path fill="#000000" d="M 196.609375 52.332031 C 194.09375 52.664062 191.113281 54.625 189.550781 56.976562 C 185.742188 62.714844 186.640625 72.925781 191.589844 80.078125 C 192.511719 81.410156 192.695312 81.828125 192.519531 82.175781 C 190.761719 85.601562 188.71875 94.460938 188.839844 98.160156 C 188.863281 98.921875 188.855469 99.546875 188.820312 99.546875 C 188.28125 99.546875 185.214844 95.625 183.683594 92.972656 C 179.703125 86.074219 178.113281 80.152344 177.523438 70.03125 C 177.171875 63.992188 176.800781 62.261719 175.414062 60.175781 C 171.605469 54.449219 159.511719 53.78125 155.0625 59.050781 C 152.042969 62.632812 151.164062 70.773438 152.886719 79.21875 C 153.054688 80.039062 153.277344 81.714844 153.453125 83.496094 C 153.761719 86.585938 153.761719 86.578125 153.332031 86.582031 C 153.082031 86.585938 150.792969 87.109375 149.925781 87.363281 L 149.15625 87.585938 L 149.054688 87.203125 C 148.867188 86.480469 146.589844 82.882812 143.480469 78.378906 C 136.957031 68.9375 133.140625 65.726562 128.785156 66.003906 C 123.429688 66.34375 116.46875 73.730469 117.230469 78.265625 C 117.550781 80.160156 118.140625 81.109375 122.425781 86.597656 C 124.160156 88.820312 124.070312 88.65625 123.5 88.488281 C 118.867188 87.113281 109.53125 86.746094 104.601562 87.746094 C 95.683594 89.554688 91.554688 97.183594 95.425781 104.710938 C 98.628906 110.941406 104.949219 112.984375 117.707031 111.90625 C 118.449219 111.84375 119.070312 111.800781 119.082031 111.808594 C 119.09375 111.816406 118.804688 112.34375 118.441406 112.980469 C 115 118.980469 112.710938 125.820312 111.820312 132.742188 C 111.71875 133.539062 111.511719 134.859375 111.359375 135.679688 C 110.960938 137.859375 110.757812 139.15625 110.285156 142.671875 C 109.773438 146.464844 109.570312 147.5625 108.789062 150.625 C 108.457031 151.921875 108.1875 153.085938 108.1875 153.210938 C 108.1875 153.335938 108.070312 153.574219 107.925781 153.746094 C 104.078125 158.242188 99.695312 166.996094 97.410156 174.742188 C 92.53125 191.28125 94.339844 208.886719 102.613281 225.394531 C 103.171875 226.507812 103.738281 227.871094 104.488281 229.917969 C 105.894531 233.753906 106.441406 235.0625 107.589844 237.371094 C 108.53125 239.265625 108.539062 239.289062 108.652344 240.261719 C 109.945312 251.691406 120.671875 273.066406 132.953125 288.703125 C 142.539062 300.914062 155.15625 312.351562 164.726562 317.507812 C 173.757812 322.375 182.957031 323.246094 190.414062 319.945312 C 200.34375 315.542969 217.238281 297.53125 231.164062 276.496094 C 245.792969 254.390625 252.574219 240.878906 255.121094 228.746094 C 256.777344 220.867188 257.105469 211.550781 255.988281 204.125 C 255.746094 202.511719 255.707031 198.816406 255.910156 196.527344 C 256.636719 188.304688 258.890625 184.117188 263.898438 181.695312 C 265.671875 180.835938 265.855469 180.808594 269.449219 180.839844 C 274.609375 180.882812 276.582031 180.585938 278.789062 179.449219 C 282.234375 177.671875 283.539062 173.664062 282.089844 169.289062 C 279.738281 162.179688 270.5625 159.40625 260.382812 162.730469 C 256.871094 163.878906 254.042969 165.433594 251.628906 167.546875 C 251.050781 168.054688 251.007812 168.070312 250.921875 167.78125 C 250.882812 167.667969 250.464844 166.792969 249.988281 165.835938 L 249.125 164.101562 L 251.097656 164.046875 C 259.8125 163.804688 266.214844 160.921875 268.609375 156.164062 C 271.152344 151.109375 269.316406 144.574219 264.769531 142.496094 C 260.992188 140.769531 257.0625 141.914062 248.777344 147.152344 C 243.539062 150.464844 241.90625 151.101562 239.59375 150.742188 C 238.601562 150.585938 238.597656 150.59375 239.75 149.894531 C 240.296875 149.566406 241.1875 148.984375 241.730469 148.605469 C 242.269531 148.226562 243.363281 147.496094 244.160156 146.984375 C 251.734375 142.105469 256.082031 136.292969 257.679688 128.90625 C 259.390625 120.996094 257.441406 114.339844 252.417969 110.953125 C 247.324219 107.515625 239.253906 107.085938 231.019531 109.8125 L 229.59375 110.285156 L 228.796875 109.53125 C 224.8125 105.761719 218.613281 102.898438 210.71875 101.179688 C 210.558594 101.144531 210.472656 101.078125 210.5 101.011719 C 210.699219 100.5625 211.289062 99.09375 211.734375 97.960938 C 213.324219 93.886719 214.984375 91.554688 220.40625 85.789062 C 225.453125 80.425781 227.058594 78.320312 228.371094 75.335938 C 231.140625 69.050781 229.234375 64.113281 222.042969 58.929688 C 216.726562 55.101562 214.214844 54.40625 211.726562 56.074219 C 209.851562 57.335938 208.425781 59.539062 205.800781 65.253906 C 205.472656 65.957031 205.179688 66.535156 205.144531 66.535156 C 205.0625 66.535156 204.914062 65.511719 204.726562 63.597656 C 203.90625 55.339844 201.296875 51.714844 196.609375 52.332031 M 198.058594 55.605469 C 198.058594 55.644531 197.878906 55.726562 197.660156 55.785156 C 197.441406 55.84375 197.179688 55.917969 197.078125 55.949219 C 196.976562 55.980469 197.078125 55.902344 197.3125 55.773438 C 197.730469 55.539062 198.058594 55.464844 198.058594 55.605469 M 199.570312 57.21875 C 199.535156 57.25 199.355469 57.324219 199.175781 57.382812 L 198.851562 57.488281 L 199.175781 57.214844 C 199.449219 56.988281 199.832031 56.988281 199.570312 57.21875 M 214.367188 58.46875 C 214.386719 58.699219 214.382812 58.703125 214.148438 58.546875 C 213.96875 58.429688 213.941406 58.375 214.035156 58.316406 C 214.246094 58.179688 214.347656 58.226562 214.367188 58.46875 M 200.421875 59.238281 C 200.699219 60.273438 200.953125 61.773438 201.234375 64.0625 C 201.652344 67.472656 202.222656 69.15625 203.285156 70.117188 C 204.976562 71.644531 206.988281 70.679688 207.953125 67.875 C 208.054688 67.585938 208.425781 66.863281 208.777344 66.265625 C 209.128906 65.667969 209.871094 64.324219 210.425781 63.273438 C 211.496094 61.242188 211.96875 60.425781 212.5 59.695312 L 212.828125 59.246094 L 213.246094 59.683594 C 213.476562 59.921875 214.292969 60.53125 215.058594 61.039062 C 216.578125 62.046875 218.984375 63.910156 218.910156 64.023438 C 218.886719 64.0625 218.824219 64.414062 218.777344 64.800781 C 218.628906 65.957031 218.347656 66.472656 217.03125 68.007812 C 210.957031 75.089844 207.679688 80.53125 206.207031 85.976562 C 205.730469 87.738281 205.722656 87.84375 206.0625 87.960938 C 206.34375 88.058594 207.203125 87.863281 207.203125 87.703125 C 207.203125 87.664062 207.351562 87.46875 207.539062 87.269531 C 208.167969 86.589844 209.070312 85.113281 211.328125 81.082031 C 212.894531 78.285156 214.027344 76.484375 214.824219 75.53125 C 215.210938 75.070312 216.164062 73.917969 216.949219 72.96875 C 219.664062 69.675781 220.769531 68.75 222.855469 68.015625 L 223.65625 67.730469 L 223.898438 67.914062 C 224.03125 68.015625 224.136719 68.160156 224.128906 68.238281 C 224.097656 68.625 218.988281 76.132812 216.148438 79.964844 C 209.085938 89.488281 206.460938 94.804688 206.457031 99.582031 L 206.457031 100.5 L 206.105469 100.445312 C 205.335938 100.324219 202.144531 100.179688 201.136719 100.21875 L 200.0625 100.261719 L 200.125 96.757812 C 200.207031 92.105469 200.476562 89.773438 201.367188 86.023438 C 202.515625 81.203125 202.410156 77.214844 201.121094 76.421875 C 200.367188 75.957031 200.222656 76.25 199.746094 79.125 C 199.199219 82.445312 198.972656 83.230469 197.410156 87.308594 C 194.566406 94.734375 193.574219 98.859375 194.148438 100.839844 C 194.179688 100.949219 192.976562 101.292969 192.488281 101.3125 C 192.371094 101.316406 192.386719 100.621094 192.558594 98.144531 C 192.75 95.410156 193.507812 91.078125 194.285156 88.261719 C 195.242188 84.816406 195.433594 84.058594 195.59375 83.109375 C 195.890625 81.324219 195.609375 80.171875 194.359375 78.089844 C 192.015625 74.183594 191.035156 70.558594 191.027344 65.789062 C 191.023438 62.898438 191.34375 61.03125 191.84375 61.03125 C 192.121094 61.03125 192.695312 60.84375 194.976562 60.003906 C 196.457031 59.460938 199.84375 58.339844 200.027344 58.332031 C 200.140625 58.328125 200.238281 58.558594 200.421875 59.238281 M 158.253906 61.964844 C 158.410156 62.003906 158.460938 62.042969 158.371094 62.046875 C 158.277344 62.054688 157.949219 62.160156 157.636719 62.289062 L 157.070312 62.519531 L 157.203125 62.3125 C 157.277344 62.199219 157.367188 62.050781 157.402344 61.988281 C 157.476562 61.863281 157.8125 61.851562 158.253906 61.964844 M 172.835938 63.246094 C 173.394531 64.5 173.699219 66.167969 173.929688 69.261719 C 174.007812 70.328125 174.136719 72.058594 174.21875 73.117188 C 175.179688 85.960938 180.355469 97.15625 187.679688 102.242188 L 187.988281 102.453125 L 186.089844 103.089844 C 184.605469 103.589844 181.957031 104.578125 181.203125 104.917969 C 181.136719 104.945312 181.054688 104.742188 180.984375 104.375 C 180.609375 102.421875 179.816406 100.582031 177.621094 96.5625 C 175.789062 93.210938 174.980469 91.464844 174.132812 89.03125 C 173.316406 86.675781 172.230469 82.292969 171.972656 80.308594 C 171.949219 80.144531 171.808594 79.210938 171.65625 78.238281 C 171.378906 76.464844 171.15625 74.839844 170.621094 70.730469 C 170.039062 66.265625 169.914062 65.8125 169.328125 65.96875 C 167.945312 66.335938 168.308594 77.625 169.925781 84.609375 C 170 84.933594 170.1875 85.921875 170.335938 86.800781 C 171.003906 90.664062 171.621094 92.839844 174.011719 99.746094 C 174.5625 101.335938 175.113281 103.171875 175.460938 104.546875 C 175.765625 105.769531 176.058594 106.875 176.105469 107.003906 C 176.1875 107.222656 176.144531 107.257812 174.875 107.941406 C 173.496094 108.683594 171.976562 109.582031 171.050781 110.203125 C 170.617188 110.496094 170.507812 110.539062 170.546875 110.398438 C 170.574219 110.300781 170.746094 109.71875 170.925781 109.101562 C 172.445312 103.921875 172.71875 98.425781 171.628906 94.976562 C 170.6875 92.007812 168.367188 89.242188 165.921875 88.179688 C 165.675781 88.074219 165.355469 87.886719 165.214844 87.769531 C 164.125 86.851562 161.304688 86.117188 158.878906 86.117188 L 157.96875 86.117188 L 157.808594 85.023438 C 157.722656 84.417969 157.441406 82.960938 157.183594 81.78125 C 155.605469 74.519531 155.300781 68.867188 156.257812 64.75 L 156.445312 63.945312 L 156.976562 63.707031 C 158.367188 63.085938 158.683594 63.050781 162.082031 63.140625 C 167.15625 63.277344 169.769531 63.175781 171.832031 62.761719 C 172.167969 62.695312 172.464844 62.636719 172.496094 62.628906 C 172.527344 62.621094 172.679688 62.902344 172.835938 63.246094 M 225.21875 69.046875 C 225.394531 69.199219 225.640625 69.324219 225.765625 69.328125 L 225.988281 69.332031 L 225.9375 70.378906 C 225.769531 73.796875 223.917969 76.664062 217.84375 82.902344 C 216.789062 83.980469 215.535156 85.304688 215.050781 85.839844 C 213.800781 87.234375 213.75 87.273438 214.300781 86.445312 C 216.53125 83.082031 218.117188 81.023438 220.617188 78.257812 C 221.347656 77.445312 221.949219 76.746094 221.949219 76.703125 C 221.949219 76.328125 220.988281 76.835938 219.804688 77.839844 L 219.0625 78.464844 L 219.605469 77.691406 C 221.265625 75.320312 223.546875 71.480469 224.421875 69.589844 C 224.851562 68.65625 224.800781 68.691406 225.21875 69.046875 M 131.230469 71.320312 C 133.605469 72.648438 138.167969 78.457031 143.699219 87.191406 C 144.152344 87.90625 144.625 88.628906 144.75 88.792969 L 144.972656 89.089844 L 144.195312 89.4375 C 141.269531 90.75 137.503906 92.957031 135.027344 94.816406 L 134.472656 95.230469 L 133.902344 94.285156 C 132.914062 92.660156 129.667969 88.28125 125.078125 82.386719 C 124.019531 81.027344 122.988281 79.667969 122.78125 79.367188 L 122.410156 78.820312 L 126.222656 75.035156 C 128.316406 72.957031 130.054688 71.15625 130.085938 71.035156 C 130.152344 70.761719 130.292969 70.796875 131.230469 71.320312 M 131.226562 73.226562 C 130.875 74.152344 132.296875 77.722656 133.019531 77.722656 C 133.222656 77.722656 133.230469 77.648438 133.105469 76.792969 C 132.757812 74.386719 131.613281 72.214844 131.226562 73.226562 M 133.589844 75.503906 C 132.964844 76.128906 135.046875 81.453125 135.914062 81.453125 C 136.195312 81.453125 136.140625 80.648438 135.773438 79.300781 C 134.992188 76.460938 134.132812 74.964844 133.589844 75.503906 M 136.992188 80.304688 C 136.460938 80.835938 138.351562 84.992188 139.363281 85.515625 C 139.996094 85.839844 140.070312 85.449219 139.625 84.132812 C 138.671875 81.34375 137.566406 79.730469 136.992188 80.304688 M 140.617188 84.71875 C 140.351562 85.148438 142.347656 88.449219 142.875 88.449219 C 143.339844 88.449219 142.277344 85.882812 141.453125 85.027344 C 141.085938 84.640625 140.742188 84.515625 140.617188 84.71875 M 161.066406 90.878906 C 158.164062 94.542969 157.3125 99.59375 158.070312 108.589844 C 158.582031 114.652344 159.125 116.933594 160.367188 118.25 C 160.625 118.515625 160.796875 118.75 160.753906 118.769531 C 160.410156 118.914062 157.203125 122.777344 155.808594 124.722656 C 151.257812 131.078125 147.960938 139.089844 146.914062 146.335938 L 146.800781 147.105469 L 146.132812 146.476562 C 144.042969 144.496094 139.269531 142.179688 136.046875 141.589844 L 135.433594 141.476562 L 135.484375 141.050781 C 135.511719 140.8125 135.59375 140.078125 135.667969 139.410156 C 135.921875 137.140625 136.792969 134.972656 138.046875 133.492188 C 138.417969 133.058594 138.785156 132.578125 138.863281 132.421875 C 138.945312 132.265625 139.171875 131.941406 139.371094 131.703125 C 139.839844 131.136719 140.011719 130.714844 140.074219 129.945312 C 140.234375 128.054688 139.4375 127.707031 137.945312 129.019531 C 137.605469 129.320312 137.058594 129.738281 136.734375 129.953125 C 135.589844 130.699219 135.296875 131.101562 134.851562 132.507812 C 134.449219 133.777344 134.257812 134.175781 133.316406 135.746094 C 132.816406 136.582031 132.109375 137.867188 131.742188 138.605469 L 131.078125 139.941406 L 131.015625 139.40625 C 130.644531 136.246094 130.75 135.316406 131.898438 131.550781 C 132.445312 129.757812 132.480469 129.710938 133.570312 129.328125 C 135.542969 128.632812 136.929688 127.585938 136.929688 126.785156 C 136.929688 125.917969 135.183594 126.160156 134.0625 127.179688 C 133.046875 128.105469 133.042969 128.101562 133.648438 126.910156 C 134.78125 124.667969 134.863281 122.398438 133.8125 122.503906 C 133.503906 122.535156 133.527344 122.503906 132.921875 123.789062 C 132.695312 124.277344 132.171875 125.085938 131.5625 125.886719 C 130.777344 126.925781 130.417969 127.507812 129.824219 128.710938 C 129.238281 129.910156 128.96875 130.34375 128.566406 130.765625 C 127.738281 131.628906 127.648438 131.929688 127.554688 134.148438 C 127.523438 134.894531 127.417969 135.984375 127.316406 136.570312 C 127.070312 138 127.003906 139.207031 127.113281 140.390625 C 127.164062 140.925781 127.179688 141.394531 127.144531 141.425781 C 127.007812 141.558594 126.386719 141.609375 126.382812 141.488281 C 126.375 141.167969 125.878906 140.214844 125.277344 139.382812 C 123.664062 137.140625 123.523438 135.417969 124.484375 129.804688 C 125.449219 124.179688 126.503906 121.421875 130.28125 114.664062 C 131.167969 113.082031 131.640625 112.058594 132.042969 110.855469 C 132.785156 108.644531 132.488281 107.441406 131.710938 109.5 C 131.113281 111.085938 129.953125 113.308594 128.613281 115.445312 C 124.203125 122.476562 122.25 128.515625 121.535156 137.3125 C 121.355469 139.535156 121.089844 140.503906 120.207031 142.160156 C 119.574219 143.351562 118.621094 144.707031 118.316406 144.847656 C 118.179688 144.910156 117.578125 145.265625 116.976562 145.640625 C 116.375 146.015625 115.828125 146.359375 115.753906 146.402344 C 115.648438 146.464844 115.636719 146.421875 115.6875 146.160156 C 115.878906 145.238281 116.039062 142.753906 116.117188 139.597656 C 116.296875 132.398438 116.964844 128.257812 118.832031 122.8125 C 125.015625 104.742188 143.402344 90.335938 160.519531 90.140625 L 161.660156 90.128906 L 161.066406 90.878906 M 116.398438 91.710938 C 121.449219 92.015625 123.597656 92.472656 127.050781 93.972656 L 128.402344 94.558594 L 130.699219 96.933594 L 128.082031 96.933594 C 125.214844 96.933594 125.128906 96.949219 125.191406 97.480469 C 125.265625 98.140625 128.421875 98.214844 131.1875 97.621094 C 131.53125 97.550781 131.445312 97.675781 130.757812 98.25 L 130.308594 98.625 L 129.304688 98.671875 C 128.75 98.699219 127.238281 98.84375 125.945312 98.992188 C 124.652344 99.144531 123.433594 99.269531 123.238281 99.273438 C 122.613281 99.285156 122.046875 99.476562 122.046875 99.675781 C 122.046875 100.378906 124.257812 100.726562 126.988281 100.445312 C 128.65625 100.273438 128.5625 100.222656 127.847656 100.929688 L 127.257812 101.511719 L 125.679688 101.738281 C 122.539062 102.195312 118.589844 102.148438 113.75 101.59375 C 112.023438 101.398438 110.101562 101.421875 110.101562 101.640625 C 110.101562 103.136719 120.679688 104.347656 125.191406 103.371094 L 125.542969 103.296875 L 125.285156 103.597656 C 125.148438 103.761719 124.652344 104.335938 124.1875 104.871094 C 123.722656 105.40625 123.09375 106.171875 122.789062 106.570312 L 122.230469 107.296875 L 121.765625 107.246094 C 120.375 107.09375 119.21875 107.089844 117.566406 107.226562 C 107.792969 108.046875 102.871094 107.101562 99.972656 103.851562 C 99.316406 103.117188 99.28125 103.445312 100.5625 98.285156 L 101.71875 93.625 L 102.269531 93.324219 C 103.484375 92.667969 106.027344 92.011719 108.140625 91.808594 C 108.703125 91.753906 109.3125 91.699219 109.492188 91.679688 C 110.273438 91.605469 114.992188 91.628906 116.398438 91.710938 M 167.960938 92.464844 L 168.378906 93.035156 L 168.085938 93.382812 C 167.925781 93.574219 167.71875 93.914062 167.625 94.140625 L 167.457031 94.554688 L 167.453125 93.226562 C 167.445312 91.691406 167.417969 91.730469 167.960938 92.464844 M 162.179688 95.214844 C 161.726562 97.449219 161.25 101 161.007812 103.929688 C 160.949219 104.621094 160.871094 105.566406 160.832031 106.027344 C 160.773438 106.78125 160.757812 106.640625 160.6875 104.65625 C 160.539062 100.378906 160.941406 97.359375 161.992188 94.855469 C 162.433594 93.808594 162.457031 93.855469 162.179688 95.214844 M 169.554688 100.101562 C 169.804688 102.902344 169.804688 102.957031 169.648438 104.0625 C 169.457031 105.441406 169.019531 107.421875 169.082031 106.632812 C 169.105469 106.351562 169.152344 104.0625 169.1875 101.550781 C 169.222656 99.039062 169.265625 97.042969 169.28125 97.121094 C 169.292969 97.199219 169.417969 98.539062 169.554688 100.101562 M 98.613281 100.546875 C 98.558594 100.859375 98.386719 101.199219 98.386719 100.996094 C 98.386719 100.871094 98.601562 100.199219 98.640625 100.199219 C 98.660156 100.199219 98.648438 100.355469 98.613281 100.546875 M 167.046875 103.625 C 166.976562 107.664062 166.738281 110.1875 166.28125 111.714844 C 166.070312 112.421875 166.160156 110.558594 166.609375 105.03125 C 166.8125 102.527344 166.980469 100.457031 166.980469 100.429688 C 166.980469 100.40625 167.007812 100.382812 167.039062 100.382812 C 167.074219 100.382812 167.078125 101.84375 167.046875 103.625 M 163.113281 105.714844 C 162.796875 111.917969 162.609375 113.792969 162.722656 109.617188 C 162.792969 107.097656 163.113281 102.644531 163.222656 102.75 C 163.242188 102.773438 163.195312 104.105469 163.113281 105.714844 M 206.386719 104.539062 C 213.5 105.273438 221.53125 107.835938 225.886719 110.761719 L 226.882812 111.433594 L 225.792969 111.980469 C 221.84375 113.949219 218.703125 116.183594 213.082031 121.023438 L 212.378906 121.628906 L 211.214844 121.777344 C 210.574219 121.855469 208.789062 122.050781 207.25 122.203125 C 201.605469 122.773438 199.371094 123.171875 196.378906 124.160156 C 187.898438 126.957031 180.039062 133.847656 176.738281 141.378906 C 174.507812 146.464844 173.941406 152.957031 175.71875 153.011719 C 176.203125 153.027344 176.492188 152.445312 177.144531 150.117188 C 179.085938 143.167969 180.980469 139.714844 185.121094 135.578125 C 189.722656 130.980469 194.921875 128.070312 200.578125 126.929688 C 202.117188 126.621094 206.082031 126.125 206.082031 126.246094 C 206.082031 126.347656 204.257812 127.277344 201.480469 128.582031 C 189.257812 134.328125 184.585938 139.511719 180.605469 151.765625 C 178.855469 157.148438 177.917969 159.179688 176.175781 161.339844 C 175.601562 162.058594 174.023438 163.617188 173.6875 163.800781 C 173.515625 163.894531 173.488281 164.101562 174 161.558594 C 174.496094 159.066406 174.429688 157.042969 173.734375 153.539062 C 173.445312 152.070312 172.984375 150.28125 172.855469 150.128906 C 172.714844 149.957031 172.332031 147.910156 172.15625 146.359375 C 171.960938 144.648438 172.007812 141.457031 172.257812 139.769531 C 172.417969 138.699219 172.417969 138.621094 172.269531 138.394531 C 171.835938 137.734375 171.21875 138.285156 170.734375 139.753906 C 169.628906 143.109375 169.726562 146.300781 171.132812 152.605469 C 171.957031 156.3125 171.96875 156.390625 171.964844 158.804688 C 171.960938 159.984375 171.914062 161.140625 171.863281 161.371094 C 171.78125 161.726562 171.761719 161.558594 171.753906 160.292969 C 171.738281 158.050781 171.515625 156.132812 170.796875 152.046875 C 169.902344 146.957031 169.753906 145.636719 169.75 142.628906 C 169.734375 135.738281 171.277344 130.484375 174.929688 124.96875 C 176.441406 122.691406 176.519531 122.425781 175.613281 122.734375 C 174.113281 123.246094 171.28125 127.140625 169.746094 130.796875 C 168.109375 134.699219 167.410156 138.507812 167.402344 143.558594 C 167.398438 146.84375 167.40625 146.917969 168.152344 151.90625 C 168.957031 157.273438 169.152344 159.722656 168.949219 161.789062 C 168.792969 163.355469 168.839844 163.261719 168.023438 163.6875 C 164.15625 165.6875 163.007812 163.390625 162.503906 152.652344 C 162.328125 148.882812 162.222656 145.316406 162.214844 142.957031 C 162.210938 141.671875 162.167969 140.414062 162.117188 140.15625 C 162.066406 139.898438 161.992188 139.480469 161.957031 139.222656 C 161.816406 138.1875 161.40625 138.910156 160.847656 141.183594 C 160.542969 142.414062 159.988281 145.476562 159.976562 145.984375 C 159.972656 146.132812 159.871094 145.957031 159.707031 145.511719 C 159.316406 144.476562 158.707031 143.214844 157.882812 141.742188 C 157.484375 141.023438 157.019531 140.121094 156.855469 139.738281 C 156.445312 138.78125 156.066406 138.71875 156.0625 139.605469 C 156.0625 140.171875 156.3125 140.804688 157.300781 142.726562 C 158.773438 145.597656 159.078125 146.835938 159.234375 150.613281 C 159.476562 156.359375 159.738281 159.078125 160.324219 161.882812 C 160.859375 164.453125 160.46875 170.472656 159.460938 175.242188 C 158.570312 179.445312 158.347656 181.664062 158.574219 183.996094 C 159.257812 191.007812 163.777344 195.585938 170.898438 196.480469 C 171.59375 196.570312 172.171875 196.652344 172.1875 196.664062 C 172.25 196.722656 170.484375 197.007812 168.722656 197.226562 C 164.613281 197.734375 162.113281 198.859375 161.046875 200.679688 C 160.261719 202.019531 161.117188 202.222656 162.773438 201.09375 C 164.273438 200.070312 165.917969 199.5 168.007812 199.273438 C 169.972656 199.0625 169.898438 199.03125 169.121094 199.761719 C 166.828125 201.921875 165.074219 206.285156 165.710938 208.253906 C 165.964844 209.03125 166.285156 208.714844 166.605469 207.378906 C 167.691406 202.855469 169.765625 200.3125 173.503906 198.914062 C 174.871094 198.402344 174.761719 198.359375 174.488281 199.296875 C 173.636719 202.25 174.546875 208.976562 175.804688 208.976562 C 176.433594 208.976562 176.628906 207.253906 176.324219 204.464844 C 176.164062 202.972656 176.082031 200.574219 176.191406 200.503906 C 176.25 200.46875 176.3125 200.6875 176.351562 201.074219 C 176.386719 201.417969 176.640625 202.855469 176.917969 204.265625 C 178.746094 213.542969 178.722656 218.097656 176.832031 221.53125 C 176.585938 221.984375 176.5 222.25 176.5 222.574219 L 176.5 223.007812 L 176.878906 223.007812 C 178.996094 223.007812 180.339844 218.5 179.957031 212.660156 C 179.902344 211.863281 179.816406 210.457031 179.765625 209.535156 C 179.660156 207.71875 179.484375 206.25 179.199219 204.777344 C 179.101562 204.265625 179.019531 203.8125 179.019531 203.769531 C 179.019531 203.726562 179.214844 203.929688 179.453125 204.222656 C 180.78125 205.851562 182.8125 206.851562 187.046875 207.960938 C 190.871094 208.964844 189.988281 207.507812 185.878906 206.039062 C 182.179688 204.71875 180.765625 203.664062 179.511719 201.308594 C 178.957031 200.257812 178.179688 197.726562 178.179688 196.957031 C 178.179688 196.535156 178.035156 196.5625 180.980469 196.433594 C 185 196.257812 186.839844 196.035156 189.828125 195.355469 C 193.421875 194.539062 195.535156 193.945312 197.238281 193.265625 C 198.648438 192.703125 198.699219 192.777344 198.46875 195.175781 C 197.789062 202.257812 197.96875 206.214844 199.226562 212.144531 C 199.976562 215.660156 200.507812 223.140625 200.101562 224.464844 C 198.921875 228.332031 196.339844 233.160156 194.347656 235.234375 C 192.324219 237.34375 191.789062 237.65625 188.210938 238.847656 C 180.945312 241.265625 176.097656 241.769531 166.421875 241.109375 C 156.515625 240.4375 152.070312 241.425781 150.136719 244.722656 C 149.75 245.378906 149.765625 245.589844 150.195312 245.769531 C 150.515625 245.902344 150.4375 245.925781 151.863281 245.292969 C 155.410156 243.730469 158.285156 243.453125 165.859375 243.945312 C 167.015625 244.019531 168.957031 244.109375 170.171875 244.144531 L 172.382812 244.207031 L 171.199219 244.597656 C 162.882812 247.351562 157.148438 253.644531 154.761719 262.632812 C 153.433594 267.636719 153.867188 268.941406 155.523438 264.925781 C 159.539062 255.203125 165.242188 249.765625 174.632812 246.707031 C 176.085938 246.234375 176.582031 246.089844 179.761719 245.199219 C 183.332031 244.195312 186.335938 243.089844 188.789062 241.878906 C 190.210938 241.175781 193.484375 240.097656 193.484375 240.332031 C 193.484375 240.351562 192.832031 241.09375 192.039062 241.984375 C 188.902344 245.503906 187.804688 246.09375 183.03125 246.832031 C 180.847656 247.167969 181 247.117188 180.871094 247.542969 C 180.632812 248.335938 181.011719 248.550781 182.753906 248.601562 C 186.699219 248.71875 189.3125 247.921875 191.476562 245.953125 L 191.9375 245.53125 L 191.554688 245.996094 C 191.152344 246.488281 190.554688 247.054688 189.816406 247.65625 C 188.457031 248.757812 189.328125 249.578125 190.820312 248.601562 C 191.242188 248.324219 191.164062 248.476562 190.125 249.957031 L 189.109375 251.394531 L 188.40625 251.75 C 185.511719 253.203125 182.910156 253.660156 180.195312 253.1875 C 177.988281 252.800781 177.070312 252.917969 176.175781 253.707031 C 174.578125 255.113281 175.707031 256.808594 177.503906 255.699219 C 178.148438 255.300781 178.421875 255.285156 179.90625 255.558594 C 181.992188 255.945312 183.996094 255.871094 185.804688 255.339844 L 186.574219 255.117188 L 186.246094 255.683594 C 184.34375 258.984375 183.148438 262.464844 182.464844 266.699219 C 181.359375 273.539062 181.179688 273.90625 177.710938 276.242188 C 174.402344 278.472656 173.007812 278.953125 171.019531 278.550781 C 167.707031 277.875 165.855469 277.800781 165.601562 278.332031 C 165.335938 278.878906 165.699219 279.109375 167.820312 279.746094 C 168.617188 279.984375 169.75 280.335938 170.339844 280.527344 C 171.734375 280.972656 173.199219 281.019531 174.332031 280.648438 C 176.039062 280.089844 179.246094 278.144531 181.234375 276.464844 L 181.820312 275.96875 L 181.769531 277.070312 C 181.652344 279.492188 181.449219 281.964844 181.304688 282.652344 C 181.257812 282.875 181.371094 282.875 178.320312 282.621094 C 172.433594 282.121094 168.742188 282.695312 167.074219 284.359375 C 165.621094 285.808594 167.042969 286.296875 169.546875 285.210938 C 171.027344 284.566406 172.390625 284.179688 173.167969 284.183594 C 173.417969 284.183594 173.335938 284.242188 172.671875 284.539062 C 169.5 285.957031 166.964844 288.390625 163.578125 293.273438 C 161.828125 295.792969 161.488281 296.691406 162.257812 296.753906 C 162.742188 296.792969 163.636719 295.894531 165.019531 293.972656 C 167.613281 290.375 169.402344 288.558594 171.660156 287.230469 C 172.777344 286.570312 173.597656 286.246094 174.757812 286.003906 C 175.105469 285.929688 178.152344 285.933594 179.449219 286.011719 L 180.488281 286.074219 L 180.226562 286.746094 C 179.582031 288.414062 178.53125 290.152344 176.976562 292.109375 C 173.660156 296.289062 172.542969 298.105469 171.660156 300.738281 C 169.980469 305.761719 170.65625 310.949219 173.546875 315.261719 C 173.886719 315.765625 174.183594 316.214844 174.214844 316.257812 C 174.320312 316.433594 171.777344 315.621094 170.296875 315.007812 C 160.671875 311.011719 146.890625 298.96875 136.148438 285.160156 C 123.847656 269.347656 113.238281 247.359375 113.226562 237.648438 C 113.21875 230.179688 118.960938 221.6875 132.683594 208.878906 C 134.273438 207.390625 135.976562 205.792969 136.460938 205.324219 C 137.484375 204.335938 137.457031 204.34375 137.207031 205.066406 C 137.101562 205.371094 136.59375 207.066406 136.082031 208.835938 C 133.785156 216.761719 133.769531 216.789062 130.164062 218.730469 C 128.609375 219.566406 127.34375 220.972656 127.171875 222.054688 L 127.109375 222.449219 L 127.425781 222.449219 C 127.800781 222.449219 128.292969 222.199219 128.996094 221.652344 C 129.300781 221.421875 130.085938 221.007812 130.910156 220.648438 C 134.265625 219.1875 135.488281 217.988281 136.566406 215.09375 C 136.882812 214.234375 136.886719 214.304688 136.648438 216.167969 C 136.320312 218.730469 136.089844 219.703125 135.046875 222.914062 C 132.976562 229.3125 132.710938 234.238281 134.125 239.863281 C 134.820312 242.628906 135.21875 243.054688 135.1875 241.003906 C 135.03125 230.671875 135.175781 229.183594 136.789062 224.082031 C 137.855469 220.714844 138.421875 218.066406 138.421875 216.460938 C 138.421875 214.660156 138.867188 218.703125 139.269531 224.175781 C 139.511719 227.46875 139.78125 230.140625 140.066406 232.101562 C 140.328125 233.90625 140.589844 235.964844 140.800781 237.914062 C 140.976562 239.550781 141.183594 240.503906 141.378906 240.578125 C 142.679688 241.078125 142.375 227.542969 140.800781 214.988281 C 140.570312 213.167969 140.382812 211.597656 140.382812 211.5 C 140.382812 211.394531 140.617188 211.671875 140.9375 212.152344 C 142.703125 214.804688 145.015625 216.53125 147.800781 217.277344 C 148.109375 217.359375 148.640625 217.507812 148.976562 217.609375 C 149.925781 217.890625 151.535156 217.90625 151.535156 217.636719 C 151.535156 217.507812 151.363281 217.292969 151.070312 217.050781 C 150.632812 216.6875 150.429688 216.574219 149.484375 216.144531 C 146.8125 214.9375 143.828125 212.527344 142.414062 210.4375 C 141.046875 208.410156 140.480469 206.363281 140.339844 202.933594 L 140.285156 201.550781 L 141.441406 200.320312 C 146.574219 194.863281 149.121094 190.878906 150.417969 186.261719 C 152.019531 180.566406 152.46875 170.609375 151.582031 160.34375 C 150.78125 151.054688 151.066406 147.183594 153.03125 140.714844 C 156.625 128.875 165.390625 118.457031 177.140625 112.054688 C 184.042969 108.292969 194.257812 105.027344 200.902344 104.457031 C 202.015625 104.363281 205.105469 104.410156 206.386719 104.539062 M 244.242188 112.878906 C 244.515625 112.925781 244.761719 112.984375 244.785156 113.007812 C 244.820312 113.042969 244.464844 114.148438 244.386719 114.261719 C 244.375 114.277344 244.152344 114.183594 243.890625 114.050781 C 241.207031 112.695312 233.5 114.226562 225.191406 117.769531 C 224.621094 118.011719 224.789062 117.863281 225.65625 117.347656 C 229.742188 114.925781 234.332031 113.339844 238.558594 112.886719 C 239.097656 112.832031 239.6875 112.765625 239.867188 112.746094 C 240.40625 112.683594 243.703125 112.785156 244.242188 112.878906 M 249.777344 114.8125 L 250.03125 114.984375 L 249.589844 115.308594 C 249.347656 115.488281 248.945312 115.90625 248.695312 116.238281 C 248.445312 116.570312 248.265625 116.757812 248.296875 116.65625 C 248.328125 116.554688 248.417969 116.164062 248.496094 115.792969 C 248.574219 115.421875 248.683594 114.929688 248.742188 114.699219 L 248.847656 114.285156 L 249.1875 114.464844 C 249.371094 114.5625 249.636719 114.71875 249.777344 114.8125 M 164.542969 114.871094 C 164.621094 114.964844 164.589844 115.042969 164.417969 115.207031 L 164.191406 115.421875 L 164.296875 115.082031 C 164.414062 114.695312 164.402344 114.703125 164.542969 114.871094 M 243.746094 116.960938 C 243.320312 118.339844 243.082031 123.734375 243.324219 126.542969 C 243.816406 132.222656 245.464844 136.28125 247.714844 137.335938 C 248.292969 137.605469 248.328125 137.515625 247.207031 138.632812 C 244.933594 140.910156 242 141.867188 234.964844 142.632812 C 232.082031 142.945312 229.839844 143.390625 228.339844 143.949219 C 221.035156 146.675781 214.449219 153.835938 213.082031 160.53125 C 212.699219 162.40625 212.832031 163.519531 213.480469 163.855469 C 213.886719 164.066406 214.390625 163.300781 214.390625 162.46875 C 214.390625 161.851562 215.703125 158.550781 216.542969 157.050781 C 220.339844 150.304688 226.625 146.175781 233.960938 145.609375 C 234.71875 145.550781 235.949219 145.449219 236.695312 145.382812 C 237.4375 145.316406 238.058594 145.269531 238.070312 145.28125 C 238.085938 145.292969 237.328125 145.789062 236.390625 146.378906 C 228.535156 151.347656 223.769531 156.816406 216.582031 169.109375 C 211.308594 178.132812 210.355469 179.308594 205.289062 183.082031 C 201.402344 185.976562 199.464844 187.019531 195.042969 188.605469 C 190.375 190.28125 182.425781 192.128906 181.945312 191.648438 C 181.570312 191.273438 185.347656 185.265625 186.753906 184.003906 C 189.210938 181.796875 193.46875 179.316406 198.46875 177.179688 C 204.148438 174.75 206.476562 172.902344 208.445312 169.269531 C 209.644531 167.0625 209.195312 166.292969 207.859375 168.261719 C 205.230469 172.136719 203.203125 173.527344 196.554688 176 C 193.652344 177.082031 192.664062 177.488281 191.25 178.199219 C 190.773438 178.4375 190.421875 178.578125 190.460938 178.511719 C 190.5 178.445312 190.792969 178.03125 191.105469 177.597656 C 193.621094 174.097656 195.011719 170.855469 196.714844 164.496094 C 198.070312 159.433594 198.621094 157.832031 199.945312 155.105469 C 200.820312 153.300781 200.855469 153.152344 200.4375 152.960938 C 199.253906 152.421875 197.578125 155.6875 194.988281 163.5625 C 191.925781 172.886719 190.078125 175.957031 183.933594 181.980469 C 179.121094 186.6875 177.574219 188.265625 176.886719 189.160156 C 176.507812 189.644531 176.15625 190.046875 176.101562 190.046875 C 175.773438 190.046875 175.355469 187.84375 175.308594 185.871094 C 175.261719 183.863281 175.230469 183.722656 174.886719 184.101562 C 174.492188 184.539062 174.296875 186.671875 174.539062 187.9375 C 174.667969 188.625 174.660156 188.660156 174.445312 188.386719 C 173.675781 187.410156 173.0625 185.34375 172.96875 183.433594 C 172.886719 181.703125 172.546875 181.507812 171.808594 182.769531 C 170.253906 185.40625 172.03125 190.472656 174.90625 191.59375 C 175.496094 191.824219 175.195312 191.808594 173.941406 191.542969 C 172.675781 191.277344 172.257812 191.101562 171.496094 190.527344 C 167.121094 187.21875 166.796875 180.554688 170.789062 175.929688 C 171.632812 174.953125 171.777344 174.65625 171.503906 174.457031 C 170.363281 173.625 167.183594 177.050781 166.207031 180.164062 C 164.992188 184.03125 165.714844 188.167969 168.039062 190.628906 L 168.519531 191.140625 L 167.914062 190.835938 C 162.46875 188.105469 161.535156 180.628906 165.957031 175.136719 C 167.046875 173.785156 168.535156 172.648438 171.921875 170.582031 C 179.808594 165.777344 181.898438 163.039062 185.039062 153.398438 C 188.738281 142.03125 192.386719 138.007812 203.9375 132.574219 C 208.839844 130.269531 210.808594 129.042969 214.328125 126.105469 C 215.398438 125.210938 215.582031 125.09375 216.054688 125 C 219.105469 124.386719 221.976562 123.402344 226.988281 121.246094 C 233.214844 118.570312 235.875 117.671875 239.167969 117.125 C 241.5 116.742188 243.839844 116.65625 243.746094 116.960938 M 252.15625 119.941406 C 252.347656 121.074219 252.386719 126.175781 252.214844 127.335938 L 252.125 127.941406 L 252.058594 127.289062 C 251.855469 125.273438 251.796875 124.875 251.613281 124.292969 C 251.425781 123.683594 251.417969 123.523438 251.46875 121.039062 C 251.539062 117.507812 251.703125 117.246094 252.15625 119.941406 M 249.835938 120.605469 C 249.75 121.773438 249.753906 122.628906 249.84375 124.375 C 249.90625 125.617188 249.976562 127.601562 249.996094 128.777344 L 250.035156 130.925781 L 249.808594 130.253906 C 249.074219 128.09375 249.015625 123.21875 249.679688 119.988281 C 249.941406 118.71875 249.964844 118.808594 249.835938 120.605469 M 248.289062 134.164062 C 248.695312 134.5625 249.277344 134.886719 249.589844 134.890625 L 249.804688 134.894531 L 249.585938 135.078125 C 249.023438 135.546875 248.179688 134.878906 247.628906 133.535156 L 247.515625 133.253906 L 247.722656 133.535156 C 247.835938 133.6875 248.089844 133.972656 248.289062 134.164062 M 261.320312 145.914062 C 261.613281 146.589844 263.035156 149.144531 264.039062 150.796875 C 264.566406 151.664062 265.164062 152.675781 265.363281 153.046875 L 265.726562 153.722656 L 265.542969 154.140625 C 264.136719 157.316406 259.792969 159.105469 251.597656 159.875 C 249.523438 160.070312 248.578125 160.222656 247.59375 160.53125 L 247.039062 160.703125 L 246.742188 160.273438 C 245.324219 158.222656 243.917969 156.421875 242.832031 155.261719 C 242.425781 154.828125 242.230469 154.550781 242.308594 154.527344 C 242.375 154.507812 242.707031 154.445312 243.039062 154.382812 C 244.824219 154.054688 246.960938 153.042969 250.273438 150.964844 C 255.949219 147.402344 257.929688 146.324219 259.878906 145.75 C 260.988281 145.421875 261.117188 145.4375 261.320312 145.914062 M 133.558594 145.941406 C 137.652344 146.539062 140.542969 147.910156 145.292969 151.515625 L 146.421875 152.371094 L 146.480469 154.332031 C 146.515625 155.40625 146.644531 157.632812 146.773438 159.273438 C 147.460938 168.195312 147.488281 174.390625 146.863281 179.835938 C 146.085938 186.585938 144.351562 190.183594 139.09375 195.945312 C 138.160156 196.972656 138.195312 196.976562 138.425781 195.867188 C 138.761719 194.25 138.914062 192.347656 138.867188 190.277344 C 138.832031 188.59375 138.847656 188.320312 138.996094 187.972656 C 139.085938 187.757812 139.246094 187.148438 139.347656 186.621094 C 139.449219 186.09375 139.621094 185.242188 139.734375 184.730469 C 140.035156 183.320312 139.972656 182.746094 139.378906 181.417969 C 138.625 179.734375 138.472656 179.085938 138.472656 177.597656 L 138.476562 176.335938 L 138.878906 175.359375 C 139.558594 173.707031 139.824219 172.347656 139.492188 172.21875 C 139.03125 172.042969 137.289062 174.8125 136.890625 176.351562 C 136.40625 178.238281 136.929688 181.359375 137.980469 182.847656 C 138.15625 183.097656 138.160156 183.15625 138.046875 183.808594 C 137.914062 184.601562 137.902344 184.597656 137.539062 183.703125 C 137.390625 183.34375 137.011719 182.527344 136.695312 181.886719 C 135.226562 178.933594 135.03125 178.089844 135.027344 174.796875 C 135.027344 171.730469 135.421875 168.464844 136.15625 165.425781 C 136.644531 163.421875 136.484375 162.335938 135.773438 162.800781 C 134.535156 163.609375 132.542969 171.992188 132.542969 176.382812 C 132.542969 178.800781 132.894531 180.113281 134.277344 182.910156 C 135.929688 186.257812 136.089844 186.808594 136.144531 189.484375 L 136.183594 191.351562 L 135.949219 190.476562 C 135.382812 188.367188 133.808594 185.242188 133.308594 185.242188 C 132.6875 185.242188 132.796875 186.207031 133.703125 188.738281 C 134.167969 190.046875 135.324219 196.386719 135.507812 198.652344 C 135.671875 200.675781 134.921875 200.105469 133.945312 197.464844 C 133.796875 197.054688 133.421875 196.222656 133.117188 195.621094 C 132.335938 194.066406 132.105469 193.308594 131.792969 191.257812 C 131.59375 189.914062 131.449219 189.53125 131.15625 189.53125 C 130.070312 189.53125 130.273438 193.878906 131.515625 197.148438 L 131.789062 197.878906 L 131.414062 197.457031 C 129.21875 194.996094 128.140625 190.4375 127.878906 182.492188 C 127.6875 176.71875 127.164062 173.214844 126.488281 173.214844 C 126.195312 173.214844 126.164062 173.660156 126.289062 175.949219 C 126.367188 177.378906 126.382812 179.375 126.335938 182.445312 C 126.199219 191.84375 127.25 196.542969 130.128906 199.402344 C 130.832031 200.097656 132.195312 201.027344 132.824219 201.234375 C 133.460938 201.445312 133.503906 201.683594 132.988281 202.15625 C 119.730469 214.292969 113.390625 221.890625 110.234375 229.421875 L 109.832031 230.375 L 109.480469 229.308594 C 109.007812 227.859375 108.519531 226.765625 106.898438 223.5 C 103.085938 215.835938 100.699219 207.90625 99.703125 199.601562 C 98.089844 186.140625 102.324219 169.636719 110.25 158.464844 C 116.398438 149.800781 125.710938 144.796875 133.558594 145.941406 M 236.613281 154.191406 C 241.171875 159.625 242.878906 162.136719 245.367188 167.058594 C 249.253906 174.761719 250.863281 181.039062 250.824219 188.367188 C 250.789062 194.769531 245.664062 200.429688 238.0625 202.449219 C 231.925781 204.082031 226.558594 201.863281 216.636719 193.585938 C 212.433594 190.082031 210.390625 188.738281 207.972656 187.894531 C 207.371094 187.683594 207.371094 187.703125 208.015625 187.253906 C 211.804688 184.625 215.0625 180.871094 218.4375 175.242188 C 218.96875 174.359375 219.671875 173.191406 220.007812 172.652344 C 220.847656 171.289062 221.621094 169.941406 222.847656 167.691406 C 224.753906 164.1875 226.773438 161.253906 229.28125 158.339844 C 231.589844 155.65625 235.15625 152.515625 235.488281 152.867188 C 235.570312 152.953125 236.074219 153.550781 236.613281 154.191406 M 271.128906 164.78125 C 273.15625 165.097656 274.890625 165.765625 276.085938 166.695312 L 276.417969 166.957031 L 276.480469 168.617188 C 276.511719 169.53125 276.660156 171.640625 276.8125 173.304688 C 277.023438 175.605469 277.0625 176.351562 276.980469 176.40625 C 275.945312 177.070312 273.398438 177.289062 270.207031 176.980469 C 265.996094 176.574219 263.410156 177.246094 260.023438 179.625 C 258.960938 180.375 256.9375 182.371094 256.152344 183.445312 L 255.589844 184.214844 L 255.425781 183.121094 C 254.816406 179.101562 253.714844 174.796875 252.4375 171.425781 L 252.199219 170.808594 L 252.917969 170.296875 C 259.386719 165.691406 265.355469 163.882812 271.128906 164.78125 M 277.753906 168.480469 C 277.753906 168.519531 277.675781 168.550781 277.582031 168.550781 C 277.414062 168.550781 277.292969 168.316406 277.289062 167.992188 C 277.289062 167.851562 277.746094 168.335938 277.753906 168.480469 M 278.464844 175.136719 C 278.382812 175.351562 278.351562 175.285156 278.285156 174.753906 L 278.230469 174.285156 L 278.375 174.636719 C 278.457031 174.828125 278.496094 175.054688 278.464844 175.136719 M 208.984375 194.207031 C 210.003906 194.910156 210.941406 195.652344 213.175781 197.550781 C 217.679688 201.371094 221.296875 203.585938 227.03125 206.039062 L 228.054688 206.476562 L 228.550781 207.414062 C 229.808594 209.789062 231.019531 214.445312 230.871094 216.308594 C 230.746094 217.832031 229.664062 220.640625 228.164062 223.335938 C 227.316406 224.863281 227.050781 225.492188 226.835938 226.5 C 226.144531 229.75 228.039062 230.371094 228.851562 227.164062 C 229.046875 226.386719 229.332031 225.636719 229.777344 224.691406 C 230.289062 223.609375 231.121094 221.546875 231.394531 220.679688 C 231.496094 220.371094 231.582031 223.453125 231.53125 225.292969 C 231.398438 229.800781 230.835938 231.703125 228.4375 235.792969 C 226.207031 239.585938 225.390625 242.132812 225.980469 243.449219 C 226.460938 244.523438 227.46875 243.535156 228.902344 240.578125 C 229.425781 239.492188 230.246094 237.945312 230.71875 237.136719 C 233.328125 232.703125 233.964844 230.515625 234.179688 225.246094 C 234.230469 223.992188 234.308594 222.394531 234.355469 221.703125 C 234.5625 218.726562 234.402344 211.984375 234.042969 208.449219 L 233.996094 208.011719 L 236.023438 208.054688 C 237.40625 208.085938 238.414062 208.058594 239.214844 207.96875 C 240.621094 207.8125 240.457031 207.722656 240.800781 208.816406 C 242.09375 212.910156 242.972656 222.890625 242.433594 227.347656 C 242.414062 227.5 242.371094 228.277344 242.34375 229.070312 C 242.195312 232.851562 243.25 236.113281 243.546875 232.800781 C 243.582031 232.417969 243.652344 231.734375 243.699219 231.285156 C 243.785156 230.503906 243.835938 229.886719 244.070312 226.972656 C 244.128906 226.253906 244.203125 224.273438 244.238281 222.566406 L 244.300781 219.464844 L 244.617188 220.1875 C 245.300781 221.734375 246.269531 223.007812 246.761719 223.007812 C 247.6875 223.007812 247.648438 222.402344 246.5625 220.066406 C 244.863281 216.421875 244.371094 213.625 244.628906 209.160156 C 244.773438 206.699219 244.648438 206.945312 245.980469 206.496094 C 247.71875 205.90625 249.734375 204.878906 250.898438 203.984375 L 251.152344 203.789062 L 251.199219 204.003906 C 251.773438 206.558594 252.089844 213.945312 251.8125 218.207031 C 250.953125 231.332031 247.167969 241.578125 236.863281 258.679688 C 224.222656 279.648438 214.300781 292.90625 202.355469 304.789062 C 192.898438 314.199219 187.695312 317.222656 181.027344 317.1875 L 179.71875 317.179688 L 179.191406 316.578125 C 177.792969 314.992188 176.113281 312.125 175.75 310.695312 C 174.929688 307.496094 176.171875 302.734375 178.890625 298.660156 L 179.714844 297.425781 L 180.117188 297.425781 C 182.007812 297.425781 183.296875 301.265625 183.589844 307.789062 C 183.691406 310.066406 183.792969 310.601562 184.125 310.648438 C 184.6875 310.726562 184.992188 309.28125 185.058594 306.234375 C 185.148438 301.933594 184.296875 298.148438 182.882812 296.589844 L 182.570312 296.242188 L 183.992188 295.898438 C 190.953125 294.21875 193.519531 295.539062 195.304688 301.714844 C 195.488281 302.355469 195.703125 303.097656 195.777344 303.367188 C 195.9375 303.925781 196.113281 304.136719 196.417969 304.136719 C 197.632812 304.136719 196.910156 299.03125 195.210938 295.605469 C 194.332031 293.832031 192.886719 292.71875 190.703125 292.132812 C 189.160156 291.71875 185.320312 291.796875 184.097656 292.265625 C 184.019531 292.292969 184.183594 291.96875 184.460938 291.539062 C 186.996094 287.640625 187.550781 284.421875 186.953125 277.09375 C 186.230469 268.183594 187.332031 263.464844 192.203125 254.621094 C 194.101562 251.171875 194.152344 251.085938 194.074219 251.40625 C 193.644531 253.175781 194.164062 257.816406 195.070312 260.28125 C 195.921875 262.597656 196.289062 262.164062 195.960938 259.238281 C 195.460938 254.824219 195.683594 250.902344 196.625 247.441406 C 196.824219 246.714844 197.699219 244.066406 197.730469 244.101562 C 197.742188 244.117188 197.695312 244.464844 197.625 244.875 C 196.707031 250.074219 198.386719 256.101562 201.722656 259.582031 C 203.65625 261.601562 203.867188 260.691406 202.160156 257.699219 C 201.0625 255.777344 200.054688 251.835938 199.949219 249.066406 C 199.835938 245.976562 200.675781 241.589844 201.691406 239.960938 C 203.179688 237.585938 203.871094 237.933594 206.484375 242.359375 C 206.890625 243.050781 207.351562 243.6875 207.6875 244.019531 C 208.082031 244.417969 208.3125 244.757812 208.542969 245.28125 C 208.714844 245.675781 209.554688 247.402344 210.402344 249.121094 C 213.351562 255.085938 213.703125 256.203125 214.714844 262.78125 C 215.6875 269.089844 216.511719 271.625 218.730469 275.089844 C 219.84375 276.835938 220.488281 276.003906 219.753906 273.761719 C 218.84375 270.988281 217.964844 266.910156 217.332031 262.546875 C 216.707031 258.226562 216.167969 255.761719 215.410156 253.804688 C 215.257812 253.410156 215.136719 253.074219 215.136719 253.054688 C 215.136719 253.039062 215.445312 253.292969 215.820312 253.621094 C 220.597656 257.785156 229.128906 261.722656 228 259.242188 C 227.875 258.96875 226.671875 258.148438 224.828125 257.085938 C 217.972656 253.125 214.007812 249.222656 211.253906 243.710938 C 209.503906 240.207031 208.886719 237.945312 207.390625 229.511719 C 206.582031 224.964844 206.199219 223.066406 205.246094 218.96875 C 203.695312 212.308594 202.921875 207.53125 202.757812 203.660156 C 202.59375 199.671875 204.324219 195.875 207.109375 194.113281 C 207.917969 193.601562 208.121094 193.613281 208.984375 194.207031 " fill-opacity="1" fill-rule="evenodd"/></svg>