<svg xmlns="http://www.w3.org/2000/svg" xmlns:xlink="http://www.w3.org/1999/xlink" width="500" zoomAndPan="magnify" viewBox="0 0 375 374.999991" height="500" preserveAspectRatio="xMidYMid meet" version="1.0"><defs><clipPath id="85161bfe75"><path d="M 159 83.148438 L 242 83.148438 L 242 133 L 159 133 Z M 159 83.148438 " clip-rule="nonzero"/></clipPath><clipPath id="cb33223292"><path d="M 152 83.148438 L 234 83.148438 L 234 130 L 152 130 Z M 152 83.148438 " clip-rule="nonzero"/></clipPath><clipPath id="657473c089"><path d="M 42.480469 118 L 124 118 L 124 202 L 42.480469 202 Z M 42.480469 118 " clip-rule="nonzero"/></clipPath><clipPath id="5ca915df40"><path d="M 306 153 L 332.730469 153 L 332.730469 224 L 306 224 Z M 306 153 " clip-rule="nonzero"/></clipPath><clipPath id="a68c26ad7f"><path d="M 194 264 L 215 264 L 215 291.648438 L 194 291.648438 Z M 194 264 " clip-rule="nonzero"/></clipPath></defs><g clip-path="url(#85161bfe75)"><path fill="#000000" d="M 170.242188 132.261719 L 159.996094 128.988281 L 161.023438 125.777344 L 170.167969 128.695312 L 237.492188 104.027344 L 231.902344 89.226562 L 225.210938 87.085938 L 226.246094 83.875 L 234.488281 86.515625 L 241.855469 106.023438 Z M 170.242188 132.261719 " fill-opacity="1" fill-rule="nonzero"/></g><g clip-path="url(#cb33223292)"><path fill="#000000" d="M 159.480469 129.546875 L 152.386719 110.230469 L 226.300781 83.171875 L 233.398438 102.492188 Z M 156.71875 112.242188 L 161.488281 125.222656 L 229.0625 100.480469 L 224.292969 87.5 Z M 156.71875 112.242188 " fill-opacity="1" fill-rule="nonzero"/></g><path fill="#000000" d="M 94.328125 146.859375 L 86.449219 125.417969 L 77.449219 122.519531 L 78.484375 119.3125 L 89.054688 122.714844 L 97.5 145.699219 Z M 94.328125 146.859375 " fill-opacity="1" fill-rule="nonzero"/><path fill="#000000" d="M 97.800781 204.472656 L 87.621094 201.417969 L 88.597656 198.1875 L 97.695312 200.917969 L 112.234375 195.597656 L 101.832031 167.285156 L 128.878906 157.382812 L 123.824219 143.625 L 114.972656 141.097656 L 115.898438 137.855469 L 126.402344 140.851562 L 133.210938 159.386719 L 106.167969 169.289062 L 116.570312 197.601562 Z M 97.800781 204.472656 " fill-opacity="1" fill-rule="nonzero"/><g clip-path="url(#657473c089)"><path fill="#000000" d="M 87.027344 201.765625 L 76.625 173.453125 L 49.578125 183.355469 L 42.484375 164.039062 L 69.527344 154.136719 L 59.210938 126.0625 L 79.035156 118.8125 L 89.351562 146.890625 L 116.394531 136.984375 L 123.492188 156.296875 L 96.445312 166.199219 L 106.851562 194.515625 Z M 78.632812 169.125 L 89.039062 197.4375 L 102.519531 192.503906 L 92.117188 164.191406 L 119.160156 154.285156 L 114.390625 141.308594 L 87.347656 151.210938 L 77.03125 123.136719 L 63.550781 128.070312 L 73.867188 156.144531 L 46.824219 166.050781 L 51.59375 179.027344 Z M 78.632812 169.125 " fill-opacity="1" fill-rule="nonzero"/></g><path fill="#000000" d="M 57.980469 187.453125 L 49.828125 183 L 51.453125 180.042969 L 58.230469 183.746094 L 78.492188 176.007812 L 79.699219 179.160156 Z M 57.980469 187.453125 " fill-opacity="1" fill-rule="nonzero"/><path fill="#000000" d="M 268.035156 226.433594 L 252.671875 211.972656 L 273.402344 190.03125 L 252.441406 170.300781 L 266.578125 155.335938 L 287.535156 175.066406 L 308.085938 153.304688 L 323.449219 167.765625 L 302.898438 189.527344 L 323.855469 209.257812 L 309.71875 224.222656 L 288.761719 204.492188 Z M 257.449219 211.832031 L 267.894531 221.667969 L 288.621094 199.726562 L 309.578125 219.457031 L 319.082031 209.398438 L 298.121094 189.667969 L 318.671875 167.90625 L 308.226562 158.074219 L 287.675781 179.835938 L 266.71875 160.105469 L 257.21875 170.160156 L 278.175781 189.894531 Z M 257.449219 211.832031 " fill-opacity="1" fill-rule="nonzero"/><path fill="#000000" d="M 290.625 174.253906 L 274.855469 159.410156 L 266.726562 159.445312 L 266.710938 156.070312 L 276.191406 156.03125 L 292.945312 171.800781 Z M 290.625 174.253906 " fill-opacity="1" fill-rule="nonzero"/><g clip-path="url(#5ca915df40)"><path fill="#000000" d="M 309.6875 223.566406 L 309.671875 220.191406 L 317.792969 220.15625 L 327.953125 209.398438 L 306.996094 189.667969 L 327.550781 167.914062 L 316.359375 157.378906 L 308.121094 157.335938 L 308.140625 153.960938 L 317.707031 154.011719 L 332.324219 167.773438 L 311.773438 189.527344 L 332.730469 209.257812 L 319.257812 223.523438 Z M 309.6875 223.566406 " fill-opacity="1" fill-rule="nonzero"/></g><path fill="#000000" d="M 277.5625 225.742188 L 268.253906 225.675781 L 268.28125 222.300781 L 276.117188 222.359375 L 292.160156 205.375 L 294.617188 207.6875 Z M 277.5625 225.742188 " fill-opacity="1" fill-rule="nonzero"/><path fill="#000000" d="M 161.792969 266.832031 L 151.542969 263.5625 L 152.574219 260.347656 L 161.714844 263.265625 L 230.328125 238.144531 L 225.265625 224.355469 L 216.765625 221.660156 L 217.789062 218.445312 L 227.867188 221.644531 L 234.664062 240.148438 Z M 161.792969 266.832031 " fill-opacity="1" fill-rule="nonzero"/><path fill="#000000" d="M 151.027344 264.121094 L 143.933594 244.800781 L 217.851562 217.742188 L 224.945312 237.0625 Z M 148.269531 246.8125 L 153.035156 259.792969 L 220.609375 235.050781 L 215.839844 222.070312 Z M 148.269531 246.8125 " fill-opacity="1" fill-rule="nonzero"/><path fill="#000000" d="M 168.539062 219.769531 C 167.644531 219.769531 166.753906 219.679688 165.875 219.507812 C 164.996094 219.332031 164.140625 219.074219 163.3125 218.730469 C 162.484375 218.386719 161.695312 217.96875 160.949219 217.46875 C 160.203125 216.972656 159.515625 216.40625 158.878906 215.773438 C 158.246094 215.140625 157.679688 214.453125 157.179688 213.707031 C 156.683594 212.960938 156.261719 212.175781 155.917969 211.347656 C 155.574219 210.523438 155.316406 209.667969 155.140625 208.789062 C 154.964844 207.914062 154.878906 207.023438 154.878906 206.128906 C 154.878906 205.234375 154.964844 204.347656 155.140625 203.46875 C 155.316406 202.589844 155.574219 201.738281 155.917969 200.910156 C 156.261719 200.082031 156.683594 199.296875 157.179688 198.550781 C 157.679688 197.808594 158.246094 197.117188 158.878906 196.484375 C 159.515625 195.851562 160.203125 195.289062 160.949219 194.789062 C 161.695312 194.292969 162.484375 193.871094 163.3125 193.53125 C 164.140625 193.1875 164.996094 192.929688 165.875 192.753906 C 166.753906 192.578125 167.644531 192.492188 168.539062 192.492188 C 169.4375 192.492188 170.324219 192.578125 171.207031 192.753906 C 172.085938 192.929688 172.941406 193.1875 173.769531 193.53125 C 174.597656 193.871094 175.386719 194.292969 176.128906 194.789062 C 176.875 195.289062 177.566406 195.851562 178.199219 196.484375 C 178.835938 197.117188 179.402344 197.808594 179.898438 198.550781 C 180.398438 199.296875 180.820312 200.082031 181.164062 200.910156 C 181.507812 201.738281 181.765625 202.589844 181.941406 203.46875 C 182.113281 204.347656 182.203125 205.234375 182.203125 206.128906 C 182.203125 207.023438 182.113281 207.910156 181.9375 208.789062 C 181.761719 209.667969 181.503906 210.519531 181.160156 211.347656 C 180.816406 212.171875 180.394531 212.960938 179.894531 213.703125 C 179.398438 214.449219 178.832031 215.136719 178.195312 215.769531 C 177.5625 216.402344 176.871094 216.96875 176.128906 217.464844 C 175.382812 217.960938 174.59375 218.382812 173.765625 218.726562 C 172.9375 219.070312 172.085938 219.328125 171.203125 219.503906 C 170.324219 219.679688 169.4375 219.765625 168.539062 219.769531 Z M 168.539062 195.863281 C 167.867188 195.863281 167.195312 195.929688 166.535156 196.0625 C 165.871094 196.191406 165.230469 196.386719 164.605469 196.644531 C 163.980469 196.902344 163.386719 197.21875 162.828125 197.59375 C 162.265625 197.96875 161.746094 198.394531 161.269531 198.871094 C 160.792969 199.347656 160.363281 199.867188 159.988281 200.425781 C 159.613281 200.988281 159.296875 201.578125 159.039062 202.199219 C 158.78125 202.824219 158.585938 203.464844 158.453125 204.128906 C 158.324219 204.789062 158.257812 205.457031 158.257812 206.128906 C 158.257812 206.804688 158.324219 207.472656 158.453125 208.132812 C 158.585938 208.792969 158.78125 209.4375 159.039062 210.058594 C 159.296875 210.679688 159.613281 211.273438 159.988281 211.832031 C 160.363281 212.394531 160.792969 212.914062 161.269531 213.390625 C 161.746094 213.867188 162.265625 214.292969 162.828125 214.664062 C 163.386719 215.039062 163.980469 215.355469 164.605469 215.613281 C 165.230469 215.871094 165.871094 216.066406 166.535156 216.199219 C 167.195312 216.332031 167.867188 216.394531 168.539062 216.394531 C 169.214844 216.394531 169.882812 216.332031 170.546875 216.199219 C 171.210938 216.066406 171.851562 215.871094 172.476562 215.613281 C 173.101562 215.355469 173.691406 215.039062 174.253906 214.664062 C 174.816406 214.292969 175.335938 213.867188 175.8125 213.390625 C 176.289062 212.914062 176.714844 212.394531 177.089844 211.832031 C 177.464844 211.273438 177.78125 210.679688 178.042969 210.058594 C 178.300781 209.4375 178.496094 208.792969 178.625 208.132812 C 178.757812 207.472656 178.824219 206.804688 178.824219 206.128906 C 178.824219 205.457031 178.757812 204.789062 178.625 204.128906 C 178.492188 203.46875 178.296875 202.824219 178.039062 202.203125 C 177.78125 201.582031 177.460938 200.988281 177.085938 200.429688 C 176.710938 199.867188 176.285156 199.351562 175.808594 198.875 C 175.332031 198.398438 174.8125 197.972656 174.25 197.597656 C 173.691406 197.222656 173.097656 196.90625 172.472656 196.648438 C 171.851562 196.390625 171.207031 196.195312 170.546875 196.0625 C 169.882812 195.929688 169.214844 195.863281 168.539062 195.863281 Z M 168.539062 195.863281 " fill-opacity="1" fill-rule="nonzero"/><path fill="#000000" d="M 172.484375 220.753906 C 170.558594 220.757812 168.71875 220.371094 166.957031 219.589844 L 168.328125 216.507812 C 169.652344 217.09375 171.035156 217.382812 172.484375 217.378906 C 173.160156 217.378906 173.828125 217.3125 174.488281 217.179688 C 175.152344 217.050781 175.792969 216.855469 176.417969 216.597656 C 177.042969 216.335938 177.632812 216.019531 178.195312 215.648438 C 178.757812 215.273438 179.273438 214.847656 179.753906 214.371094 C 180.230469 213.894531 180.65625 213.375 181.03125 212.816406 C 181.40625 212.253906 181.722656 211.664062 181.980469 211.042969 C 182.242188 210.417969 182.4375 209.777344 182.570312 209.117188 C 182.699219 208.457031 182.765625 207.789062 182.769531 207.113281 C 182.769531 201.765625 178.589844 197.269531 173.253906 196.875 L 173.503906 193.511719 C 174.378906 193.574219 175.238281 193.722656 176.082031 193.953125 C 176.925781 194.183594 177.742188 194.492188 178.527344 194.878906 C 179.3125 195.265625 180.050781 195.722656 180.75 196.253906 C 181.445312 196.78125 182.085938 197.371094 182.667969 198.023438 C 183.253906 198.675781 183.769531 199.375 184.214844 200.128906 C 184.664062 200.878906 185.035156 201.664062 185.332031 202.488281 C 185.628906 203.308594 185.847656 204.152344 185.980469 205.015625 C 186.113281 205.878906 186.167969 206.746094 186.132812 207.621094 C 186.101562 208.492188 185.984375 209.355469 185.785156 210.207031 C 185.585938 211.058594 185.308594 211.882812 184.953125 212.679688 C 184.59375 213.476562 184.164062 214.234375 183.660156 214.949219 C 183.15625 215.664062 182.589844 216.324219 181.960938 216.933594 C 181.332031 217.539062 180.648438 218.078125 179.914062 218.554688 C 179.179688 219.03125 178.40625 219.429688 177.59375 219.757812 C 176.78125 220.085938 175.945312 220.332031 175.085938 220.5 C 174.226562 220.664062 173.359375 220.75 172.484375 220.75 Z M 172.484375 220.753906 " fill-opacity="1" fill-rule="nonzero"/><path fill="#000000" d="M 196.429688 290.640625 C 195.53125 290.640625 194.644531 290.550781 193.765625 290.378906 C 192.886719 290.203125 192.03125 289.945312 191.203125 289.601562 C 190.371094 289.257812 189.585938 288.839844 188.839844 288.339844 C 188.09375 287.84375 187.402344 287.277344 186.769531 286.644531 C 186.136719 286.011719 185.570312 285.324219 185.070312 284.578125 C 184.570312 283.832031 184.152344 283.046875 183.808594 282.21875 C 183.464844 281.390625 183.207031 280.539062 183.03125 279.660156 C 182.855469 278.78125 182.769531 277.894531 182.769531 277 C 182.769531 276.105469 182.855469 275.21875 183.03125 274.339844 C 183.207031 273.460938 183.464844 272.609375 183.808594 271.78125 C 184.152344 270.953125 184.570312 270.167969 185.070312 269.421875 C 185.570312 268.679688 186.136719 267.988281 186.769531 267.355469 C 187.402344 266.722656 188.09375 266.15625 188.839844 265.660156 C 189.585938 265.164062 190.371094 264.742188 191.203125 264.398438 C 192.03125 264.058594 192.886719 263.796875 193.765625 263.625 C 194.644531 263.449219 195.53125 263.363281 196.429688 263.363281 C 197.328125 263.363281 198.214844 263.449219 199.09375 263.625 C 199.976562 263.796875 200.828125 264.058594 201.660156 264.398438 C 202.488281 264.742188 203.273438 265.164062 204.019531 265.660156 C 204.765625 266.15625 205.457031 266.722656 206.089844 267.355469 C 206.726562 267.988281 207.292969 268.679688 207.789062 269.421875 C 208.289062 270.167969 208.707031 270.953125 209.050781 271.78125 C 209.394531 272.609375 209.65625 273.460938 209.828125 274.339844 C 210.003906 275.21875 210.09375 276.105469 210.09375 277 C 210.089844 277.894531 210.003906 278.78125 209.828125 279.660156 C 209.652344 280.539062 209.390625 281.390625 209.046875 282.21875 C 208.703125 283.042969 208.285156 283.828125 207.785156 284.574219 C 207.285156 285.320312 206.71875 286.007812 206.085938 286.640625 C 205.453125 287.273438 204.761719 287.839844 204.015625 288.335938 C 203.269531 288.832031 202.484375 289.253906 201.65625 289.597656 C 200.828125 289.941406 199.972656 290.199219 199.09375 290.375 C 198.214844 290.550781 197.328125 290.636719 196.429688 290.640625 Z M 196.429688 266.734375 C 195.753906 266.734375 195.085938 266.800781 194.421875 266.929688 C 193.761719 267.0625 193.117188 267.257812 192.496094 267.515625 C 191.871094 267.773438 191.277344 268.089844 190.714844 268.464844 C 190.15625 268.839844 189.636719 269.265625 189.160156 269.742188 C 188.679688 270.21875 188.253906 270.738281 187.878906 271.296875 C 187.503906 271.855469 187.1875 272.449219 186.929688 273.070312 C 186.671875 273.695312 186.476562 274.335938 186.34375 274.996094 C 186.210938 275.660156 186.144531 276.328125 186.144531 277 C 186.144531 277.675781 186.210938 278.34375 186.34375 279.003906 C 186.476562 279.664062 186.671875 280.304688 186.929688 280.929688 C 187.1875 281.550781 187.503906 282.144531 187.878906 282.703125 C 188.253906 283.265625 188.679688 283.78125 189.160156 284.261719 C 189.636719 284.738281 190.15625 285.160156 190.714844 285.535156 C 191.277344 285.910156 191.871094 286.226562 192.496094 286.484375 C 193.117188 286.742188 193.761719 286.9375 194.421875 287.070312 C 195.085938 287.199219 195.753906 287.265625 196.429688 287.265625 C 197.105469 287.265625 197.773438 287.199219 198.4375 287.070312 C 199.097656 286.9375 199.742188 286.742188 200.367188 286.484375 C 200.988281 286.226562 201.582031 285.910156 202.144531 285.535156 C 202.703125 285.160156 203.222656 284.738281 203.703125 284.261719 C 204.179688 283.78125 204.605469 283.265625 204.980469 282.703125 C 205.355469 282.144531 205.671875 281.550781 205.929688 280.929688 C 206.191406 280.304688 206.382812 279.664062 206.515625 279.003906 C 206.648438 278.34375 206.714844 277.675781 206.714844 277 C 206.714844 276.328125 206.648438 275.660156 206.515625 275 C 206.382812 274.335938 206.1875 273.695312 205.929688 273.074219 C 205.667969 272.449219 205.351562 271.859375 204.976562 271.300781 C 204.601562 270.738281 204.175781 270.222656 203.699219 269.746094 C 203.222656 269.269531 202.703125 268.84375 202.140625 268.46875 C 201.578125 268.09375 200.988281 267.777344 200.363281 267.519531 C 199.738281 267.261719 199.097656 267.066406 198.4375 266.933594 C 197.773438 266.800781 197.105469 266.734375 196.429688 266.734375 Z M 196.429688 266.734375 " fill-opacity="1" fill-rule="nonzero"/><g clip-path="url(#a68c26ad7f)"><path fill="#000000" d="M 200.375 291.625 C 198.449219 291.628906 196.605469 291.238281 194.847656 290.460938 L 196.21875 287.378906 C 197.542969 287.964844 198.925781 288.253906 200.375 288.25 C 201.046875 288.25 201.71875 288.183594 202.378906 288.050781 C 203.042969 287.917969 203.683594 287.722656 204.308594 287.464844 C 204.929688 287.207031 205.523438 286.890625 206.085938 286.515625 C 206.644531 286.140625 207.164062 285.714844 207.640625 285.238281 C 208.121094 284.761719 208.546875 284.246094 208.921875 283.683594 C 209.296875 283.125 209.613281 282.53125 209.871094 281.910156 C 210.128906 281.289062 210.324219 280.648438 210.457031 279.984375 C 210.589844 279.324219 210.65625 278.65625 210.65625 277.984375 C 210.65625 272.636719 206.480469 268.140625 201.144531 267.742188 L 201.394531 264.378906 C 202.269531 264.445312 203.125 264.59375 203.972656 264.824219 C 204.816406 265.054688 205.628906 265.363281 206.414062 265.75 C 207.199219 266.136719 207.941406 266.59375 208.636719 267.121094 C 209.335938 267.652344 209.976562 268.242188 210.558594 268.894531 C 211.140625 269.546875 211.65625 270.246094 212.105469 270.996094 C 212.554688 271.746094 212.925781 272.535156 213.222656 273.355469 C 213.519531 274.179688 213.734375 275.019531 213.871094 275.882812 C 214.003906 276.75 214.054688 277.617188 214.023438 278.488281 C 213.992188 279.363281 213.875 280.226562 213.675781 281.078125 C 213.476562 281.925781 213.199219 282.75 212.839844 283.550781 C 212.484375 284.347656 212.054688 285.105469 211.550781 285.820312 C 211.046875 286.535156 210.480469 287.195312 209.851562 287.800781 C 209.21875 288.40625 208.539062 288.949219 207.804688 289.425781 C 207.070312 289.898438 206.296875 290.300781 205.484375 290.628906 C 204.671875 290.953125 203.835938 291.203125 202.976562 291.367188 C 202.117188 291.535156 201.25 291.617188 200.375 291.617188 Z M 200.375 291.625 " fill-opacity="1" fill-rule="nonzero"/></g></svg>