<svg xmlns="http://www.w3.org/2000/svg" xmlns:xlink="http://www.w3.org/1999/xlink" width="500" zoomAndPan="magnify" viewBox="0 0 375 374.999991" height="500" preserveAspectRatio="xMidYMid meet" version="1.0"><defs><clipPath id="bfbce56f07"><path d="M 174 21.339844 L 189 21.339844 L 189 28 L 174 28 Z M 174 21.339844 " clip-rule="nonzero"/></clipPath></defs><path fill="#000000" d="M 332.398438 207.78125 C 322.441406 199.613281 310.769531 193.226562 299.691406 186.773438 C 293.957031 183.480469 288.152344 180.1875 282.285156 177.089844 C 289.207031 168.992188 295.605469 160.5625 301.539062 151.605469 C 314.726562 131.582031 329.894531 103.394531 312.351562 81.203125 C 304.242188 70.863281 291.515625 68.558594 279.382812 72.507812 C 266.328125 76.789062 253.996094 84.496094 242.128906 91.210938 C 236.191406 94.570312 230.324219 98.128906 224.457031 101.75 C 224.457031 101.75 224.457031 101.75 224.390625 101.683594 C 220.300781 90.488281 215.488281 79.488281 209.816406 68.753906 C 198.871094 48.339844 182.253906 23.707031 155.550781 27.398438 C 138.539062 29.769531 132.601562 42.808594 130.492188 57.492188 C 128.449219 57.230469 126.339844 57.296875 124.359375 57.824219 C 117.765625 59.535156 114.734375 65.792969 114.007812 72.179688 C 113.347656 78.371094 117.898438 83.375 122.976562 86.207031 C 124.953125 87.328125 127.128906 88.25 129.371094 88.90625 C 129.371094 99.511719 129.636719 110.179688 130.230469 120.847656 C 122.316406 119.136719 114.46875 117.6875 106.558594 116.304688 C 93.105469 114 78.53125 110.773438 64.75 111.761719 C 53.015625 112.617188 40.617188 117.621094 34.683594 128.488281 C 28.285156 140.277344 32.507812 153.515625 39.890625 163.722656 C 53.871094 182.953125 75.894531 197.046875 96.007812 209.164062 C 92.578125 212.984375 89.214844 216.867188 85.984375 220.753906 C 84.402344 222.597656 82.820312 224.507812 81.234375 226.417969 C 80.773438 226.15625 80.378906 225.957031 79.917969 225.757812 C 74.773438 223.585938 68.511719 223.058594 63.367188 225.429688 C 57.433594 228.0625 54.070312 235.570312 56.441406 241.695312 C 57.761719 245.054688 60.203125 248.019531 62.839844 250.652344 C 62.179688 251.707031 61.519531 252.761719 60.925781 253.816406 C 54.726562 264.878906 52.023438 279.105469 58.816406 290.628906 C 64.949219 300.902344 76.753906 304.589844 88.160156 304.195312 C 99.765625 303.800781 111.171875 300.242188 121.921875 296.027344 C 134.054688 291.289062 145.921875 285.691406 157.394531 279.566406 C 158.449219 278.972656 159.503906 278.445312 160.5625 277.851562 C 163.265625 285.691406 166.164062 293.460938 169.199219 301.101562 C 174.34375 314.074219 179.089844 328.496094 188.519531 339.035156 C 196.367188 347.792969 209.027344 353.457031 220.761719 349.835938 C 231.117188 346.671875 237.777344 337.585938 241.863281 328.035156 C 250.105469 309.003906 251.753906 286.546875 252.214844 265.601562 C 260.65625 266.921875 269.164062 267.90625 277.734375 268.304688 C 279.582031 274.230469 284.261719 279.300781 290.132812 281.476562 C 298.503906 284.570312 308.859375 280.355469 312.222656 271.925781 C 312.285156 271.925781 312.285156 271.925781 312.285156 271.859375 C 313.738281 269.882812 314.527344 267.710938 314.660156 265.472656 C 329.363281 261.585938 342.089844 253.222656 345.125 236.558594 C 347.035156 224.902344 341.167969 214.894531 332.398438 207.78125 Z M 166.824219 261.71875 C 164.453125 254.40625 162.210938 247.03125 160.097656 239.65625 C 169.660156 243.210938 179.289062 246.570312 188.914062 249.664062 C 181.53125 253.617188 174.144531 257.699219 166.824219 261.71875 Z M 140.449219 134.480469 C 149.550781 136.589844 158.648438 138.960938 167.617188 141.460938 C 159.441406 147.914062 151.394531 154.632812 143.546875 161.546875 C 142.230469 152.527344 141.242188 143.503906 140.449219 134.480469 Z M 231.117188 145.742188 C 231.839844 148.3125 232.5 150.878906 233.09375 153.515625 C 218.71875 147.390625 204.148438 141.921875 189.375 136.984375 C 199.664062 129.148438 210.214844 121.703125 221.09375 114.722656 C 224.984375 124.933594 228.28125 135.335938 231.117188 145.742188 Z M 235.929688 165.238281 C 238.304688 175.640625 240.414062 186.046875 242.457031 196.519531 C 242.523438 200.734375 242.457031 204.949219 242.324219 209.230469 C 242.324219 209.230469 242.324219 209.230469 242.324219 209.296875 C 231.246094 219.898438 219.640625 229.910156 207.90625 239.851562 C 204.082031 241.960938 200.191406 243.9375 196.300781 245.910156 C 183.507812 242.222656 170.847656 237.941406 158.320312 233.53125 C 152.976562 213.972656 148.691406 194.214844 145.394531 174.257812 C 156.339844 164.050781 167.617188 154.304688 179.289062 145.019531 C 198.542969 150.683594 217.464844 157.398438 235.929688 165.238281 Z M 145.59375 227.078125 C 134.710938 220.492188 124.097656 213.246094 113.152344 206.792969 C 113.085938 206.726562 113.019531 206.726562 112.953125 206.660156 C 120.667969 198.363281 128.582031 190.261719 136.691406 182.425781 C 139.066406 197.507812 142.03125 212.390625 145.59375 227.078125 Z M 242.128906 217.527344 C 241.796875 225.957031 241.46875 234.320312 241.46875 242.683594 C 241.46875 247.097656 241.46875 251.507812 241.335938 255.921875 C 229.136719 254.011719 217.070312 251.378906 205.269531 248.28125 C 217.863281 238.402344 230.191406 228.261719 242.128906 217.527344 Z M 242.390625 168.003906 C 251.492188 171.953125 260.394531 176.167969 269.230469 180.714844 C 262.699219 188.484375 255.84375 195.925781 248.65625 203.105469 C 246.808594 191.316406 244.765625 179.59375 242.390625 168.003906 Z M 258.214844 92.660156 C 268.570312 86.996094 282.480469 77.25 294.878906 79.886719 C 305.691406 82.257812 311.230469 94.375 311.296875 104.515625 C 311.363281 117.425781 304.703125 129.34375 298.308594 140.078125 C 291.449219 151.605469 283.667969 162.734375 275.230469 173.335938 C 263.625 167.277344 251.820312 161.613281 239.886719 156.410156 C 239.226562 153.449219 238.5 150.417969 237.777344 147.453125 C 234.808594 135.007812 231.445312 122.691406 227.421875 110.707031 C 237.511719 104.320312 247.734375 98.390625 258.214844 92.660156 Z M 138.933594 112.550781 C 138.601562 104.84375 138.472656 97.207031 138.40625 89.566406 C 139.988281 89.105469 141.503906 88.382812 142.890625 87.261719 C 148.164062 84.957031 152.910156 79.949219 151.261719 73.761719 C 150.539062 71.058594 148.957031 68.625 147.109375 66.582031 C 146.1875 65.59375 145.195312 64.671875 144.140625 63.882812 C 143.8125 63.617188 143.417969 63.355469 143.019531 63.027344 L 142.757812 62.761719 C 142.625 62.628906 142.425781 62.5 142.296875 62.433594 C 141.703125 61.972656 141.109375 61.578125 140.449219 61.183594 C 139.988281 60.851562 139.527344 60.589844 139 60.324219 C 139.527344 53.015625 141.175781 45.707031 146.449219 40.898438 C 154.496094 33.585938 167.417969 35.367188 175.992188 40.632812 C 181.992188 44.257812 186.804688 49.394531 190.828125 55.058594 C 190.894531 55.121094 190.894531 55.1875 190.957031 55.1875 C 186.605469 52.753906 182.058594 50.511719 177.441406 48.601562 C 176.320312 48.140625 175.527344 50.050781 176.648438 50.511719 C 182.121094 52.949219 187.464844 55.847656 192.476562 59.140625 C 193.332031 59.667969 194.125 60.324219 194.980469 60.917969 C 196.300781 62.960938 197.554688 65.066406 198.738281 67.175781 C 203.15625 74.683594 207.246094 82.386719 210.9375 90.355469 C 210.9375 90.355469 210.9375 90.421875 211.003906 90.421875 C 210.015625 89.699219 209.09375 88.972656 208.101562 88.25 C 200.320312 82.78125 192.078125 78.304688 183.179688 75.011719 C 182.714844 74.8125 182.386719 75.605469 182.847656 75.867188 C 190.894531 80.082031 198.804688 84.824219 206.191406 90.226562 C 208.828125 92.136719 211.335938 94.175781 213.773438 96.285156 C 215.222656 99.445312 216.542969 102.671875 217.863281 105.898438 C 204.34375 114.460938 191.089844 123.679688 178.296875 133.363281 C 168.078125 130.199219 157.726562 127.367188 147.375 124.800781 C 144.867188 124.140625 142.296875 123.546875 139.789062 122.957031 C 139.328125 119.464844 139.128906 115.976562 138.933594 112.550781 Z M 93.105469 194.542969 C 93.039062 194.542969 93.039062 194.476562 92.972656 194.476562 C 92.578125 194.015625 92.117188 193.621094 91.71875 193.160156 C 90.269531 191.578125 88.820312 190 87.5 188.351562 C 84.664062 184.863281 82.027344 181.238281 79.585938 177.421875 C 74.972656 170.109375 71.148438 162.273438 67.324219 154.566406 C 67.191406 154.304688 66.859375 154.5 66.925781 154.765625 C 68.511719 163.65625 72.070312 171.820312 76.816406 179.527344 C 78.402344 182.097656 80.113281 184.53125 81.828125 186.96875 C 75.566406 182.621094 69.5 177.945312 63.761719 173.007812 C 62.3125 171.757812 60.925781 170.503906 59.476562 169.1875 C 58.289062 166.09375 57.234375 162.996094 56.246094 159.835938 C 54.199219 153.25 52.816406 146.335938 51.5625 139.550781 C 51.429688 138.828125 50.3125 139.023438 50.3125 139.75 C 49.980469 146.929688 50.96875 153.84375 52.683594 160.824219 C 52.882812 161.613281 53.144531 162.339844 53.34375 163.0625 C 49.847656 159.175781 46.816406 155.027344 44.640625 150.351562 C 39.496094 139.023438 44.773438 128.554688 56.3125 124.535156 C 68.378906 120.386719 82.753906 123.8125 95.015625 125.65625 C 107.085938 127.5 119.085938 129.738281 130.953125 132.375 C 131.878906 144.753906 133.128906 157.203125 134.84375 169.515625 C 127.523438 176.167969 120.46875 183.019531 113.613281 190.066406 C 110.117188 193.621094 106.6875 197.242188 103.390625 200.929688 C 99.898438 198.824219 96.46875 196.714844 93.105469 194.542969 Z M 107.480469 289.246094 C 98.84375 291.945312 89.082031 294.316406 80.050781 292.539062 C 67.785156 290.101562 63.5625 278.378906 66.859375 267.183594 C 67.917969 263.757812 69.367188 260.464844 71.214844 257.304688 C 73.519531 258.425781 76.027344 259.148438 78.730469 259.015625 C 88.753906 258.554688 91.851562 247.425781 90.070312 239.0625 C 90.070312 238.929688 90.070312 238.800781 90.007812 238.734375 C 89.742188 237.21875 89.347656 235.769531 88.753906 234.386719 C 94.226562 227.667969 99.765625 221.214844 105.5 214.761719 C 109.789062 217.265625 114.074219 219.570312 118.492188 221.742188 C 118.492188 222.269531 118.753906 222.796875 119.347656 223.058594 C 128.644531 227.140625 138.074219 231.027344 147.570312 234.78125 C 149.679688 243.144531 152.054688 251.507812 154.558594 259.742188 C 155.285156 262.246094 156.078125 264.679688 156.933594 267.117188 C 141.109375 275.8125 124.691406 283.976562 107.480469 289.246094 Z M 204.148438 337.386719 C 192.671875 331.328125 187.859375 317.695312 183.179688 306.433594 C 178.496094 295.105469 174.210938 283.648438 170.253906 272.121094 C 174.144531 269.882812 177.96875 267.511719 181.792969 265.011719 C 182.253906 265.273438 182.847656 265.339844 183.308594 264.945312 C 188.652344 260.992188 194.058594 256.976562 199.332031 252.957031 C 199.597656 253.023438 199.792969 253.089844 200.058594 253.222656 C 213.640625 257.304688 227.355469 260.925781 241.203125 263.628906 C 241.136719 266.328125 241.074219 269.027344 240.875 271.726562 C 240.875 271.726562 240.875 271.792969 240.875 271.792969 C 239.425781 275.21875 237.710938 278.644531 235.730469 281.804688 C 234.675781 283.515625 233.488281 285.097656 232.238281 286.675781 C 232.238281 286.613281 232.171875 286.546875 232.105469 286.546875 C 231.90625 286.546875 231.90625 286.808594 232.039062 286.875 C 228.609375 291.15625 224.71875 295.042969 221.160156 299.191406 C 220.960938 299.386719 221.160156 299.847656 221.488281 299.71875 C 228.808594 296.753906 234.347656 290.496094 238.765625 284.175781 C 239.292969 283.382812 239.753906 282.59375 240.214844 281.804688 C 240.214844 281.804688 240.214844 281.871094 240.214844 281.871094 C 240.28125 281.9375 240.214844 281.9375 240.214844 281.9375 C 239.6875 288.519531 238.832031 295.105469 237.644531 301.628906 C 236.0625 304.984375 234.148438 308.277344 231.972656 311.242188 C 227.421875 317.5 221.421875 322.636719 215.554688 327.640625 C 215.289062 327.839844 215.554688 328.300781 215.882812 328.167969 C 223.664062 325.664062 229.863281 320.265625 234.941406 313.941406 C 230.523438 329.089844 221.421875 346.542969 204.148438 337.386719 Z M 327.453125 249.402344 C 323.101562 253.355469 317.824219 255.789062 312.15625 257.304688 C 311.429688 256.183594 310.441406 255.132812 309.386719 254.210938 C 304.507812 250.0625 297.78125 247.625 291.316406 248.085938 C 288.21875 248.347656 285.121094 249.074219 282.480469 250.785156 C 279.316406 252.894531 277.472656 255.921875 276.878906 259.542969 C 268.636719 259.214844 260.394531 258.554688 252.214844 257.570312 L 252.214844 257.304688 C 252.28125 248.546875 252.148438 239.851562 251.621094 231.09375 C 252.085938 230.765625 252.414062 230.371094 252.347656 229.710938 C 251.558594 223.324219 250.699219 216.867188 249.777344 210.480469 C 258.679688 202.25 267.183594 193.820312 275.296875 184.929688 C 275.824219 185.390625 276.417969 185.851562 276.945312 186.3125 C 279.976562 189.144531 282.8125 192.238281 285.515625 195.398438 C 290.921875 201.589844 295.539062 208.636719 299.625 215.816406 C 300.023438 216.472656 301.144531 216.011719 300.878906 215.289062 C 299.496094 211.269531 297.914062 207.320312 295.734375 203.632812 C 293.558594 199.878906 291.054688 196.320312 288.417969 192.960938 C 287.363281 191.578125 286.175781 190.261719 284.988281 188.945312 C 284.988281 188.945312 285.054688 188.945312 285.054688 188.945312 C 291.1875 192.238281 297.121094 195.726562 303.054688 199.285156 C 305.824219 202.25 308.460938 205.410156 311.035156 208.636719 C 316.375 215.417969 321.121094 222.796875 325.34375 230.304688 C 325.671875 230.832031 326.597656 230.5 326.332031 229.910156 C 323.101562 221.675781 318.945312 214.167969 313.738281 207.054688 C 313.078125 206.132812 312.351562 205.34375 311.695312 204.421875 C 311.695312 204.421875 311.757812 204.488281 311.757812 204.488281 C 319.210938 208.835938 326.992188 213.640625 332.199219 220.226562 C 339.71875 229.777344 335.828125 241.761719 327.453125 249.402344 Z M 327.453125 249.402344 " fill-opacity="1" fill-rule="nonzero"/><path fill="#000000" d="M 196.828125 211.929688 C 198.609375 212.324219 200.453125 212.457031 202.234375 212.191406 C 204.34375 211.863281 206.585938 210.21875 207.90625 208.636719 C 210.804688 205.34375 212.058594 201.390625 212.191406 197.046875 C 212.453125 188.746094 208.367188 180.25 201.707031 175.3125 C 194.652344 170.109375 184.101562 170.109375 177.113281 175.445312 C 170.453125 180.582031 167.484375 189.472656 169.398438 197.574219 C 172.035156 209.03125 185.75 217.660156 196.828125 211.929688 Z M 180.078125 182.226562 C 181.199219 181.109375 181.859375 180.714844 183.507812 179.789062 C 183.96875 179.527344 184.234375 179.460938 185.15625 179.199219 C 185.550781 179.066406 185.949219 179 186.410156 178.867188 C 186.605469 178.804688 186.738281 178.804688 186.9375 178.738281 C 187.070312 178.738281 187.132812 178.671875 187.199219 178.671875 C 187.199219 178.671875 187.265625 178.671875 187.265625 178.671875 C 189.046875 178.472656 190.894531 178.539062 192.410156 178.867188 C 193.136719 179 193.859375 179.265625 194.585938 179.460938 C 195.113281 179.660156 194.519531 179.394531 195.179688 179.726562 C 195.574219 179.921875 195.96875 180.121094 196.367188 180.382812 C 197.816406 181.238281 198.210938 181.570312 199.53125 182.886719 C 199.792969 183.148438 200.058594 183.480469 200.320312 183.808594 C 200.785156 184.335938 200.386719 183.875 200.71875 184.269531 C 201.179688 184.929688 201.640625 185.585938 201.96875 186.3125 C 202.167969 186.640625 202.367188 187.035156 202.5 187.429688 C 202.828125 188.15625 202.5625 187.429688 202.761719 187.957031 C 203.027344 188.683594 203.289062 189.472656 203.554688 190.261719 C 203.75 191.050781 203.949219 191.84375 204.082031 192.632812 C 204.082031 192.765625 204.082031 192.765625 204.148438 192.832031 C 204.148438 192.898438 204.148438 192.898438 204.148438 192.960938 C 204.210938 193.421875 204.210938 193.882812 204.277344 194.34375 C 204.34375 195.265625 204.277344 196.125 204.210938 197.046875 C 204.210938 197.242188 204.148438 197.375 204.148438 197.574219 C 204.148438 197.574219 204.148438 197.636719 204.148438 197.636719 C 204.082031 198.035156 204.015625 198.363281 203.882812 198.757812 C 203.75 199.152344 203.683594 199.613281 203.554688 200.007812 C 203.488281 200.140625 203.355469 200.601562 203.222656 200.867188 C 203.089844 201.128906 202.828125 201.722656 202.894531 201.722656 C 202.894531 201.789062 202.828125 201.984375 202.761719 202.117188 C 202.695312 202.3125 202.433594 202.839844 202.367188 202.972656 C 201.96875 203.695312 201.507812 204.355469 201.046875 205.015625 C 200.980469 205.144531 200.585938 205.671875 200.585938 205.738281 C 200.320312 206.066406 200.058594 206.332031 199.792969 206.59375 C 198.609375 207.976562 197.816406 209.425781 196.496094 210.679688 C 191.484375 210.613281 186.410156 208.042969 182.519531 205.082031 C 181.265625 204.15625 179.550781 202.511719 178.890625 201.589844 C 178.429688 200.929688 177.96875 200.273438 177.574219 199.613281 C 177.375 199.21875 177.175781 198.890625 176.980469 198.496094 C 176.980469 198.496094 176.914062 198.363281 176.847656 198.230469 C 176.78125 198.097656 176.648438 197.636719 176.648438 197.636719 C 174.804688 192.171875 176.054688 186.179688 180.078125 182.226562 Z M 180.078125 182.226562 " fill-opacity="1" fill-rule="nonzero"/><path fill="#000000" d="M 320.53125 136.65625 C 319.078125 139.089844 317.429688 141.460938 315.648438 143.636719 C 314 145.675781 312.023438 147.519531 310.507812 149.695312 C 309.253906 151.539062 311.695312 153.84375 313.539062 152.722656 C 318.15625 149.824219 321.78125 144.097656 324.417969 139.421875 C 327.320312 134.347656 329.496094 128.75 330.882812 123.085938 C 333.652344 111.695312 333.191406 99.640625 329.363281 88.511719 C 328.640625 86.535156 325.539062 87.328125 326.132812 89.367188 C 329.429688 99.90625 329.628906 111.234375 326.726562 121.902344 C 325.277344 127.105469 323.234375 132.042969 320.53125 136.65625 Z M 320.53125 136.65625 " fill-opacity="1" fill-rule="nonzero"/><path fill="#000000" d="M 306.945312 157.53125 C 306.617188 157.664062 306.285156 157.730469 305.957031 157.859375 C 305.296875 158.125 304.96875 158.585938 304.570312 159.175781 C 304.109375 159.835938 303.648438 160.496094 303.253906 161.152344 C 302.394531 162.535156 301.472656 163.851562 300.484375 165.105469 C 299.429688 166.421875 298.242188 167.542969 297.1875 168.792969 C 296.066406 170.042969 294.878906 171.296875 293.625 172.414062 C 293.03125 172.941406 293.824219 173.796875 294.484375 173.535156 C 296.066406 172.808594 297.582031 171.953125 299.03125 171.03125 C 300.550781 170.109375 301.867188 168.792969 303.121094 167.542969 C 304.441406 166.222656 305.628906 164.839844 306.683594 163.390625 C 307.210938 162.734375 307.605469 162.007812 308 161.285156 C 308.332031 160.757812 308.59375 160.230469 308.527344 159.574219 C 308.527344 159.113281 308.332031 158.714844 308.265625 158.253906 C 308.066406 157.730469 307.472656 157.398438 306.945312 157.53125 Z M 306.945312 157.53125 " fill-opacity="1" fill-rule="nonzero"/><path fill="#000000" d="M 196.300781 37.867188 C 198.082031 39.121094 199.730469 40.503906 201.3125 41.953125 C 204.410156 44.785156 207.378906 47.878906 209.882812 51.304688 C 214.894531 58.152344 217.796875 66.054688 221.421875 73.628906 C 221.554688 73.890625 221.949219 73.761719 221.949219 73.496094 C 222.410156 64.671875 218.191406 56.109375 213.246094 49 C 210.742188 45.308594 207.839844 41.820312 204.476562 38.855469 C 202.894531 37.40625 201.246094 36.089844 199.53125 34.839844 C 197.882812 33.585938 195.640625 31.613281 193.53125 31.28125 C 192.078125 31.085938 190.167969 32.601562 191.355469 34.113281 C 192.605469 35.761719 194.652344 36.683594 196.300781 37.867188 Z M 196.300781 37.867188 " fill-opacity="1" fill-rule="nonzero"/><g clip-path="url(#bfbce56f07)"><path fill="#000000" d="M 175 23.972656 C 176.054688 24.105469 177.046875 24.367188 178.035156 24.695312 C 179.089844 25.09375 180.144531 25.289062 181.199219 25.683594 C 181.660156 25.882812 181.726562 25.882812 182.320312 26.210938 C 182.78125 26.476562 183.308594 26.738281 183.769531 27 C 183.96875 27.132812 184.234375 27.199219 184.429688 27.332031 C 184.5625 27.398438 184.628906 27.460938 184.496094 27.332031 C 184.828125 27.460938 185.15625 27.660156 185.484375 27.792969 C 186.144531 27.988281 186.738281 27.792969 187.332031 27.59375 C 187.726562 27.460938 187.925781 27.132812 187.992188 26.738281 C 188.058594 26.144531 188.058594 25.488281 187.726562 24.960938 C 187.332031 24.367188 186.539062 23.707031 185.949219 23.378906 C 184.828125 22.785156 183.574219 22.324219 182.320312 22.0625 C 181.199219 21.800781 179.882812 21.46875 178.695312 21.601562 C 177.441406 21.734375 176.253906 21.996094 175.066406 22.390625 C 174.277344 22.589844 174.078125 23.839844 175 23.972656 Z M 175 23.972656 " fill-opacity="1" fill-rule="nonzero"/></g><path fill="#000000" d="M 124.820312 300.046875 C 120.535156 300.835938 116.777344 302.878906 112.6875 304.261719 C 108.402344 305.710938 104.050781 306.699219 99.566406 307.421875 C 95.082031 308.148438 90.597656 308.609375 86.050781 309.070312 C 81.699219 309.464844 77.34375 309.726562 73.191406 311.109375 C 72.925781 311.175781 72.925781 311.570312 73.191406 311.636719 C 77.542969 312.824219 82.027344 312.824219 86.511719 312.691406 C 91.257812 312.558594 96.007812 312.230469 100.6875 311.503906 C 105.304688 310.847656 109.855469 309.792969 114.273438 308.34375 C 118.625 306.894531 122.84375 305.382812 125.8125 301.691406 C 126.46875 300.96875 125.875 299.847656 124.820312 300.046875 Z M 124.820312 300.046875 " fill-opacity="1" fill-rule="nonzero"/><path fill="#000000" d="M 142.425781 293.394531 C 141.042969 294.382812 139.59375 295.304688 138.074219 296.027344 C 137.746094 296.226562 137.351562 296.359375 137.019531 296.554688 C 136.824219 296.621094 136.625 296.753906 136.425781 296.820312 C 136.425781 296.820312 136.359375 296.820312 136.359375 296.820312 C 136.296875 296.820312 136.03125 296.949219 136.097656 296.949219 C 135.636719 297.148438 135.109375 297.28125 134.648438 297.542969 C 134.25 297.742188 133.921875 298.003906 133.589844 298.203125 C 132.933594 298.597656 131.878906 299.585938 132.007812 300.507812 C 132.140625 301.496094 133.722656 301.824219 134.582031 301.757812 C 135.042969 301.691406 135.4375 301.628906 135.898438 301.5625 C 136.492188 301.429688 137.019531 301.230469 137.546875 300.96875 C 138.339844 300.574219 139.066406 300.179688 139.789062 299.78125 C 141.503906 298.796875 143.152344 297.609375 144.734375 296.292969 C 145.394531 295.699219 145.394531 294.582031 144.867188 293.921875 C 144.273438 293.261719 143.152344 292.867188 142.425781 293.394531 Z M 142.425781 293.394531 " fill-opacity="1" fill-rule="nonzero"/><path fill="#000000" d="M 258.679688 291.023438 C 259.46875 299.78125 258.546875 308.671875 256.105469 317.105469 C 254.917969 321.382812 253.269531 325.535156 251.226562 329.484375 C 249.578125 332.710938 246.085938 336.398438 246.085938 340.085938 C 246.085938 340.613281 246.613281 341.007812 247.074219 340.8125 C 250.898438 339.625 253.074219 334.292969 254.722656 331 C 256.765625 326.851562 258.480469 322.503906 259.667969 318.027344 C 262.105469 309.070312 262.4375 299.78125 261.050781 290.628906 C 260.789062 289.378906 258.546875 289.707031 258.679688 291.023438 Z M 258.679688 291.023438 " fill-opacity="1" fill-rule="nonzero"/><path fill="#000000" d="M 241.46875 344.171875 C 241.074219 344.171875 240.609375 344.171875 240.214844 344.171875 C 239.753906 344.171875 239.359375 344.300781 238.898438 344.433594 C 238.367188 344.566406 237.839844 344.699219 237.378906 344.960938 C 236.984375 345.160156 236.589844 345.355469 236.191406 345.554688 C 235.402344 345.949219 234.675781 346.34375 233.886719 346.738281 C 233.6875 346.804688 233.488281 346.9375 233.359375 347.003906 C 233.027344 347.199219 232.765625 347.464844 232.5 347.792969 C 232.238281 348.121094 232.039062 348.453125 231.773438 348.714844 C 231.3125 349.308594 231.90625 350.164062 232.632812 350.164062 C 233.027344 350.164062 233.488281 350.164062 233.886719 350.164062 C 234.480469 350.164062 234.941406 349.902344 235.535156 349.636719 C 236.324219 349.242188 237.117188 348.847656 237.972656 348.453125 C 238.367188 348.253906 238.765625 348.121094 239.160156 347.859375 C 239.554688 347.660156 239.886719 347.332031 240.214844 347.070312 C 240.675781 346.738281 241.074219 346.410156 241.402344 346.015625 C 241.667969 345.6875 241.863281 345.355469 242.128906 345.09375 C 242.324219 344.761719 241.929688 344.171875 241.46875 344.171875 Z M 241.46875 344.171875 " fill-opacity="1" fill-rule="nonzero"/><path fill="#000000" d="M 296.988281 93.253906 C 297.449219 94.902344 298.175781 96.480469 298.636719 98.128906 C 299.496094 101.355469 300.023438 104.714844 299.957031 108.136719 C 299.957031 109.058594 300.484375 109.851562 301.210938 110.3125 C 302.066406 110.839844 302.921875 110.773438 303.78125 110.3125 C 304.570312 109.917969 305.035156 108.996094 305.035156 108.136719 C 305.035156 104.253906 304.441406 100.367188 303.054688 96.746094 C 302.332031 94.902344 301.605469 92.992188 300.351562 91.476562 C 299.824219 90.75 299.230469 90.09375 298.570312 89.433594 C 297.914062 88.777344 297.320312 88.382812 296.394531 88.117188 C 296.066406 87.984375 295.734375 88.316406 295.734375 88.578125 C 295.734375 89.5 295.867188 90.160156 296.199219 91.015625 C 296.527344 91.738281 296.792969 92.53125 296.988281 93.253906 Z M 296.988281 93.253906 " fill-opacity="1" fill-rule="nonzero"/><path fill="#000000" d="M 195.773438 188.285156 C 195.839844 188.878906 195.96875 189.339844 196.101562 189.867188 C 196.167969 190.066406 196.234375 190.328125 196.234375 190.527344 C 196.234375 190.65625 196.300781 190.722656 196.300781 190.855469 C 196.300781 190.921875 196.300781 190.921875 196.300781 190.921875 C 196.367188 191.84375 196.433594 192.765625 196.433594 193.6875 C 196.433594 193.949219 196.433594 194.148438 196.367188 194.34375 C 196.367188 194.476562 196.367188 194.542969 196.367188 194.675781 C 196.300781 195.136719 196.167969 195.597656 196.035156 196.058594 C 195.773438 197.113281 196.433594 198.429688 197.488281 198.691406 C 198.542969 198.957031 199.859375 198.363281 200.125 197.242188 C 200.125 197.175781 200.125 197.113281 200.191406 197.046875 C 200.191406 197.046875 200.191406 196.980469 200.191406 196.980469 C 200.71875 194.742188 200.785156 192.4375 200.058594 190.261719 C 199.664062 189.144531 199.265625 187.890625 198.410156 187.101562 C 197.683594 186.375 196.828125 185.785156 195.96875 185.191406 C 195.441406 184.863281 194.980469 185.519531 195.179688 185.980469 C 195.574219 186.707031 195.707031 187.496094 195.773438 188.285156 Z M 199.398438 194.804688 C 199.332031 194.804688 199.332031 194.742188 199.265625 194.742188 C 199.53125 194.804688 199.53125 194.871094 199.398438 194.804688 Z M 198.804688 194.476562 C 198.738281 194.476562 198.671875 194.476562 198.609375 194.476562 C 198.410156 194.410156 198.410156 194.34375 198.804688 194.476562 Z M 198.804688 194.476562 " fill-opacity="1" fill-rule="nonzero"/></svg>