<svg xmlns="http://www.w3.org/2000/svg" xmlns:xlink="http://www.w3.org/1999/xlink" width="500" zoomAndPan="magnify" viewBox="0 0 375 374.999991" height="500" preserveAspectRatio="xMidYMid meet" version="1.0"><defs><clipPath id="db2916d2af"><path d="M 25 51 L 350.210938 51 L 350.210938 326.976562 L 25 326.976562 Z M 25 51 " clip-rule="nonzero"/></clipPath></defs><g clip-path="url(#db2916d2af)"><path fill="#000000" d="M 348.578125 176.738281 C 347.59375 175.757812 346.265625 175.207031 344.875 175.207031 L 280.410156 175.207031 C 255.949219 175.207031 252.675781 172.773438 236.957031 161.097656 C 233.609375 158.609375 229.8125 155.789062 225.175781 152.507812 C 214.414062 144.894531 202.789062 139.261719 190.539062 135.703125 L 212.191406 98.199219 C 215.902344 91.769531 216.886719 84.265625 214.957031 77.070312 C 213.027344 69.871094 208.425781 63.863281 202 60.152344 L 194.164062 55.628906 C 180.863281 47.949219 163.796875 52.523438 156.121094 65.824219 L 112.160156 141.972656 C 106.652344 144.554688 101.277344 147.597656 96.164062 151.042969 L 69.148438 169.253906 C 58.832031 176.207031 51.773438 184.789062 46.941406 196.253906 L 27.203125 243.074219 C 24.804688 248.765625 25.121094 255.71875 28.074219 262.144531 C 30.71875 267.902344 35.230469 272.636719 40.527344 275.371094 L 40.527344 321.738281 C 40.527344 323.609375 41.527344 325.335938 43.144531 326.269531 C 43.957031 326.738281 44.859375 326.972656 45.761719 326.972656 C 46.667969 326.972656 47.570312 326.738281 48.378906 326.269531 L 95.386719 299.128906 C 96.183594 298.667969 96.84375 298.007812 97.300781 297.214844 L 102.988281 287.367188 C 104.605469 297.734375 113.59375 305.695312 124.410156 305.695312 C 130.988281 305.695312 136.886719 302.753906 140.867188 298.117188 C 141.226562 298.53125 141.601562 298.9375 141.992188 299.332031 C 146.097656 303.433594 151.539062 305.695312 157.3125 305.695312 C 164.042969 305.695312 170.355469 302.464844 174.414062 297.28125 C 185.769531 303.84375 198.574219 308.203125 216.121094 308.203125 C 216.171875 308.203125 216.230469 308.203125 216.28125 308.203125 L 344.875 308.109375 C 347.765625 308.109375 350.109375 305.765625 350.109375 302.875 L 350.109375 180.441406 C 350.109375 179.050781 349.558594 177.71875 348.578125 176.738281 Z M 165.1875 71.058594 C 169.980469 62.757812 180.628906 59.902344 188.929688 64.695312 L 196.765625 69.21875 C 200.773438 71.53125 203.640625 75.28125 204.847656 79.777344 C 206.050781 84.273438 205.441406 88.957031 203.128906 92.964844 L 136.878906 207.722656 C 136.558594 207.554688 136.238281 207.390625 135.914062 207.222656 C 124.085938 201.109375 111.855469 194.796875 96.363281 190.273438 Z M 36.851562 247.140625 L 56.585938 200.320312 C 60.59375 190.816406 66.445312 183.699219 75 177.933594 L 101.84375 159.839844 L 84.957031 189.089844 C 81.210938 189.496094 77.550781 190.679688 74.179688 192.625 C 67.824219 196.296875 63.285156 202.199219 61.394531 209.246094 C 59.710938 215.53125 60.371094 221.902344 62.824219 227.433594 L 41.894531 263.683594 C 40.132812 262.085938 38.640625 260.066406 37.585938 257.773438 C 35.855469 254.011719 35.585938 250.132812 36.851562 247.140625 Z M 50.996094 276.519531 L 82.300781 294.597656 L 50.996094 312.671875 Z M 90.855469 287.445312 L 52.914062 265.539062 L 69.550781 236.71875 C 72.65625 239.519531 76.4375 241.652344 80.742188 242.8125 C 92.085938 246.011719 101.757812 249.78125 110.242188 253.859375 Z M 124.410156 295.226562 C 118.226562 295.226562 113.191406 290.195312 113.191406 284.007812 L 113.191406 269.6875 L 119.535156 258.699219 C 125.4375 262.015625 130.730469 265.464844 135.628906 268.933594 L 135.628906 283.097656 C 135.628906 283.25 135.636719 283.402344 135.652344 283.550781 C 135.636719 283.699219 135.628906 283.855469 135.628906 284.007812 C 135.628906 290.195312 130.597656 295.226562 124.410156 295.226562 Z M 157.3125 295.226562 C 154.335938 295.226562 151.523438 294.054688 149.394531 291.925781 C 147.269531 289.800781 146.097656 286.988281 146.097656 284.007812 C 146.097656 283.855469 146.085938 283.703125 146.074219 283.554688 C 146.085938 283.40625 146.097656 283.253906 146.097656 283.097656 L 146.097656 276.730469 C 147.890625 278.121094 149.652344 279.503906 151.386719 280.863281 C 156.183594 284.632812 160.8125 288.261719 165.546875 291.585938 C 163.453125 293.847656 160.46875 295.226562 157.3125 295.226562 Z M 216.265625 297.734375 C 216.214844 297.734375 216.171875 297.734375 216.125 297.734375 C 189.824219 297.734375 175.707031 286.652344 157.851562 272.628906 C 140.203125 258.769531 120.195312 243.058594 83.554688 232.726562 C 83.53125 232.722656 83.507812 232.714844 83.488281 232.710938 C 79.164062 231.550781 75.527344 228.738281 73.246094 224.789062 C 70.96875 220.839844 70.347656 216.28125 71.507812 211.957031 C 72.671875 207.609375 75.480469 203.964844 79.414062 201.691406 C 83.339844 199.425781 87.890625 198.816406 92.226562 199.96875 C 107.320312 204.226562 119.414062 210.476562 131.109375 216.523438 C 148.46875 225.496094 166.417969 234.777344 193.25 236.835938 C 196.132812 237.058594 198.648438 234.898438 198.871094 232.015625 C 199.089844 229.132812 196.933594 226.617188 194.050781 226.394531 C 174.300781 224.882812 159.960938 219.214844 146.226562 212.464844 L 185.132812 145.070312 C 197.175781 148.238281 208.597656 153.601562 219.132812 161.054688 C 223.664062 164.265625 227.410156 167.046875 230.714844 169.5 C 246.148438 180.964844 251.648438 185.039062 274.351562 185.601562 L 274.351562 297.648438 Z M 339.640625 297.640625 L 284.820312 297.640625 L 284.820312 185.675781 L 339.640625 185.675781 Z M 339.640625 297.640625 " fill-opacity="1" fill-rule="nonzero"/></g></svg>