<svg xmlns="http://www.w3.org/2000/svg" xmlns:xlink="http://www.w3.org/1999/xlink" width="500" zoomAndPan="magnify" viewBox="0 0 375 374.999991" height="500" preserveAspectRatio="xMidYMid meet" version="1.0"><defs><clipPath id="a574d16cd7"><path d="M 47 323 L 324 323 L 324 332.699219 L 47 332.699219 Z M 47 323 " clip-rule="nonzero"/></clipPath><clipPath id="d8f6440c78"><path d="M 47 322 L 324 322 L 324 332.699219 L 47 332.699219 Z M 47 322 " clip-rule="nonzero"/></clipPath></defs><path fill="#2b2b2b" d="M 195.359375 84.273438 C 195.359375 84.273438 184.820312 42.480469 134.058594 67.75 C 83.296875 93.023438 94.125 198.183594 117.984375 204.6875 C 141.84375 211.191406 156.304688 177.457031 156.304688 177.457031 Z M 195.359375 84.273438 " fill-opacity="1" fill-rule="nonzero"/><path fill="#72af9f" d="M 152.484375 101.457031 C 152.484375 101.457031 168.472656 70.363281 202.1875 87.125 C 231.480469 101.6875 152.484375 101.457031 152.484375 101.457031 Z M 152.484375 101.457031 " fill-opacity="1" fill-rule="nonzero"/><path fill="#2b2b2b" d="M 209.644531 92.25 C 207.480469 91.554688 205.261719 91.125 202.996094 90.953125 C 189.296875 89.902344 140.570312 89.222656 131.941406 131.15625 C 121.882812 180.050781 167.28125 210.199219 167.28125 210.199219 L 216.335938 205.4375 C 216.335938 205.4375 251.039062 186.050781 249.257812 151.949219 C 247.703125 122.070312 243.707031 103.140625 209.644531 92.25 Z M 209.644531 92.25 " fill-opacity="1" fill-rule="nonzero"/><path fill="#ffffff" d="M 165.0625 200.582031 C 165.0625 200.582031 171.339844 214.796875 165.0625 228.035156 C 158.789062 241.273438 201.382812 228.035156 201.382812 228.035156 C 201.382812 228.035156 197.4375 216.316406 201.382812 199.78125 C 205.328125 183.246094 165.0625 200.582031 165.0625 200.582031 Z M 165.0625 200.582031 " fill-opacity="1" fill-rule="nonzero"/><path fill="#2b2b2b" d="M 199.921875 220.25 C 199.414062 215.050781 199.578125 209.875 200.40625 204.714844 C 200.164062 204.652344 167.460938 205.523438 167.460938 205.523438 C 167.460938 205.523438 180.308594 222.066406 199.921875 220.25 Z M 199.921875 220.25 " fill-opacity="1" fill-rule="nonzero"/><path fill="#2b2b2b" d="M 171.851562 234.605469 C 168.464844 234.605469 165.785156 234.03125 164.546875 232.621094 C 163.507812 231.421875 163.476562 229.78125 164.441406 227.738281 C 170.503906 214.949219 164.492188 201.003906 164.441406 200.863281 C 164.367188 200.6875 164.367188 200.507812 164.441406 200.328125 C 164.507812 200.148438 164.632812 200.019531 164.808594 199.949219 C 165.960938 199.441406 193.535156 187.644531 200.640625 193.605469 C 202.265625 194.972656 202.746094 197.066406 202.078125 199.894531 C 198.234375 216.039062 202.027344 227.679688 202.078125 227.796875 C 202.144531 227.980469 202.132812 228.160156 202.039062 228.332031 C 201.953125 228.507812 201.816406 228.625 201.632812 228.679688 C 199.132812 229.464844 182.214844 234.605469 171.851562 234.605469 Z M 165.960938 200.953125 C 167.113281 203.9375 171.34375 216.410156 165.6875 228.332031 C 164.964844 229.855469 164.929688 230.957031 165.585938 231.710938 C 169.253906 235.949219 191.433594 230.339844 200.519531 227.578125 C 199.742188 224.816406 197.253906 214.101562 200.710938 199.597656 C 201.257812 197.289062 200.933594 195.699219 199.726562 194.683594 C 194.507812 190.296875 174.15625 197.484375 165.960938 200.953125 Z M 165.960938 200.953125 " fill-opacity="1" fill-rule="nonzero"/><path fill="#ffffff" d="M 162.445312 200.992188 C 154.578125 194.273438 148.1875 185.902344 146.980469 174.949219 C 146.851562 173.773438 146.617188 172.617188 146.269531 171.488281 C 145.886719 171.820312 145.464844 172.089844 145.003906 172.296875 C 144.539062 172.503906 144.058594 172.640625 143.554688 172.703125 C 143.050781 172.765625 142.550781 172.753906 142.050781 172.667969 C 141.550781 172.582031 141.074219 172.425781 140.621094 172.199219 C 138.78125 171.34375 137.347656 169.632812 136.308594 167.734375 C 133.296875 162.214844 133.734375 154.191406 138.203125 150.097656 C 140.390625 148.097656 143.554688 147.214844 146.132812 148.5 C 147.953125 149.40625 149.265625 151.226562 150.933594 152.445312 C 155.089844 155.472656 160.605469 154.25 165.289062 152.402344 C 169.15625 150.875 172.964844 148.945312 176.152344 146.0625 C 183.960938 138.996094 187.242188 126.957031 195.332031 120.3125 C 197.636719 118.441406 200.359375 117.035156 203.164062 117.335938 C 205.964844 117.636719 209.46875 121.949219 209.605469 125.078125 C 209.605469 125.078125 213.019531 117.179688 218.410156 120.0625 C 221.246094 121.578125 222.605469 125.253906 223.367188 128.664062 C 225.519531 138.347656 224.160156 148.910156 227.921875 158.023438 C 228.128906 158.546875 228.425781 159.007812 228.8125 159.414062 C 231.214844 161.8125 234.09375 158.660156 236.941406 158.261719 C 239.527344 157.886719 241.992188 159.960938 243.207031 162.539062 C 244.421875 165.117188 244.652344 168.109375 244.859375 171.015625 C 245.105469 174.476562 245.304688 178.296875 242.734375 180.914062 C 242.035156 181.621094 241.21875 182.140625 240.289062 182.476562 C 239.355469 182.816406 238.394531 182.9375 237.410156 182.847656 C 235.507812 182.691406 234.457031 181.976562 233.261719 180.328125 C 233.046875 180.027344 232.882812 179.695312 232.773438 179.339844 C 232.550781 178.585938 232.070312 177.289062 231.777344 178.347656 C 229.445312 186.777344 226.269531 195.277344 220.535156 201.335938 C 220.535156 201.296875 194.121094 228.0625 162.445312 200.992188 Z M 162.445312 200.992188 " fill-opacity="1" fill-rule="nonzero"/><path fill="#2b2b2b" d="M 191.859375 213.769531 C 183.28125 213.769531 172.953125 210.886719 161.996094 201.523438 C 152.5 193.410156 147.363281 184.730469 146.292969 175 C 146.203125 174.195312 146.0625 173.398438 145.875 172.613281 C 145.019531 173.101562 144.105469 173.359375 143.125 173.394531 C 142.140625 173.425781 141.210938 173.222656 140.328125 172.792969 C 138.550781 171.960938 136.953125 170.316406 135.722656 168.023438 C 132.390625 161.917969 133.296875 153.609375 137.753906 149.574219 C 140.316406 147.230469 143.8125 146.539062 146.460938 147.84375 C 147.601562 148.484375 148.621094 149.285156 149.523438 150.234375 C 150.101562 150.8125 150.710938 151.351562 151.355469 151.851562 C 154.519531 154.15625 159 154.109375 165.050781 151.722656 C 169.660156 149.90625 173.042969 147.933594 175.703125 145.523438 C 179.394531 142.1875 182.128906 137.585938 184.765625 133.140625 C 187.644531 128.285156 190.632812 123.269531 194.910156 119.75 C 197.746094 117.445312 200.628906 116.34375 203.253906 116.625 C 205.78125 116.898438 208.816406 120.015625 209.90625 123.074219 C 210.804688 121.644531 212.328125 119.722656 214.390625 119.003906 C 215.113281 118.753906 215.855469 118.667969 216.617188 118.742188 C 217.378906 118.816406 218.09375 119.042969 218.753906 119.429688 C 221.265625 120.773438 223.003906 123.734375 224.0625 128.492188 C 224.949219 132.476562 225.25 136.644531 225.542969 140.679688 C 225.957031 146.449219 226.390625 152.433594 228.578125 157.738281 C 228.75 158.171875 228.996094 158.554688 229.320312 158.890625 C 230.503906 160.042969 231.789062 159.558594 233.78125 158.625 C 234.757812 158.109375 235.78125 157.746094 236.863281 157.527344 C 239.960938 157.089844 242.621094 159.558594 243.851562 162.199219 C 245.140625 164.9375 245.367188 168.113281 245.578125 170.921875 C 245.820312 174.273438 246.121094 178.417969 243.277344 181.359375 C 242.503906 182.132812 241.605469 182.710938 240.578125 183.082031 C 239.550781 183.457031 238.492188 183.597656 237.402344 183.5 C 235.371094 183.332031 234.109375 182.574219 232.75 180.691406 C 232.5 180.355469 232.308594 179.988281 232.175781 179.589844 C 230.125 186.777344 226.992188 195.515625 221.070312 201.777344 C 216.023438 206.496094 210.203125 209.890625 203.613281 211.957031 C 199.785156 213.160156 195.871094 213.765625 191.859375 213.769531 Z M 146.269531 170.746094 C 146.328125 170.738281 146.386719 170.738281 146.445312 170.746094 C 146.691406 170.8125 146.851562 170.96875 146.933594 171.210938 C 147.289062 172.390625 147.535156 173.59375 147.667969 174.820312 C 148.699219 184.191406 153.679688 192.566406 162.894531 200.445312 C 175.820312 211.484375 189.351562 214.917969 203.109375 210.625 C 209.484375 208.605469 215.128906 205.324219 220.042969 200.785156 C 226.050781 194.441406 229.113281 185.324219 231.109375 178.101562 C 231.316406 177.359375 231.726562 177.195312 232.039062 177.191406 C 232.714844 177.191406 233.074219 177.917969 233.425781 179.082031 C 233.515625 179.359375 233.644531 179.617188 233.816406 179.855469 C 234.96875 181.417969 235.824219 181.957031 237.457031 182.089844 C 238.339844 182.175781 239.199219 182.066406 240.035156 181.765625 C 240.871094 181.460938 241.601562 180.996094 242.226562 180.363281 C 244.652344 177.886719 244.375 174.066406 244.15625 170.992188 C 243.96875 168.3125 243.75 165.265625 242.566406 162.765625 C 241.570312 160.652344 239.417969 158.53125 237.027344 158.878906 C 236.085938 159.078125 235.191406 159.402344 234.339844 159.851562 C 232.417969 160.753906 230.246094 161.773438 228.3125 159.851562 C 227.855469 159.382812 227.507812 158.84375 227.265625 158.238281 C 224.996094 152.726562 224.550781 146.636719 224.132812 140.75 C 223.84375 136.765625 223.554688 132.679688 222.679688 128.769531 C 221.714844 124.429688 220.207031 121.765625 218.074219 120.621094 C 217.585938 120.328125 217.054688 120.152344 216.488281 120.09375 C 215.921875 120.035156 215.367188 120.097656 214.828125 120.28125 C 212.019531 121.261719 210.25 125.265625 210.222656 125.304688 C 210.15625 125.449219 210.050781 125.558594 209.910156 125.632812 C 209.765625 125.707031 209.617188 125.730469 209.460938 125.703125 C 209.300781 125.671875 209.171875 125.597656 209.0625 125.476562 C 208.957031 125.355469 208.902344 125.214844 208.890625 125.054688 C 208.769531 122.207031 205.503906 118.234375 203.074219 117.976562 C 200.238281 117.671875 197.527344 119.335938 195.757812 120.796875 C 191.664062 124.15625 188.746094 129.070312 185.925781 133.820312 C 183.230469 138.359375 180.449219 143.046875 176.601562 146.503906 C 173.808594 149.03125 170.269531 151.082031 165.523438 152.960938 C 159 155.539062 154.089844 155.523438 150.507812 152.917969 C 149.808594 152.382812 149.148438 151.808594 148.527344 151.1875 C 147.726562 150.332031 146.820312 149.613281 145.804688 149.03125 C 143.667969 147.964844 140.796875 148.5625 138.660156 150.523438 C 134.628906 154.203125 133.855469 161.734375 136.933594 167.3125 C 137.703125 168.726562 139.023438 170.601562 140.921875 171.480469 C 141.3125 171.679688 141.722656 171.816406 142.152344 171.894531 C 142.582031 171.972656 143.015625 171.984375 143.449219 171.933594 C 143.882812 171.882812 144.300781 171.769531 144.703125 171.59375 C 145.105469 171.417969 145.472656 171.1875 145.804688 170.90625 C 145.941406 170.792969 146.09375 170.742188 146.269531 170.746094 Z M 146.269531 170.746094 " fill-opacity="1" fill-rule="nonzero"/><path fill="#2b2b2b" d="M 185.5625 169.273438 C 185.433594 172.902344 183.378906 175.773438 180.953125 175.691406 C 178.53125 175.609375 176.683594 172.601562 176.808594 168.972656 C 176.9375 165.347656 178.992188 162.480469 181.414062 162.5625 C 183.839844 162.644531 185.671875 165.652344 185.5625 169.273438 Z M 185.5625 169.273438 " fill-opacity="1" fill-rule="nonzero"/><path fill="#2b2b2b" d="M 212.15625 169.273438 C 212.027344 172.902344 209.972656 175.773438 207.550781 175.691406 C 205.125 175.609375 203.277344 172.601562 203.402344 168.972656 C 203.53125 165.347656 205.585938 162.480469 208.011719 162.5625 C 210.433594 162.644531 212.28125 165.652344 212.15625 169.273438 Z M 212.15625 169.273438 " fill-opacity="1" fill-rule="nonzero"/><path fill="#2b2b2b" d="M 182.320312 146.875 C 178.070312 147.082031 167.972656 146.753906 160.296875 156 C 160.296875 156 173.273438 151.476562 182.007812 151.964844 C 182.171875 151.972656 182.328125 151.953125 182.480469 151.902344 C 182.636719 151.851562 182.773438 151.773438 182.898438 151.671875 C 183.023438 151.566406 183.125 151.445312 183.203125 151.300781 C 183.28125 151.160156 183.328125 151.007812 183.351562 150.847656 L 183.644531 148.304688 C 183.667969 148.117188 183.652344 147.933594 183.59375 147.753906 C 183.535156 147.574219 183.445312 147.417969 183.316406 147.277344 C 183.1875 147.140625 183.039062 147.035156 182.863281 146.964844 C 182.6875 146.894531 182.507812 146.863281 182.320312 146.875 Z M 182.320312 146.875 " fill-opacity="1" fill-rule="nonzero"/><path fill="#2b2b2b" d="M 206.179688 146.480469 C 209.839844 146.671875 218.558594 146.40625 225.214844 154.617188 C 225.214844 154.617188 214 150.582031 206.460938 150.984375 C 206.167969 150.996094 205.910156 150.90625 205.6875 150.714844 C 205.464844 150.523438 205.339844 150.28125 205.308594 149.988281 L 205.046875 147.734375 C 205.023438 147.570312 205.039062 147.414062 205.085938 147.257812 C 205.132812 147.101562 205.214844 146.964844 205.324219 146.84375 C 205.433594 146.722656 205.5625 146.632812 205.710938 146.570312 C 205.859375 146.503906 206.015625 146.476562 206.179688 146.480469 Z M 206.179688 146.480469 " fill-opacity="1" fill-rule="nonzero"/><path fill="#2b2b2b" d="M 194.105469 173.570312 C 194.933594 175.535156 195.890625 177.429688 196.984375 179.261719 C 197.335938 179.84375 197.746094 180.378906 198.222656 180.863281 C 198.539062 181.144531 198.800781 181.46875 199.003906 181.835938 C 199.925781 184.324219 196.125 186.140625 194.601562 187.441406 C 194.457031 187.550781 194.347656 187.6875 194.273438 187.851562 C 194.359375 187.480469 194.539062 187.160156 194.8125 186.894531 C 195.851562 185.621094 197.492188 184.480469 198.0625 182.957031 C 198.273438 182.339844 197.8125 182 197.4375 181.625 C 195.425781 179.371094 194.507812 176.480469 194.105469 173.550781 Z M 194.105469 173.570312 " fill-opacity="1" fill-rule="nonzero"/><path fill="#2b2b2b" d="M 199.230469 191.460938 C 192.792969 192.6875 188.542969 192.226562 183.65625 187.59375 C 185.714844 194.285156 194.191406 195.835938 199.230469 191.460938 Z M 199.230469 191.460938 " fill-opacity="1" fill-rule="nonzero"/><path fill="#2b2b2b" d="M 174.300781 189.4375 C 173.71875 189.4375 173.140625 189.40625 172.566406 189.351562 C 171.988281 189.292969 171.417969 189.207031 170.847656 189.09375 C 170.28125 188.980469 169.71875 188.839844 169.167969 188.667969 C 168.613281 188.5 168.066406 188.304688 167.53125 188.082031 C 167 187.859375 166.476562 187.613281 165.964844 187.339844 C 165.453125 187.066406 164.957031 186.765625 164.476562 186.445312 C 163.996094 186.121094 163.53125 185.777344 163.085938 185.40625 C 162.636719 185.039062 162.207031 184.648438 161.800781 184.238281 C 161.390625 183.828125 161 183.398438 160.636719 182.949219 C 160.269531 182.5 159.921875 182.035156 159.601562 181.554688 C 159.28125 181.070312 158.984375 180.574219 158.710938 180.0625 C 158.4375 179.550781 158.191406 179.027344 157.96875 178.492188 C 157.75 177.953125 157.554688 177.410156 157.386719 176.855469 C 157.21875 176.300781 157.078125 175.738281 156.964844 175.167969 C 156.855469 174.597656 156.769531 174.027344 156.710938 173.449219 C 156.65625 172.871094 156.628906 172.292969 156.628906 171.714844 C 156.628906 171.132812 156.65625 170.554688 156.714844 169.976562 C 156.773438 169.398438 156.855469 168.828125 156.972656 168.257812 C 157.085938 167.691406 157.226562 167.128906 157.394531 166.574219 C 157.5625 166.019531 157.757812 165.472656 157.980469 164.9375 C 158.199219 164.402344 158.449219 163.878906 158.722656 163.367188 C 158.996094 162.855469 159.292969 162.359375 159.613281 161.875 C 159.9375 161.394531 160.28125 160.929688 160.648438 160.480469 C 161.015625 160.03125 161.40625 159.605469 161.816406 159.195312 C 162.226562 158.785156 162.652344 158.394531 163.101562 158.027344 C 163.550781 157.660156 164.015625 157.316406 164.496094 156.992188 C 164.976562 156.671875 165.472656 156.375 165.984375 156.101562 C 166.496094 155.828125 167.019531 155.578125 167.554688 155.359375 C 168.089844 155.136719 168.632812 154.941406 169.1875 154.773438 C 169.742188 154.605469 170.304688 154.464844 170.871094 154.351562 C 171.441406 154.238281 172.011719 154.152344 172.589844 154.097656 C 173.164062 154.039062 173.742188 154.011719 174.320312 154.011719 C 174.902344 154.011719 175.480469 154.039062 176.054688 154.097656 C 176.632812 154.15625 177.203125 154.238281 177.773438 154.351562 C 178.339844 154.464844 178.902344 154.609375 179.457031 154.777344 C 180.007812 154.945312 180.554688 155.140625 181.089844 155.363281 C 181.625 155.585938 182.148438 155.832031 182.65625 156.105469 C 183.167969 156.378906 183.664062 156.675781 184.144531 157 C 184.628906 157.320312 185.09375 157.667969 185.539062 158.035156 C 185.988281 158.402344 186.414062 158.792969 186.824219 159.203125 C 187.234375 159.613281 187.625 160.042969 187.992188 160.488281 C 188.359375 160.9375 188.703125 161.402344 189.023438 161.886719 C 189.347656 162.367188 189.644531 162.863281 189.917969 163.375 C 190.1875 163.886719 190.4375 164.410156 190.65625 164.949219 C 190.878906 165.484375 191.074219 166.027344 191.242188 166.582031 C 191.410156 167.140625 191.550781 167.699219 191.664062 168.269531 C 191.777344 168.839844 191.863281 169.410156 191.917969 169.988281 C 191.976562 170.566406 192.003906 171.144531 192.003906 171.722656 C 192.003906 172.304688 191.972656 172.882812 191.917969 173.460938 C 191.859375 174.039062 191.773438 174.613281 191.660156 175.179688 C 191.546875 175.75 191.40625 176.3125 191.238281 176.867188 C 191.070312 177.421875 190.875 177.96875 190.652344 178.503906 C 190.429688 179.039062 190.179688 179.5625 189.90625 180.074219 C 189.632812 180.585938 189.335938 181.085938 189.015625 181.566406 C 188.691406 182.046875 188.347656 182.515625 187.980469 182.960938 C 187.609375 183.410156 187.222656 183.839844 186.8125 184.25 C 186.402344 184.660156 185.972656 185.050781 185.523438 185.417969 C 185.078125 185.785156 184.613281 186.128906 184.128906 186.453125 C 183.648438 186.773438 183.152344 187.074219 182.640625 187.347656 C 182.128906 187.621094 181.605469 187.867188 181.070312 188.089844 C 180.535156 188.3125 179.988281 188.507812 179.433594 188.675781 C 178.882812 188.84375 178.320312 188.984375 177.75 189.097656 C 177.183594 189.210938 176.609375 189.296875 176.035156 189.351562 C 175.457031 189.410156 174.878906 189.4375 174.300781 189.4375 Z M 174.300781 155.417969 C 173.765625 155.417969 173.230469 155.445312 172.699219 155.496094 C 172.167969 155.550781 171.640625 155.628906 171.117188 155.730469 C 170.59375 155.835938 170.074219 155.964844 169.566406 156.121094 C 169.054688 156.277344 168.550781 156.457031 168.058594 156.660156 C 167.5625 156.863281 167.082031 157.09375 166.609375 157.34375 C 166.140625 157.597656 165.683594 157.871094 165.238281 158.167969 C 164.792969 158.464844 164.363281 158.785156 163.953125 159.121094 C 163.539062 159.460938 163.144531 159.820312 162.765625 160.199219 C 162.386719 160.578125 162.03125 160.972656 161.691406 161.386719 C 161.351562 161.800781 161.035156 162.226562 160.738281 162.671875 C 160.441406 163.117188 160.167969 163.574219 159.914062 164.046875 C 159.664062 164.519531 159.433594 165.003906 159.230469 165.496094 C 159.027344 165.992188 158.84375 166.492188 158.691406 167.003906 C 158.535156 167.515625 158.40625 168.035156 158.300781 168.558594 C 158.195312 169.085938 158.117188 169.613281 158.066406 170.144531 C 158.015625 170.675781 157.988281 171.210938 157.988281 171.746094 C 157.988281 172.28125 158.011719 172.8125 158.066406 173.347656 C 158.117188 173.878906 158.195312 174.40625 158.300781 174.933594 C 158.40625 175.457031 158.535156 175.976562 158.6875 176.488281 C 158.84375 177 159.023438 177.5 159.226562 177.996094 C 159.433594 178.488281 159.660156 178.972656 159.914062 179.445312 C 160.164062 179.917969 160.4375 180.375 160.734375 180.820312 C 161.03125 181.265625 161.351562 181.691406 161.6875 182.105469 C 162.027344 182.519531 162.386719 182.914062 162.761719 183.292969 C 163.140625 183.671875 163.535156 184.03125 163.949219 184.371094 C 164.363281 184.710938 164.789062 185.027344 165.234375 185.324219 C 165.679688 185.621094 166.136719 185.898438 166.609375 186.148438 C 167.078125 186.402344 167.5625 186.628906 168.054688 186.832031 C 168.546875 187.039062 169.050781 187.21875 169.5625 187.375 C 170.074219 187.527344 170.589844 187.660156 171.113281 187.761719 C 171.636719 187.867188 172.164062 187.945312 172.695312 187.996094 C 173.226562 188.050781 173.761719 188.078125 174.296875 188.078125 C 174.828125 188.078125 175.363281 188.050781 175.894531 187.996094 C 176.425781 187.945312 176.953125 187.867188 177.476562 187.761719 C 178 187.65625 178.519531 187.527344 179.027344 187.371094 C 179.539062 187.21875 180.042969 187.035156 180.535156 186.832031 C 181.03125 186.628906 181.511719 186.398438 181.984375 186.148438 C 182.453125 185.894531 182.910156 185.621094 183.355469 185.324219 C 183.800781 185.023438 184.226562 184.707031 184.640625 184.367188 C 185.054688 184.027344 185.449219 183.667969 185.824219 183.292969 C 186.203125 182.914062 186.5625 182.515625 186.902344 182.101562 C 187.238281 181.691406 187.558594 181.261719 187.855469 180.816406 C 188.148438 180.371094 188.425781 179.914062 188.675781 179.441406 C 188.925781 178.96875 189.15625 178.484375 189.359375 177.992188 C 189.5625 177.496094 189.742188 176.996094 189.898438 176.484375 C 190.054688 175.972656 190.183594 175.453125 190.285156 174.929688 C 190.390625 174.402344 190.46875 173.875 190.519531 173.34375 C 190.574219 172.808594 190.597656 172.277344 190.597656 171.742188 C 190.597656 171.207031 190.574219 170.671875 190.519531 170.140625 C 190.46875 169.609375 190.390625 169.082031 190.285156 168.554688 C 190.183594 168.03125 190.050781 167.511719 189.898438 167 C 189.742188 166.488281 189.5625 165.988281 189.359375 165.492188 C 189.15625 165 188.925781 164.515625 188.675781 164.042969 C 188.421875 163.570312 188.148438 163.113281 187.851562 162.667969 C 187.554688 162.222656 187.238281 161.796875 186.898438 161.382812 C 186.5625 160.96875 186.203125 160.570312 185.824219 160.195312 C 185.449219 159.816406 185.054688 159.457031 184.640625 159.117188 C 184.226562 158.777344 183.800781 158.457031 183.355469 158.160156 C 182.914062 157.863281 182.453125 157.589844 181.984375 157.335938 C 181.511719 157.085938 181.03125 156.855469 180.539062 156.652344 C 180.046875 156.445312 179.542969 156.265625 179.03125 156.109375 C 178.519531 155.953125 178.003906 155.824219 177.480469 155.71875 C 176.957031 155.613281 176.429688 155.535156 175.898438 155.480469 C 175.367188 155.429688 174.832031 155.402344 174.300781 155.402344 Z M 174.300781 155.417969 " fill-opacity="1" fill-rule="nonzero"/><path fill="#2b2b2b" d="M 213.457031 188.328125 C 212.878906 188.328125 212.300781 188.300781 211.722656 188.242188 C 211.148438 188.1875 210.574219 188.101562 210.007812 187.988281 C 209.4375 187.875 208.878906 187.734375 208.324219 187.5625 C 207.769531 187.394531 207.226562 187.199219 206.691406 186.976562 C 206.15625 186.753906 205.632812 186.507812 205.121094 186.234375 C 204.609375 185.960938 204.113281 185.660156 203.632812 185.339844 C 203.152344 185.015625 202.6875 184.671875 202.238281 184.304688 C 201.792969 183.933594 201.363281 183.546875 200.953125 183.136719 C 200.546875 182.726562 200.15625 182.296875 199.789062 181.847656 C 199.421875 181.398438 199.078125 180.933594 198.757812 180.449219 C 198.433594 179.96875 198.136719 179.472656 197.867188 178.960938 C 197.59375 178.449219 197.34375 177.921875 197.125 177.386719 C 196.902344 176.851562 196.707031 176.304688 196.539062 175.75 C 196.371094 175.195312 196.230469 174.632812 196.121094 174.066406 C 196.007812 173.496094 195.921875 172.921875 195.867188 172.347656 C 195.808594 171.769531 195.78125 171.191406 195.78125 170.609375 C 195.78125 170.03125 195.808594 169.453125 195.867188 168.875 C 195.925781 168.296875 196.007812 167.722656 196.121094 167.15625 C 196.234375 166.585938 196.375 166.023438 196.542969 165.46875 C 196.714844 164.914062 196.910156 164.367188 197.128906 163.832031 C 197.351562 163.296875 197.597656 162.773438 197.871094 162.261719 C 198.144531 161.75 198.445312 161.253906 198.765625 160.773438 C 199.085938 160.289062 199.433594 159.824219 199.800781 159.375 C 200.167969 158.929688 200.554688 158.5 200.964844 158.089844 C 201.375 157.679688 201.804688 157.289062 202.253906 156.921875 C 202.699219 156.554688 203.164062 156.210938 203.644531 155.886719 C 204.128906 155.566406 204.625 155.265625 205.136719 154.992188 C 205.644531 154.722656 206.167969 154.472656 206.703125 154.25 C 207.238281 154.03125 207.785156 153.835938 208.339844 153.667969 C 208.894531 153.5 209.453125 153.359375 210.023438 153.246094 C 210.589844 153.132812 211.164062 153.046875 211.738281 152.988281 C 212.316406 152.933594 212.894531 152.90625 213.472656 152.90625 C 214.050781 152.90625 214.628906 152.933594 215.207031 152.992188 C 215.78125 153.046875 216.355469 153.132812 216.921875 153.246094 C 217.492188 153.359375 218.050781 153.5 218.605469 153.667969 C 219.160156 153.835938 219.703125 154.03125 220.238281 154.253906 C 220.773438 154.476562 221.296875 154.722656 221.808594 154.996094 C 222.320312 155.269531 222.816406 155.570312 223.296875 155.890625 C 223.777344 156.214844 224.242188 156.558594 224.691406 156.925781 C 225.140625 157.296875 225.566406 157.683594 225.976562 158.09375 C 226.386719 158.503906 226.773438 158.933594 227.140625 159.382812 C 227.511719 159.832031 227.855469 160.296875 228.175781 160.777344 C 228.496094 161.261719 228.796875 161.757812 229.070312 162.269531 C 229.339844 162.78125 229.589844 163.304688 229.808594 163.839844 C 230.03125 164.375 230.226562 164.921875 230.394531 165.476562 C 230.5625 166.03125 230.703125 166.59375 230.816406 167.164062 C 230.929688 167.730469 231.015625 168.304688 231.070312 168.882812 C 231.128906 169.457031 231.15625 170.039062 231.15625 170.617188 C 231.15625 171.199219 231.125 171.777344 231.070312 172.355469 C 231.011719 172.929688 230.925781 173.503906 230.8125 174.074219 C 230.699219 174.640625 230.558594 175.203125 230.390625 175.757812 C 230.222656 176.316406 230.027344 176.859375 229.804688 177.394531 C 229.582031 177.933594 229.335938 178.457031 229.0625 178.96875 C 228.789062 179.476562 228.488281 179.976562 228.167969 180.457031 C 227.84375 180.941406 227.5 181.40625 227.132812 181.855469 C 226.765625 182.300781 226.375 182.730469 225.964844 183.140625 C 225.558594 183.550781 225.128906 183.941406 224.679688 184.308594 C 224.230469 184.675781 223.765625 185.019531 223.285156 185.34375 C 222.804688 185.664062 222.308594 185.964844 221.796875 186.238281 C 221.285156 186.511719 220.761719 186.757812 220.226562 186.980469 C 219.691406 187.203125 219.148438 187.398438 218.59375 187.566406 C 218.039062 187.734375 217.476562 187.875 216.910156 187.988281 C 216.339844 188.101562 215.769531 188.1875 215.191406 188.246094 C 214.613281 188.300781 214.035156 188.328125 213.457031 188.328125 Z M 213.457031 154.3125 C 212.921875 154.3125 212.390625 154.339844 211.859375 154.390625 C 211.328125 154.441406 210.800781 154.519531 210.277344 154.625 C 209.753906 154.730469 209.238281 154.859375 208.726562 155.015625 C 208.214844 155.171875 207.710938 155.351562 207.21875 155.554688 C 206.726562 155.757812 206.246094 155.988281 205.773438 156.238281 C 205.300781 156.492188 204.84375 156.765625 204.402344 157.0625 C 203.957031 157.359375 203.527344 157.679688 203.117188 158.015625 C 202.703125 158.355469 202.308594 158.714844 201.929688 159.09375 C 201.554688 159.472656 201.195312 159.867188 200.855469 160.28125 C 200.519531 160.691406 200.199219 161.121094 199.902344 161.566406 C 199.609375 162.011719 199.332031 162.46875 199.082031 162.941406 C 198.832031 163.410156 198.601562 163.894531 198.398438 164.386719 C 198.195312 164.882812 198.015625 165.386719 197.859375 165.898438 C 197.703125 166.40625 197.574219 166.925781 197.46875 167.449219 C 197.367188 167.976562 197.289062 168.503906 197.234375 169.035156 C 197.183594 169.566406 197.15625 170.101562 197.15625 170.636719 C 197.15625 171.167969 197.183594 171.703125 197.234375 172.234375 C 197.289062 172.765625 197.367188 173.296875 197.46875 173.820312 C 197.574219 174.34375 197.703125 174.863281 197.859375 175.375 C 198.015625 175.882812 198.195312 176.386719 198.398438 176.882812 C 198.601562 177.375 198.832031 177.859375 199.082031 178.328125 C 199.332031 178.800781 199.609375 179.257812 199.902344 179.703125 C 200.199219 180.148438 200.519531 180.578125 200.855469 180.988281 C 201.195312 181.402344 201.554688 181.800781 201.929688 182.175781 C 202.308594 182.554688 202.703125 182.914062 203.117188 183.253906 C 203.527344 183.59375 203.957031 183.910156 204.402344 184.207031 C 204.84375 184.503906 205.300781 184.777344 205.773438 185.03125 C 206.246094 185.28125 206.726562 185.511719 207.21875 185.714844 C 207.710938 185.917969 208.214844 186.101562 208.726562 186.253906 C 209.238281 186.410156 209.753906 186.539062 210.277344 186.644531 C 210.800781 186.75 211.328125 186.828125 211.859375 186.878906 C 212.390625 186.929688 212.921875 186.957031 213.457031 186.957031 C 213.992188 186.957031 214.523438 186.929688 215.054688 186.878906 C 215.585938 186.828125 216.113281 186.75 216.636719 186.644531 C 217.160156 186.539062 217.679688 186.410156 218.1875 186.253906 C 218.699219 186.101562 219.203125 185.917969 219.695312 185.714844 C 220.1875 185.511719 220.671875 185.28125 221.140625 185.03125 C 221.613281 184.777344 222.070312 184.503906 222.511719 184.207031 C 222.957031 183.910156 223.386719 183.59375 223.796875 183.253906 C 224.210938 182.914062 224.605469 182.554688 224.984375 182.175781 C 225.359375 181.800781 225.71875 181.402344 226.058594 180.988281 C 226.394531 180.578125 226.714844 180.148438 227.011719 179.703125 C 227.308594 179.257812 227.582031 178.800781 227.832031 178.328125 C 228.085938 177.859375 228.3125 177.375 228.515625 176.882812 C 228.722656 176.386719 228.898438 175.882812 229.054688 175.375 C 229.210938 174.863281 229.339844 174.34375 229.445312 173.820312 C 229.546875 173.296875 229.625 172.765625 229.679688 172.234375 C 229.730469 171.703125 229.757812 171.167969 229.757812 170.636719 C 229.757812 170.101562 229.730469 169.566406 229.679688 169.035156 C 229.625 168.503906 229.546875 167.972656 229.445312 167.449219 C 229.339844 166.925781 229.210938 166.40625 229.054688 165.894531 C 228.902344 165.382812 228.722656 164.878906 228.515625 164.386719 C 228.3125 163.890625 228.085938 163.410156 227.832031 162.9375 C 227.582031 162.464844 227.308594 162.007812 227.011719 161.5625 C 226.714844 161.117188 226.398438 160.6875 226.058594 160.273438 C 225.71875 159.859375 225.363281 159.464844 224.984375 159.085938 C 224.605469 158.707031 224.210938 158.347656 223.800781 158.011719 C 223.386719 157.671875 222.957031 157.351562 222.515625 157.054688 C 222.070312 156.757812 221.613281 156.480469 221.140625 156.230469 C 220.671875 155.976562 220.191406 155.75 219.695312 155.542969 C 219.203125 155.339844 218.699219 155.15625 218.191406 155.003906 C 217.679688 154.847656 217.160156 154.714844 216.636719 154.613281 C 216.113281 154.507812 215.585938 154.429688 215.054688 154.375 C 214.523438 154.320312 213.992188 154.296875 213.457031 154.292969 Z M 213.457031 154.3125 " fill-opacity="1" fill-rule="nonzero"/><path fill="#ffffff" d="M 238.417969 190.019531 C 237.496094 189.171875 236.71875 188.210938 236.078125 187.136719 C 234.671875 184.660156 233.546875 182.0625 232.710938 179.339844 C 230.488281 172.421875 222.046875 166.390625 224.277344 164.648438 C 226.503906 162.910156 231 164.171875 234.195312 167.179688 C 236.828125 169.65625 239.378906 172.578125 239.832031 172.59375 C 241.144531 172.648438 240.933594 165.296875 238.398438 161.410156 C 238.398438 161.410156 231.523438 164.097656 228.484375 161.984375 C 225.445312 159.875 231.070312 156.957031 234.035156 154.191406 C 237 151.421875 238.855469 151.636719 240.324219 152.105469 C 243.203125 153.007812 246.65625 159.351562 246.65625 159.351562 C 246.65625 159.351562 245.503906 148.925781 243.777344 143.621094 C 242.226562 138.835938 241.6875 133.394531 244.613281 133.144531 C 247.535156 132.898438 250.53125 140.386719 251.613281 145.414062 C 252.890625 151.332031 254.152344 158.066406 254.152344 158.066406 L 254.480469 158.117188 C 254.480469 158.117188 253.058594 146.007812 252.207031 142.746094 C 251.355469 139.480469 251.054688 134.816406 252.488281 134.367188 C 253.921875 133.917969 256.007812 133.417969 258.9375 140.046875 C 261.867188 146.679688 262.445312 158.433594 262.445312 158.433594 C 262.445312 158.433594 263.382812 149.703125 262.203125 144.855469 C 261.328125 141.242188 261.382812 139.667969 262.839844 138.820312 C 265.183594 137.476562 268.183594 143.039062 269.042969 147.394531 C 269.824219 151.371094 270.609375 161.535156 269.558594 171.101562 C 268.410156 181.6875 261.804688 186.832031 264.574219 200.359375 C 264.574219 200.359375 248.371094 205.167969 241.796875 201.867188 C 241.796875 201.84375 242.414062 193.726562 238.417969 190.019531 Z M 238.417969 190.019531 " fill-opacity="1" fill-rule="nonzero"/><path fill="#2b2b2b" d="M 243.679688 155.972656 C 244.40625 156.945312 245.082031 157.957031 245.707031 159 C 245.84375 159.242188 245.972656 159.460938 246.070312 159.644531 L 247.21875 161.703125 L 247.703125 162.578125 L 247.578125 161.425781 L 247.335938 159.242188 C 247.335938 159.242188 247.335938 159.15625 247.335938 159.070312 C 247.238281 158.210938 246.789062 154.425781 246.085938 150.472656 C 245.929688 150.886719 245.773438 151.285156 245.621094 151.683594 C 246.195312 155.007812 246.546875 158.023438 246.660156 159 L 246.511719 159 C 245.773438 157.710938 244.949219 156.476562 244.046875 155.296875 Z M 223.257812 165.199219 C 223.136719 166.269531 224.027344 167.597656 225.394531 169.316406 L 226.40625 170.566406 L 226.871094 171.140625 C 228.835938 173.558594 231.097656 176.46875 232.054688 179.527344 C 232.613281 181.296875 233.28125 183.027344 234.058594 184.714844 C 234.589844 185.867188 235.078125 186.765625 235.484375 187.464844 C 236.152344 188.601562 236.972656 189.609375 237.945312 190.496094 C 238.601562 191.121094 239.128906 191.835938 239.527344 192.648438 C 240.066406 193.726562 240.449219 194.855469 240.679688 196.039062 C 241.066406 197.941406 241.207031 199.863281 241.105469 201.804688 L 241.070312 202.25 L 241.472656 202.449219 C 242.3125 202.859375 243.1875 203.144531 244.105469 203.308594 C 251.636719 204.820312 264.140625 201.160156 264.734375 201.003906 L 265.3125 200.835938 L 265.191406 200.257812 C 264.523438 197.246094 264.363281 194.207031 264.699219 191.136719 C 265.113281 187.636719 266.210938 184.714844 267.335938 181.6875 C 268.519531 178.527344 269.746094 175.253906 270.214844 171.207031 C 271.242188 161.796875 270.523438 151.554688 269.6875 147.296875 C 268.96875 143.652344 266.871094 139.257812 264.601562 138.226562 C 264.171875 138.019531 263.722656 137.945312 263.25 138.011719 C 262.984375 138.054688 262.738281 138.144531 262.507812 138.277344 C 260.589844 139.371094 260.691406 141.507812 261.558594 145.046875 C 261.855469 146.425781 262.027344 147.820312 262.074219 149.230469 C 261.609375 145.980469 260.761719 142.828125 259.542969 139.777344 C 256.566406 133.035156 254.238281 133.117188 252.285156 133.726562 C 250.335938 134.339844 250.734375 138.941406 251.308594 141.695312 C 250.742188 139.863281 250.015625 138.097656 249.132812 136.398438 C 247.882812 134.089844 246.328125 132.316406 244.570312 132.464844 C 244.433594 132.46875 244.296875 132.492188 244.164062 132.535156 C 243.496094 132.6875 242.980469 133.050781 242.609375 133.625 C 240.882812 136.207031 242.609375 142.070312 243.15625 143.800781 L 243.207031 143.957031 C 244.039062 146.890625 244.671875 149.863281 245.105469 152.882812 C 245.308594 154.160156 245.480469 155.367188 245.621094 156.382812 C 245.238281 155.804688 244.800781 155.230469 244.328125 154.625 C 243.558594 153.609375 242.652344 152.730469 241.617188 151.988281 C 241.277344 151.757812 240.914062 151.578125 240.523438 151.445312 C 238.714844 150.871094 236.988281 151.445312 233.671875 153.613281 C 232.519531 154.375 231.273438 155.207031 230.160156 156.070312 C 229.625 156.476562 229.113281 156.917969 228.628906 157.386719 C 227.855469 158.054688 227.304688 158.875 226.976562 159.847656 C 226.925781 160.035156 226.902344 160.226562 226.894531 160.421875 C 226.890625 160.816406 226.984375 161.1875 227.179688 161.53125 C 227.417969 161.929688 227.730469 162.257812 228.117188 162.515625 C 228.511719 162.789062 228.941406 162.992188 229.398438 163.128906 C 232.359375 164.042969 236.644531 162.734375 238.128906 162.222656 C 239.984375 165.472656 240.203125 170.496094 239.78125 171.765625 C 239.46875 171.476562 238.988281 170.953125 238.539062 170.472656 C 237.714844 169.578125 236.683594 168.472656 235.441406 167.300781 C 233.675781 165.671875 231.652344 164.5 229.359375 163.785156 C 228.648438 163.558594 227.921875 163.414062 227.179688 163.351562 C 225.976562 163.183594 224.878906 163.441406 223.878906 164.125 C 223.511719 164.398438 223.304688 164.765625 223.257812 165.222656 Z M 227.429688 169.722656 C 226.957031 169.148438 226.476562 168.570312 226.050781 167.992188 C 225.167969 166.839844 224.511719 165.859375 224.570312 165.34375 C 224.582031 165.265625 224.621094 165.203125 224.683594 165.15625 C 225.398438 164.695312 226.175781 164.519531 227.015625 164.636719 C 227.757812 164.699219 228.476562 164.851562 229.179688 165.089844 C 231.191406 165.757812 232.972656 166.8125 234.523438 168.253906 C 235.734375 169.40625 236.746094 170.480469 237.554688 171.355469 C 238.929688 172.832031 239.308594 173.21875 239.804688 173.242188 C 240.023438 173.246094 240.226562 173.191406 240.410156 173.074219 C 240.597656 172.960938 240.734375 172.800781 240.824219 172.601562 C 241.796875 170.871094 241.238281 164.527344 238.957031 161.035156 L 238.664062 160.578125 L 238.15625 160.773438 C 236.46875 161.433594 231.824219 162.769531 229.394531 161.703125 C 229.207031 161.625 229.027344 161.527344 228.859375 161.410156 C 228.285156 161 228.207031 160.648438 228.207031 160.421875 C 228.300781 159.804688 228.570312 159.28125 229.027344 158.855469 C 229.675781 158.152344 230.386719 157.519531 231.15625 156.953125 C 232.25 156.117188 233.460938 155.320312 234.390625 154.699219 C 237.695312 152.511719 238.910156 152.3125 240.117188 152.691406 C 240.539062 152.839844 240.921875 153.058594 241.265625 153.347656 C 242.175781 154.117188 242.980469 154.984375 243.679688 155.949219 C 244.40625 156.925781 245.082031 157.933594 245.707031 158.976562 C 245.84375 159.21875 245.972656 159.4375 246.070312 159.621094 L 247.21875 161.679688 L 247.703125 162.558594 L 247.578125 161.402344 L 247.335938 159.21875 C 247.335938 159.21875 247.335938 159.132812 247.335938 159.046875 C 247.238281 158.1875 246.789062 154.402344 246.085938 150.449219 C 245.671875 148.0625 245.109375 145.707031 244.398438 143.390625 C 244.089844 142.441406 243.824219 141.519531 243.644531 140.648438 C 243 137.765625 243 135.410156 243.695312 134.363281 C 243.804688 134.183594 243.953125 134.039062 244.132812 133.9375 C 244.300781 133.851562 244.476562 133.800781 244.664062 133.785156 C 245.980469 133.675781 247.542969 135.917969 248.878906 138.976562 C 249.785156 141.097656 250.480469 143.285156 250.96875 145.542969 C 252.230469 151.378906 253.484375 158.105469 253.5 158.167969 L 253.582031 158.628906 L 254.003906 158.699219 L 255.242188 158.894531 L 255.1875 158.445312 L 255.144531 158.023438 C 255.078125 157.527344 253.699219 145.851562 252.839844 142.566406 C 251.847656 138.734375 252.035156 135.179688 252.671875 134.984375 C 253.824219 134.621094 255.550781 134.078125 258.320312 140.300781 C 260.824219 145.980469 261.585938 155.636719 261.742188 157.945312 C 261.742188 158.253906 261.769531 158.433594 261.769531 158.445312 L 263.089844 158.445312 C 263.089844 158.398438 263.089844 158.234375 263.140625 157.949219 C 263.234375 156.96875 263.417969 154.703125 263.445312 152.144531 C 263.53125 149.621094 263.328125 147.125 262.835938 144.648438 C 261.914062 140.855469 262.21875 139.886719 263.164062 139.351562 C 263.226562 139.308594 263.296875 139.28125 263.371094 139.261719 C 263.609375 139.207031 263.835938 139.234375 264.050781 139.351562 C 265.644531 140.082031 267.671875 143.875 268.378906 147.472656 C 269.203125 151.648438 269.90625 161.703125 268.890625 170.988281 C 268.464844 174.859375 267.273438 178.054688 266.121094 181.144531 C 265.015625 184.097656 263.890625 187.109375 263.445312 190.730469 C 263.078125 193.785156 263.195312 196.820312 263.796875 199.839844 C 260.917969 200.621094 248.25 203.875 242.492188 201.40625 C 242.5625 199.355469 242.371094 197.328125 241.917969 195.324219 C 241.660156 194.214844 241.277344 193.148438 240.765625 192.128906 C 240.285156 191.144531 239.648438 190.269531 238.855469 189.511719 C 237.980469 188.710938 237.238281 187.804688 236.632812 186.785156 C 235.992188 185.691406 235.414062 184.566406 234.90625 183.40625 C 234.292969 182.007812 233.753906 180.578125 233.292969 179.121094 C 232.1875 175.664062 229.636719 172.484375 227.535156 169.898438 Z M 227.429688 169.722656 " fill-opacity="1" fill-rule="nonzero"/><path fill="#2b2b2b" d="M 246.367188 146.734375 C 246.308594 146.742188 246.257812 146.722656 246.210938 146.683594 C 246.113281 146.585938 246.113281 146.492188 246.210938 146.394531 C 246.242188 146.359375 247.046875 145.53125 249.636719 145.480469 C 249.773438 145.480469 249.84375 145.546875 249.847656 145.679688 C 249.851562 145.820312 249.78125 145.886719 249.644531 145.886719 C 247.261719 145.933594 246.511719 146.667969 246.507812 146.679688 C 246.46875 146.71875 246.421875 146.734375 246.367188 146.734375 Z M 246.367188 146.734375 " fill-opacity="1" fill-rule="nonzero"/><path fill="#2b2b2b" d="M 254.761719 147.421875 C 254.679688 147.429688 254.617188 147.398438 254.574219 147.328125 C 254.496094 147.214844 254.519531 147.121094 254.636719 147.046875 C 254.671875 147.046875 255.527344 146.46875 258.089844 146.46875 C 258.148438 146.46875 258.199219 146.484375 258.238281 146.527344 C 258.28125 146.566406 258.300781 146.613281 258.296875 146.671875 C 258.300781 146.808594 258.238281 146.875 258.101562 146.878906 C 255.65625 146.925781 254.867188 147.410156 254.859375 147.414062 C 254.828125 147.425781 254.796875 147.429688 254.761719 147.421875 Z M 254.761719 147.421875 " fill-opacity="1" fill-rule="nonzero"/><path fill="#2b2b2b" d="M 266.921875 150.375 C 266.875 150.375 266.835938 150.367188 266.796875 150.339844 C 266.417969 150.082031 266.003906 149.933594 265.550781 149.894531 C 265.09375 149.859375 264.660156 149.933594 264.246094 150.125 C 264.128906 150.191406 264.035156 150.167969 263.96875 150.050781 C 263.902344 149.933594 263.925781 149.839844 264.042969 149.773438 C 264.523438 149.542969 265.027344 149.445312 265.558594 149.484375 C 266.089844 149.523438 266.578125 149.695312 267.015625 150 C 267.128906 150.070312 267.148438 150.164062 267.078125 150.277344 C 267.042969 150.332031 266.988281 150.363281 266.921875 150.375 Z M 266.921875 150.375 " fill-opacity="1" fill-rule="nonzero"/><path fill="#2b2b2b" d="M 246.402344 163.78125 C 246.621094 163.820312 246.8125 163.761719 246.976562 163.613281 C 253.242188 157.617188 265.980469 159.574219 266.082031 159.574219 C 266.269531 159.605469 266.433594 159.5625 266.585938 159.449219 C 266.734375 159.335938 266.820312 159.1875 266.84375 159 C 266.871094 158.820312 266.832031 158.65625 266.722656 158.507812 C 266.617188 158.359375 266.476562 158.269531 266.296875 158.238281 C 263.800781 157.890625 261.296875 157.800781 258.78125 157.96875 C 253.265625 158.320312 248.867188 159.929688 246.0625 162.578125 C 245.933594 162.710938 245.867188 162.867188 245.867188 163.050781 C 245.867188 163.234375 245.933594 163.390625 246.0625 163.519531 C 246.144531 163.648438 246.257812 163.734375 246.402344 163.78125 Z M 246.402344 163.78125 " fill-opacity="1" fill-rule="nonzero"/><path fill="#72af9f" d="M 309.554688 228.304688 C 316.128906 233.457031 323.128906 238.382812 327.949219 246.074219 C 332.769531 253.765625 333.570312 264.160156 331.21875 273.515625 C 330.132812 277.855469 327.242188 281.753906 324.945312 284.3125 C 322.992188 286.566406 320.617188 288.203125 317.816406 289.21875 C 313.652344 290.648438 309.238281 290.988281 304.90625 291.3125 L 236.339844 296.371094 C 217.378906 297.765625 198.40625 299.164062 179.417969 299.207031 C 127.910156 299.308594 123.523438 278.519531 72.703125 289.09375 C 64.972656 290.703125 55.972656 292.339844 50.25 285.59375 C 48.398438 283.25 47.074219 280.640625 46.277344 277.761719 C 41.125 261.042969 48.476562 241.167969 60.234375 231.058594 C 71.992188 220.953125 86.964844 218.894531 101.160156 219.867188 C 115.351562 220.84375 129.40625 224.089844 143.605469 224.742188 C 156.933594 225.359375 158.046875 222.769531 165.585938 218.847656 C 166.0625 218.65625 166.554688 218.585938 167.066406 218.636719 C 167.574219 218.691406 168.042969 218.859375 168.464844 219.148438 C 172.296875 221.289062 190.347656 224.914062 199.695312 219.4375 C 205.027344 216.324219 221.242188 230.523438 229.3125 232.410156 C 234.589844 233.644531 244.859375 230.535156 244.859375 230.535156 C 244.859375 230.535156 234.179688 206.320312 237.667969 202.328125 C 241.15625 198.339844 265.195312 195.054688 270.730469 196.703125 C 276.261719 198.351562 309.554688 228.304688 309.554688 228.304688 Z M 309.554688 228.304688 " fill-opacity="1" fill-rule="nonzero"/><path fill="#ffffff" d="M 319.570312 301.023438 L 264.355469 281.46875 C 256.578125 278.714844 248.582031 276.9375 240.367188 276.136719 C 224.667969 274.613281 199.050781 273.394531 183.269531 279.226562 C 183.269531 279.226562 159.980469 273.503906 134.578125 274.878906 C 124.589844 275.4375 114.90625 277.453125 105.523438 280.921875 L 50.824219 301.023438 L 185.410156 323.59375 Z M 319.570312 301.023438 " fill-opacity="1" fill-rule="nonzero"/><path fill="#ffffff" d="M 50.835938 301.023438 L 50.835938 329.351562 L 319.570312 329.351562 L 319.570312 301.023438 C 319.570312 301.023438 199.8125 298.371094 185.203125 318.285156 C 185.203125 318.285156 151.171875 300.140625 50.835938 301.023438 Z M 50.835938 301.023438 " fill-opacity="1" fill-rule="nonzero"/><g clip-path="url(#a574d16cd7)"><path fill="#2b2b2b" d="M 323.105469 332.007812 L 47.746094 332.007812 L 47.746094 323.59375 L 323.105469 323.59375 Z M 323.105469 332.007812 " fill-opacity="1" fill-rule="nonzero"/></g><path fill="#2b2b2b" d="M 185.203125 319.027344 C 185.082031 319.027344 184.964844 319 184.859375 318.941406 C 184.773438 318.894531 176.125 314.375 155.367188 310.023438 C 120.660156 302.742188 79.367188 301.511719 50.84375 301.765625 C 50.652344 301.75 50.488281 301.667969 50.359375 301.527344 C 50.230469 301.386719 50.164062 301.21875 50.164062 301.023438 C 50.164062 300.832031 50.230469 300.664062 50.359375 300.523438 C 50.488281 300.382812 50.652344 300.300781 50.84375 300.285156 C 79.480469 300.03125 120.949219 301.269531 155.8125 308.597656 C 174.472656 312.523438 183.242188 316.492188 185.175781 317.433594 C 200.820312 307.054688 246.328125 302.929688 281.90625 301.289062 C 303.085938 300.308594 319.4375 300.289062 319.601562 300.289062 C 319.792969 300.308594 319.953125 300.386719 320.082031 300.527344 C 320.210938 300.671875 320.277344 300.839844 320.277344 301.03125 C 320.277344 301.222656 320.210938 301.390625 320.082031 301.535156 C 319.953125 301.675781 319.792969 301.753906 319.601562 301.773438 C 319.4375 301.773438 303.117188 301.773438 281.972656 302.769531 C 246.316406 304.417969 200.65625 308.5625 185.652344 318.914062 C 185.515625 319 185.367188 319.039062 185.203125 319.027344 Z M 185.203125 319.027344 " fill-opacity="1" fill-rule="nonzero"/><g clip-path="url(#d8f6440c78)"><path fill="#2b2b2b" d="M 323.105469 332.746094 L 47.746094 332.746094 C 47.539062 332.746094 47.367188 332.675781 47.21875 332.53125 C 47.074219 332.386719 47.003906 332.210938 47.003906 332.007812 L 47.003906 323.59375 C 47.003906 323.390625 47.078125 323.21875 47.222656 323.074219 C 47.367188 322.929688 47.542969 322.859375 47.746094 322.859375 L 323.105469 322.859375 C 323.3125 322.859375 323.484375 322.929688 323.628906 323.074219 C 323.773438 323.21875 323.847656 323.390625 323.847656 323.59375 L 323.847656 332.007812 C 323.847656 332.210938 323.777344 332.386719 323.632812 332.53125 C 323.484375 332.675781 323.3125 332.746094 323.105469 332.746094 Z M 48.464844 331.269531 L 322.371094 331.269531 L 322.371094 324.351562 L 48.480469 324.351562 Z M 48.464844 331.269531 " fill-opacity="1" fill-rule="nonzero"/></g><path fill="#ffffff" d="M 132.757812 274.996094 C 143.871094 273.226562 155.847656 275.925781 165.359375 281.914062 C 169.679688 284.648438 173.316406 288.394531 177.738281 290.972656 C 178.507812 291.421875 179.378906 291.855469 180.328125 291.226562 C 180.78125 290.914062 181.078125 290.492188 181.21875 289.957031 C 181.558594 288.746094 181.085938 287.554688 180.539062 286.5 C 178.238281 281.984375 174.507812 278.390625 170.699219 275.054688 C 161.488281 266.953125 151.078125 259.628906 139.144531 256.757812 C 136.703125 256.183594 134.09375 255.785156 131.726562 256.613281 C 129.695312 257.425781 128.066406 258.738281 126.84375 260.558594 C 125.023438 263.058594 123.902344 266.230469 124.304688 269.253906 C 124.417969 270.09375 124.464844 270.941406 124.449219 271.789062 C 124.433594 273.425781 125.433594 276.167969 132.757812 274.996094 Z M 132.757812 274.996094 " fill-opacity="1" fill-rule="nonzero"/><path fill="#2b2b2b" d="M 179.335938 292.257812 C 178.628906 292.214844 177.984375 291.992188 177.398438 291.59375 C 175.035156 290.140625 172.792969 288.519531 170.671875 286.734375 C 168.855469 285.226562 166.964844 283.820312 164.996094 282.519531 C 155.386719 276.449219 143.691406 273.957031 132.871094 275.683594 C 129.125 276.257812 126.480469 275.945312 125.019531 274.683594 C 124.601562 274.324219 124.285156 273.890625 124.066406 273.386719 C 123.84375 272.878906 123.746094 272.351562 123.765625 271.800781 C 123.777344 270.984375 123.734375 270.171875 123.625 269.363281 C 123.226562 266.394531 124.203125 263.019531 126.285156 260.136719 C 127.589844 258.195312 129.328125 256.800781 131.503906 255.945312 C 134.117188 255.027344 136.914062 255.496094 139.308594 256.074219 C 152.679688 259.289062 163.894531 268.140625 171.167969 274.523438 C 174.726562 277.648438 178.726562 281.378906 181.164062 286.175781 C 181.738281 287.328125 182.3125 288.710938 181.894531 290.160156 C 181.707031 290.859375 181.3125 291.414062 180.714844 291.820312 C 180.300781 292.109375 179.839844 292.253906 179.335938 292.257812 Z M 139.691406 273.761719 C 144.300781 273.78125 148.816406 274.433594 153.242188 275.722656 C 157.667969 277.015625 161.832031 278.890625 165.730469 281.347656 C 167.746094 282.675781 169.679688 284.109375 171.535156 285.652344 C 173.601562 287.394531 175.785156 288.976562 178.085938 290.394531 C 178.90625 290.875 179.390625 291.035156 179.941406 290.667969 C 180.253906 290.453125 180.457031 290.160156 180.558594 289.796875 C 180.828125 288.808594 180.414062 287.777344 179.925781 286.808594 C 177.621094 282.238281 173.710938 278.609375 170.246094 275.574219 C 163.082031 269.292969 152.050781 260.582031 138.980469 257.433594 C 136.78125 256.902344 134.230469 256.46875 131.957031 257.265625 C 130.054688 258.027344 128.535156 259.257812 127.402344 260.96875 C 125.519531 263.554688 124.644531 266.542969 124.996094 269.160156 C 125.105469 270.035156 125.15625 270.914062 125.144531 271.796875 C 125.105469 272.535156 125.359375 273.148438 125.917969 273.636719 C 126.699219 274.308594 128.503906 274.972656 132.648438 274.308594 L 132.757812 274.996094 L 132.648438 274.308594 C 134.980469 273.941406 137.324219 273.757812 139.683594 273.761719 Z M 139.691406 273.761719 " fill-opacity="1" fill-rule="nonzero"/><path fill="#2b2b2b" d="M 133.078125 256.820312 C 132.976562 256.820312 132.875 256.796875 132.78125 256.753906 C 132.574219 256.65625 111.777344 246.703125 91.421875 243.066406 C 91.234375 243.03125 91.085938 242.933594 90.976562 242.777344 C 90.867188 242.621094 90.832031 242.449219 90.863281 242.261719 C 90.898438 242.074219 90.992188 241.921875 91.148438 241.8125 C 91.304688 241.703125 91.476562 241.664062 91.664062 241.699219 C 112.207031 245.371094 133.171875 255.402344 133.378906 255.5 C 133.527344 255.570312 133.636719 255.675781 133.710938 255.824219 C 133.78125 255.972656 133.800781 256.125 133.765625 256.285156 C 133.726562 256.441406 133.644531 256.574219 133.515625 256.675781 C 133.390625 256.773438 133.242188 256.824219 133.078125 256.820312 Z M 133.078125 256.820312 " fill-opacity="1" fill-rule="nonzero"/><path fill="#2b2b2b" d="M 276.257812 274.546875 C 276.128906 274.546875 276.007812 274.511719 275.898438 274.441406 C 260.007812 264.84375 244.867188 232.226562 244.230469 230.839844 C 244.144531 230.667969 244.132812 230.484375 244.195312 230.300781 C 244.261719 230.117188 244.382812 229.984375 244.5625 229.902344 C 244.738281 229.820312 244.917969 229.8125 245.101562 229.886719 C 245.285156 229.957031 245.414062 230.082031 245.488281 230.265625 C 245.644531 230.597656 261.089844 263.878906 276.613281 273.261719 C 276.746094 273.339844 276.839844 273.453125 276.894531 273.597656 C 276.953125 273.742188 276.960938 273.890625 276.917969 274.039062 C 276.878906 274.191406 276.796875 274.3125 276.671875 274.40625 C 276.550781 274.5 276.410156 274.550781 276.257812 274.550781 Z M 276.257812 274.546875 " fill-opacity="1" fill-rule="nonzero"/><path fill="#2b2b2b" d="M 266.339844 110.769531 C 265.90625 110.769531 265.480469 110.710938 265.0625 110.589844 L 261.003906 109.464844 C 260.304688 109.285156 259.683594 108.953125 259.144531 108.46875 C 258.605469 107.984375 258.207031 107.40625 257.953125 106.726562 L 254.019531 95.550781 C 253.75 94.914062 253.519531 94.257812 253.328125 93.59375 C 253.328125 93.59375 253.328125 93.59375 253.328125 93.558594 C 253.140625 92.878906 252.992188 92.1875 252.890625 91.488281 C 252.785156 90.789062 252.726562 90.089844 252.714844 89.382812 C 252.699219 88.675781 252.730469 87.972656 252.804688 87.269531 C 252.878906 86.566406 253 85.871094 253.160156 85.1875 C 253.324219 84.5 253.53125 83.824219 253.777344 83.164062 C 254.027344 82.503906 254.316406 81.859375 254.644531 81.234375 C 254.972656 80.609375 255.34375 80.007812 255.746094 79.433594 C 256.152344 78.855469 256.59375 78.304688 257.070312 77.78125 C 257.542969 77.261719 258.050781 76.769531 258.585938 76.3125 C 259.125 75.855469 259.6875 75.433594 260.277344 75.046875 C 260.867188 74.660156 261.480469 74.3125 262.117188 74.003906 C 262.75 73.695312 263.402344 73.429688 264.070312 73.203125 C 264.738281 72.976562 265.417969 72.796875 266.109375 72.65625 C 266.800781 72.515625 267.5 72.421875 268.203125 72.371094 C 268.90625 72.320312 269.609375 72.3125 270.3125 72.351562 C 271.015625 72.390625 271.714844 72.472656 272.410156 72.597656 C 272.851562 72.679688 273.296875 72.785156 273.734375 72.90625 C 274.761719 73.191406 275.753906 73.570312 276.707031 74.046875 C 277.664062 74.523438 278.5625 75.089844 279.410156 75.742188 C 280.253906 76.394531 281.027344 77.121094 281.734375 77.921875 C 282.4375 78.722656 283.058594 79.585938 283.597656 80.507812 C 284.136719 81.433594 284.578125 82.398438 284.929688 83.40625 C 285.28125 84.414062 285.53125 85.449219 285.683594 86.507812 C 285.835938 87.5625 285.882812 88.625 285.828125 89.691406 C 285.773438 90.761719 285.617188 91.8125 285.359375 92.847656 C 285.3125 93.03125 285.265625 93.21875 285.214844 93.425781 C 284.390625 96.414062 282.855469 98.976562 280.609375 101.109375 L 280.539062 101.179688 C 279.6875 101.972656 278.761719 102.671875 277.765625 103.277344 L 268.957031 109.914062 C 268.179688 110.492188 267.308594 110.777344 266.339844 110.769531 Z M 254.660156 93.195312 C 254.832031 93.8125 255.046875 94.417969 255.296875 95.011719 C 255.300781 95.023438 255.300781 95.039062 255.296875 95.050781 L 259.242188 106.25 C 259.425781 106.710938 259.703125 107.105469 260.078125 107.433594 C 260.449219 107.761719 260.875 107.988281 261.355469 108.109375 L 265.386719 109.265625 C 265.84375 109.402344 266.308594 109.433594 266.78125 109.355469 C 267.253906 109.28125 267.683594 109.101562 268.074219 108.824219 L 276.894531 102.144531 L 276.953125 102.097656 C 277.890625 101.535156 278.757812 100.882812 279.550781 100.128906 C 281.625 98.167969 283.042969 95.8125 283.804688 93.054688 C 283.851562 92.882812 283.898438 92.714844 283.9375 92.542969 C 284.171875 91.59375 284.316406 90.628906 284.367188 89.652344 C 284.417969 88.671875 284.371094 87.699219 284.234375 86.730469 C 284.097656 85.761719 283.867188 84.816406 283.546875 83.890625 C 283.222656 82.964844 282.816406 82.082031 282.324219 81.234375 C 281.832031 80.390625 281.261719 79.597656 280.617188 78.863281 C 279.96875 78.128906 279.257812 77.460938 278.484375 76.863281 C 277.710938 76.265625 276.886719 75.75 276.011719 75.3125 C 275.136719 74.875 274.226562 74.527344 273.285156 74.265625 C 272.886719 74.15625 272.480469 74.058594 272.070312 73.984375 C 271.433594 73.867188 270.792969 73.792969 270.148438 73.757812 C 269.503906 73.726562 268.859375 73.734375 268.214844 73.78125 C 267.570312 73.828125 266.929688 73.917969 266.296875 74.046875 C 265.664062 74.175781 265.042969 74.34375 264.429688 74.550781 C 263.816406 74.757812 263.222656 75.003906 262.640625 75.285156 C 262.058594 75.570312 261.5 75.886719 260.957031 76.242188 C 260.417969 76.597656 259.902344 76.984375 259.410156 77.402344 C 258.917969 77.824219 258.453125 78.273438 258.019531 78.75 C 257.585938 79.230469 257.179688 79.734375 256.808594 80.261719 C 256.4375 80.792969 256.101562 81.34375 255.800781 81.914062 C 255.496094 82.488281 255.234375 83.078125 255.007812 83.683594 C 254.777344 84.289062 254.589844 84.90625 254.441406 85.535156 C 254.292969 86.164062 254.183594 86.800781 254.113281 87.445312 C 254.042969 88.089844 254.015625 88.734375 254.027344 89.378906 C 254.042969 90.027344 254.09375 90.671875 254.1875 91.3125 C 254.28125 91.949219 254.417969 92.582031 254.589844 93.207031 Z M 284.535156 93.195312 Z M 284.535156 93.195312 " fill-opacity="1" fill-rule="nonzero"/><path fill="#2b2b2b" d="M 265.792969 108.820312 L 265.691406 108.820312 C 265.503906 108.789062 265.355469 108.695312 265.242188 108.542969 C 265.132812 108.394531 265.089844 108.222656 265.113281 108.035156 C 265.871094 102.8125 267.453125 99.273438 269.144531 96.894531 C 268.617188 96.5625 268.136719 96.164062 267.710938 95.703125 C 266.898438 95.804688 266.082031 95.84375 265.265625 95.816406 C 265.027344 101.191406 262.289062 106.386719 262.132812 106.679688 C 262.054688 106.867188 261.917969 106.996094 261.722656 107.066406 C 261.53125 107.132812 261.34375 107.121094 261.164062 107.023438 C 260.984375 106.929688 260.867188 106.78125 260.816406 106.582031 C 260.765625 106.386719 260.796875 106.199219 260.90625 106.027344 C 260.945312 105.960938 263.652344 100.839844 263.871094 95.714844 C 259.605469 95.136719 258.890625 92.296875 258.777344 91.382812 C 258.546875 89.609375 259.390625 87.925781 260.699219 87.496094 C 261.273438 87.320312 262.8125 87.175781 264.152344 89.804688 C 264.859375 91.261719 265.230469 92.796875 265.277344 94.417969 C 265.800781 94.445312 266.324219 94.445312 266.847656 94.417969 C 266.367188 93.34375 266.316406 92.25 266.703125 91.136719 C 267.402344 89.082031 269.449219 87.515625 271.097656 87.78125 C 272.496094 88.003906 273.5 89.597656 273.320312 91.332031 C 273.230469 92.214844 272.886719 92.984375 272.289062 93.636719 C 272.960938 93.128906 273.6875 92.714844 274.464844 92.386719 C 276.191406 91.699219 277.800781 91.710938 278.6875 92.386719 C 279.574219 93.0625 279.675781 94.53125 278.800781 95.847656 C 277.402344 97.980469 274.195312 99.351562 270.367188 97.535156 C 268.78125 99.738281 267.25 103.105469 266.519531 108.195312 C 266.5 108.378906 266.421875 108.53125 266.28125 108.652344 C 266.140625 108.773438 265.980469 108.828125 265.792969 108.820312 Z M 271.21875 96.441406 C 274.597656 97.886719 276.847656 96.257812 277.597656 95.109375 C 277.984375 94.53125 278.171875 93.777344 277.789062 93.476562 C 277.402344 93.175781 276.433594 93.054688 274.945312 93.65625 C 273.484375 94.292969 272.242188 95.21875 271.21875 96.441406 Z M 269.347656 95.34375 C 269.535156 95.496094 269.746094 95.640625 269.96875 95.785156 C 270.328125 95.351562 270.710938 94.941406 271.121094 94.554688 C 270.566406 94.898438 269.972656 95.160156 269.347656 95.34375 Z M 261.257812 88.789062 C 261.199219 88.78125 261.136719 88.78125 261.078125 88.789062 C 260.503906 88.96875 259.96875 89.988281 260.117188 91.171875 C 260.222656 91.988281 260.800781 93.789062 263.84375 94.273438 C 263.792969 92.910156 263.46875 91.617188 262.875 90.390625 C 262.351562 89.378906 261.757812 88.789062 261.257812 88.789062 Z M 270.671875 89.105469 C 269.785156 89.105469 268.460938 90.128906 267.976562 91.550781 C 267.816406 91.988281 267.765625 92.441406 267.816406 92.90625 C 267.871094 93.367188 268.027344 93.796875 268.28125 94.1875 C 270.722656 93.671875 271.777344 92.40625 271.902344 91.164062 C 272.011719 90.082031 271.425781 89.214844 270.832031 89.117188 Z M 270.671875 89.105469 " fill-opacity="1" fill-rule="nonzero"/><path fill="#ffffff" d="M 256.535156 109.269531 C 256.535156 109.269531 268.050781 111.320312 268.660156 113.085938 C 269.273438 114.851562 268.039062 117.167969 267.101562 117.210938 C 265.558594 117.265625 254.695312 114.804688 254.726562 113.4375 C 254.761719 112.070312 255.390625 109.078125 256.535156 109.269531 Z M 256.535156 109.269531 " fill-opacity="1" fill-rule="nonzero"/><path fill="#ffffff" d="M 257.75 104.714844 C 257.75 104.714844 269.265625 106.765625 269.875 108.53125 C 270.488281 110.296875 269.253906 112.613281 268.316406 112.648438 C 266.773438 112.707031 255.910156 110.25 255.941406 108.882812 C 255.976562 107.515625 256.605469 104.523438 257.75 104.714844 Z M 257.75 104.714844 " fill-opacity="1" fill-rule="nonzero"/><path fill="#72af9f" d="M 266.035156 106.621094 C 262.484375 105.554688 257.75 104.714844 257.75 104.714844 C 256.597656 104.523438 255.972656 107.511719 255.941406 108.882812 C 255.941406 109.015625 256.035156 109.152344 256.214844 109.304688 C 255.269531 109.648438 254.757812 112.1875 254.726562 113.4375 C 254.699219 114.445312 260.601562 116.050781 264.320312 116.792969 C 264.320312 116.792969 258.765625 114.839844 259.398438 113.21875 C 260.03125 111.597656 265.628906 112.261719 265.628906 112.261719 C 265.628906 112.261719 260.296875 110.53125 260.746094 108.082031 C 261.195312 105.632812 266.035156 106.621094 266.035156 106.621094 Z M 266.035156 106.621094 " fill-opacity="1" fill-rule="nonzero"/><path fill="#2b2b2b" d="M 267.074219 117.902344 C 265.585938 117.902344 256.074219 115.90625 254.40625 114.269531 C 254.152344 114.042969 254.023438 113.761719 254.019531 113.421875 C 254.019531 112.554688 254.429688 109.21875 255.960938 108.652344 C 256.144531 108.566406 256.332031 108.558594 256.519531 108.636719 C 256.710938 108.714844 256.839844 108.847656 256.910156 109.039062 C 256.984375 109.230469 256.972656 109.417969 256.878906 109.601562 C 256.785156 109.78125 256.640625 109.902344 256.445312 109.957031 C 256.0625 110.101562 255.476562 111.859375 255.414062 113.316406 C 256.460938 114.347656 265.449219 116.582031 267.0625 116.511719 C 267.101562 116.511719 267.355469 116.363281 267.636719 115.859375 C 268.113281 115.0625 268.234375 114.210938 268.003906 113.3125 C 267.964844 113.269531 267.921875 113.226562 267.878906 113.191406 C 267.726562 113.070312 267.640625 112.914062 267.621094 112.722656 C 267.597656 112.53125 267.648438 112.359375 267.769531 112.210938 C 267.886719 112.058594 268.042969 111.972656 268.234375 111.953125 C 268.425781 111.929688 268.597656 111.980469 268.75 112.101562 C 269.015625 112.296875 269.207031 112.546875 269.324219 112.855469 C 269.515625 113.535156 269.554688 114.226562 269.441406 114.925781 C 269.328125 115.621094 269.070312 116.261719 268.667969 116.847656 C 268.328125 117.449219 267.816406 117.796875 267.128906 117.890625 Z M 267.074219 117.902344 " fill-opacity="1" fill-rule="nonzero"/><path fill="#2b2b2b" d="M 268.289062 113.347656 C 266.800781 113.347656 257.289062 111.351562 255.621094 109.714844 C 255.367188 109.488281 255.238281 109.207031 255.234375 108.867188 C 255.265625 107.777344 255.660156 105.246094 256.730469 104.355469 C 257.054688 104.070312 257.429688 103.960938 257.855469 104.027344 C 262.316406 104.816406 269.886719 106.425781 270.523438 108.304688 C 270.714844 108.988281 270.753906 109.675781 270.636719 110.375 C 270.523438 111.074219 270.265625 111.714844 269.867188 112.296875 C 269.523438 112.898438 269.011719 113.246094 268.328125 113.339844 Z M 256.640625 108.734375 C 257.6875 109.765625 266.675781 111.984375 268.289062 111.925781 C 268.542969 111.769531 268.738281 111.550781 268.863281 111.277344 C 269.335938 110.472656 269.453125 109.621094 269.214844 108.722656 C 268.730469 107.875 262.847656 106.300781 257.652344 105.371094 C 257.277344 105.585938 256.703125 107.320312 256.640625 108.761719 Z M 256.640625 108.734375 " fill-opacity="1" fill-rule="nonzero"/></svg>